<svg xmlns="http://www.w3.org/2000/svg" width="150" height="150" viewBox="0 0 150 150">
  <g id="Grupo_152690" data-name="Grupo 152690" transform="translate(-862 -5565)">
    <g id="Grupo_152446" data-name="Grupo 152446" transform="translate(0 20)">
      <g id="Grupo_149665" data-name="Grupo 149665" transform="translate(347 -1590)">
        <g id="Elipse_5971" data-name="Elipse 5971" transform="translate(515 7135)" fill="#fff" stroke="#77b43a" stroke-width="4">
          <circle cx="75" cy="75" r="75" stroke="none"/>
          <circle cx="75" cy="75" r="73" fill="none"/>
        </g>
      </g>
      <g id="Grupo_150581" data-name="Grupo 150581" transform="translate(603.725 5281.662)">
        <g id="Grupo_150580" data-name="Grupo 150580" transform="translate(282.275 295.338)">
          <g id="Grupo_150579" data-name="Grupo 150579">
            <path id="Trazado_202730" data-name="Trazado 202730" d="M446.448,318.06v5.4h-3.8a11.748,11.748,0,0,1-1.492,3.6l2.693,2.693-3.821,3.817-2.689-2.689a11.844,11.844,0,0,1-3.6,1.487v3.808h-5.4v-3.808a11.845,11.845,0,0,1-3.6-1.487l-2.693,2.689-3.817-3.817,2.689-2.693a11.843,11.843,0,0,1-1.487-3.6h-3.808v-5.4h3.808a11.843,11.843,0,0,1,1.487-3.6l-2.689-2.693,3.817-3.817,2.693,2.693a11.749,11.749,0,0,1,3.6-1.492v-3.8h5.4v3.8a11.748,11.748,0,0,1,3.6,1.492l2.689-2.693,3.821,3.817-2.693,2.693a11.748,11.748,0,0,1,1.492,3.6Zm-6.116,2.7a9.295,9.295,0,1,0-9.295,9.294A9.293,9.293,0,0,0,440.333,320.762Z" transform="translate(-345.414 -300.079)" fill="#f85316" stroke="#000" stroke-width="1"/>
            <path id="Trazado_202731" data-name="Trazado 202731" d="M448.6,367.676a27.452,27.452,0,0,1-16.85,31.015l-.815-4.007a23.434,23.434,0,0,0,13.718-26.205c-.056-.277-.126-.551-.2-.828L448.2,366C448.347,366.553,448.482,367.108,448.6,367.676Z" transform="translate(-352.661 -328.795)" fill="#dce736" stroke="#000" stroke-width="1"/>
            <path id="Trazado_202732" data-name="Trazado 202732" d="M440.523,325.377a4.864,4.864,0,1,1-4.861,4.866A4.864,4.864,0,0,1,440.523,325.377Z" transform="translate(-354.899 -309.561)" fill="#dce736" stroke="#000" stroke-width="1"/>
            <path id="Trazado_202733" data-name="Trazado 202733" d="M411.224,416.3v3.318h-2.338a7.135,7.135,0,0,1-.915,2.208l1.657,1.652-2.347,2.347-1.656-1.653a7.134,7.134,0,0,1-2.208.915v2.338H400.1v-2.338a7.171,7.171,0,0,1-2.208-.915l-1.653,1.653-2.346-2.347,1.652-1.652a7.135,7.135,0,0,1-.915-2.208h-2.338V416.3h2.338a7.183,7.183,0,0,1,.915-2.208l-1.652-1.653,2.346-2.346,1.653,1.653a7.17,7.17,0,0,1,2.208-.915v-2.338h3.318v2.338a7.133,7.133,0,0,1,2.208.915l1.656-1.653,2.347,2.346-1.657,1.653a7.183,7.183,0,0,1,.915,2.208Zm-3.756,1.661a5.71,5.71,0,1,0-5.708,5.708A5.711,5.711,0,0,0,407.468,417.959Z" transform="translate(-334.365 -348.913)" fill="#f85316" stroke="#000" stroke-width="1"/>
            <path id="Trazado_202734" data-name="Trazado 202734" d="M381.379,302.376l-2.615,1.574a17.478,17.478,0,0,0-30.239,10.318l-3.053.685a20.478,20.478,0,0,1,35.907-12.578Z" transform="translate(-312.197 -295.338)" fill="#dce736" stroke="#000" stroke-width="1"/>
            <path id="Trazado_202735" data-name="Trazado 202735" d="M344.6,365.889v10.925h-7.7a23.874,23.874,0,0,1-3.01,7.269l5.443,5.443-7.725,7.724-5.443-5.443a24.054,24.054,0,0,1-7.269,3.01v7.7H307.977v-7.7a24.052,24.052,0,0,1-7.269-3.01l-5.443,5.443-7.725-7.724,5.443-5.443a23.887,23.887,0,0,1-3.01-7.269h-7.7V365.889h7.7a23.9,23.9,0,0,1,3.01-7.269l-5.443-5.443,7.725-7.724,5.443,5.443a24.052,24.052,0,0,1,7.269-3.01v-7.7H318.9v7.7a24.054,24.054,0,0,1,7.269,3.01l5.443-5.443,7.725,7.724-5.443,5.443a23.884,23.884,0,0,1,3.01,7.269Zm-13.172,5.461a17.99,17.99,0,1,0-17.99,17.995A17.992,17.992,0,0,0,331.428,371.35Z" transform="translate(-282.275 -316.573)" fill="#3d46c2" stroke="#000" stroke-width="1"/>
            <path id="Trazado_202736" data-name="Trazado 202736" d="M357.9,384.129H346.032V372.263A14.482,14.482,0,0,1,357.9,384.129Z" transform="translate(-312.462 -331.76)" fill="#75b62f" stroke="#000" stroke-width="1"/>
            <path id="Trazado_202737" data-name="Trazado 202737" d="M346.032,403.952H357.9a14.482,14.482,0,0,1-11.866,11.866Z" transform="translate(-312.462 -346.763)" fill="#75b62f" stroke="#000" stroke-width="1"/>
            <path id="Trazado_202738" data-name="Trazado 202738" d="M326.213,403.952v11.866a14.483,14.483,0,0,1-11.862-11.866Z" transform="translate(-297.462 -346.763)" fill="#75b62f" stroke="#000" stroke-width="1"/>
            <path id="Trazado_202739" data-name="Trazado 202739" d="M326.213,372.263v11.866H314.351A14.488,14.488,0,0,1,326.213,372.263Z" transform="translate(-297.462 -331.76)" fill="#75b62f" stroke="#000" stroke-width="1"/>
          </g>
        </g>
      </g>
    </g>
  </g>
</svg>
