<svg xmlns="http://www.w3.org/2000/svg" width="1242" height="967.277" viewBox="0 0 1242 967.277">
  <g id="Grupo_152775" data-name="Grupo 152775" transform="translate(-179 -312.756)">
    <path id="Rectángulo_40621" data-name="Rectángulo 40621" d="M192.527,846.62H366.833c3.266,0,5.917,2.96,5.917,6.606v65.867c0,3.647-2.651,6.607-5.917,6.607H192.527c-3.266,0-5.917-2.96-5.917-6.607V853.226C186.61,849.58,189.261,846.62,192.527,846.62Z" transform="translate(-6.61 -150.6)" fill="#d1d5fc" stroke="#3e4bbf" stroke-width="2"/>
    <path id="Rectángulo_40621-2" data-name="Rectángulo 40621" d="M192.527,846.62H366.833c3.266,0,5.917,4.322,5.917,9.648v96.191c0,5.326-2.651,9.648-5.917,9.648H192.527c-3.266,0-5.917-4.322-5.917-9.648V856.268C186.61,850.942,189.261,846.62,192.527,846.62Z" transform="translate(-6.61 -49.144)" fill="#d1d5fc" stroke="#3e4bbf" stroke-width="2"/>
    <path id="Rectángulo_40621-3" data-name="Rectángulo 40621" d="M192.527,846.62H366.833c3.266,0,5.917,5.408,5.917,12.071V979.037c0,6.664-2.651,12.071-5.917,12.071H192.527c-3.266,0-5.917-5.407-5.917-12.071V858.691C186.61,852.028,189.261,846.62,192.527,846.62Z" transform="translate(729.053 287.925)" fill="#d1d5fc" stroke="#3e4bbf" stroke-width="2"/>
    <path id="Rectángulo_40621-4" data-name="Rectángulo 40621" d="M192.527,846.62H366.833c3.266,0,5.917,4.322,5.917,9.648v96.191c0,5.326-2.651,9.648-5.917,9.648H192.527c-3.266,0-5.917-4.322-5.917-9.648V856.268C186.61,850.942,189.261,846.62,192.527,846.62Z" transform="translate(195.625 125.71)" fill="#d1d5fc" stroke="#3e4bbf" stroke-width="2"/>
    <path id="Rectángulo_40621-5" data-name="Rectángulo 40621" d="M192.527,846.62H366.833c3.266,0,5.917,3.738,5.917,8.344v83.193c0,4.606-2.651,8.344-5.917,8.344H192.527c-3.266,0-5.917-3.738-5.917-8.344V854.964C186.61,850.358,189.261,846.62,192.527,846.62Z" transform="translate(729.053 157.004)" fill="#d1d5fc" stroke="#3e4bbf" stroke-width="2"/>
    <path id="Rectángulo_40621-6" data-name="Rectángulo 40621" d="M192.527,846.62H366.833c3.266,0,5.917,2.992,5.917,6.679v66.593c0,3.687-2.651,6.679-5.917,6.679H192.527c-3.266,0-5.917-2.992-5.917-6.679V853.3C186.61,849.612,189.261,846.62,192.527,846.62Z" transform="translate(195.625 272.556)" fill="#d1d5fc" stroke="#3e4bbf" stroke-width="2"/>
    <text id="Retribución_por_el_servicio_prestado." data-name="Retribución por el servicio prestado." transform="translate(193.395 707.431)" fill="#12263f" font-size="16" font-family="Roboto-Bold, Roboto" font-weight="700"><tspan x="15.731" y="17">Retribución por el </tspan><tspan x="14.95" y="41">servicio prestado.</tspan></text>
    <text id="Salario_mínimo._Salario_integral._Salario_variable._Salario_a_destajo." data-name="Salario mínimo.
Salario integral.
Salario variable.
Salario a destajo." transform="translate(193.395 809.878)" fill="#12263f" font-size="16" font-family="Roboto-Bold, Roboto" font-weight="700"><tspan x="22.891" y="17">Salario mínimo.</tspan><tspan x="22.653" y="41">Salario integral.</tspan><tspan x="21.508" y="65">Salario variable.</tspan><tspan x="17.239" y="89">Salario a destajo.</tspan></text>
    <text id="Da_origen_a_prestaciones_sociales:_primas_liquidación_licencias_entre_otros." data-name="Da origen a prestaciones sociales: primas, liquidación, licencias, entre otros." transform="translate(929.215 1146.947)" fill="#12263f" font-size="16" font-family="Roboto-Bold, Roboto" font-weight="700"><tspan x="38.86" y="17">Da origen a </tspan><tspan x="32.969" y="41">prestaciones </tspan><tspan x="18.704" y="65">sociales: primas, </tspan><tspan x="2.289" y="89">liquidación, licencias, </tspan><tspan x="37.848" y="113">entre otros.</tspan></text>
    <text id="Elementos:_salario_subordinación_y_prestación_del_servicio." data-name="Elementos: salario, subordinación y prestación del servicio." transform="translate(395.395 984.732)" fill="#12263f" font-size="16" font-family="Roboto-Bold, Roboto" font-weight="700"><tspan x="11.079" y="17">Elementos: salario, </tspan><tspan x="22.317" y="41">subordinación y </tspan><tspan x="28.461" y="65">prestación del </tspan></text>
    <text id="Escritos_verbales_indefinidos_transitorios." data-name="Escritos, verbales, indefinidos, transitorios." transform="translate(929.215 1016.026)" fill="#12263f" font-size="16" font-family="Roboto-Bold, Roboto" font-weight="700"><tspan x="13.973" y="17">Escritos, verbales, </tspan><tspan x="37.555" y="41">indefinidos, </tspan><tspan x="35.938" y="65">transitorios.</tspan></text>
    <text id="Terminación:_Muerte._Renuncia._Despido." data-name="Terminación: Muerte.  Renuncia. Despido." transform="translate(395.395 1131.578)" fill="#12263f" font-size="16" font-family="Roboto-Bold, Roboto" font-weight="700"><tspan x="1.727" y="17" xml:space="preserve">Terminación: Muerte.  </tspan><tspan x="10.172" y="41">Renuncia. Despido.</tspan></text>
    <g id="Grupo_152268" data-name="Grupo 152268" transform="matrix(-0.695, 0.719, -0.719, -0.695, 1000.917, 540.632)">
      <line id="Línea_556" data-name="Línea 556" x2="184.016" transform="translate(0 0)" fill="none" stroke="#3e4bbf" stroke-miterlimit="10" stroke-width="2"/>
    </g>
    <g id="Grupo_152269" data-name="Grupo 152269" transform="matrix(-0.695, 0.719, -0.719, -0.695, 756.431, 681.932)">
      <line id="Línea_556-2" data-name="Línea 556" x2="184.016" transform="translate(0 0)" fill="none" stroke="#3e4bbf" stroke-miterlimit="10" stroke-width="2"/>
    </g>
    <g id="Grupo_152271" data-name="Grupo 152271" transform="matrix(0.695, 0.719, -0.719, 0.695, 887.081, 651.758)">
      <line id="Línea_556-3" data-name="Línea 556" x2="184.016" transform="translate(0 0)" fill="none" stroke="#3e4bbf" stroke-miterlimit="10" stroke-width="2"/>
    </g>
    <g id="Grupo_152270" data-name="Grupo 152270" transform="matrix(0.695, 0.719, -0.719, 0.695, 625.861, 540.632)">
      <line id="Línea_556-4" data-name="Línea 556" x2="184.016" transform="translate(0 0)" fill="none" stroke="#3e4bbf" stroke-miterlimit="10" stroke-width="2"/>
    </g>
    <path id="Rectángulo_40621-7" data-name="Rectángulo 40621" d="M192.527,846.62H366.833c3.266,0,5.917,6.339,5.917,14.149v141.064c0,7.811-2.651,14.149-5.917,14.149H192.527c-3.266,0-5.917-6.338-5.917-14.149V860.769C186.61,852.959,189.261,846.62,192.527,846.62Z" transform="translate(1044.872 -390.821)" fill="#d1d5fc" stroke="#3e4bbf" stroke-width="2"/>
    <text id="Salario_auxilio_de_transporte_horas_extras_bonificaciones_comisiones_entre_otras._" data-name="Salario, auxilio de transporte, horas extras, bonificaciones, comisiones, entre otras.
" transform="translate(1244.877 471.178)" fill="#12263f" font-size="16" font-family="Roboto-Bold, Roboto" font-weight="700"><tspan x="15.883" y="17">Salario, auxilio de </tspan><tspan x="17.852" y="41">transporte, horas </tspan><tspan x="55.301" y="65">extras, </tspan><tspan x="24.91" y="89">bonificaciones, </tspan><tspan x="15.442" y="113">comisiones, entre </tspan></text>
    <g id="Rectángulo_44843" data-name="Rectángulo 44843" transform="translate(980.555 714.267)" fill="#bae887" stroke="#77b43a" stroke-width="1">
      <rect width="183.561" height="104.6" rx="12" stroke="none"/>
      <rect x="0.5" y="0.5" width="182.561" height="103.6" rx="11.5" fill="none"/>
    </g>
    <text id="Deducciones" transform="translate(1006.167 752.962)" fill="#12263f" font-size="20" font-family="Roboto-Bold, Roboto" font-weight="700"><tspan x="9.255" y="21">Deducciones</tspan></text>
    <path id="Rectángulo_40621-8" data-name="Rectángulo 40621" d="M192.527,846.62H366.833a6.2,6.2,0,0,1,5.917,6.436v64.17a6.2,6.2,0,0,1-5.917,6.436H192.527a6.2,6.2,0,0,1-5.917-6.436v-64.17A6.2,6.2,0,0,1,192.527,846.62Z" transform="translate(1047.25 -118.959)" fill="#d1d5fc" stroke="#3e4bbf" stroke-width="2"/>
    <text id="Salud_pensión_libranzas_embargos." data-name="Salud, pensión, libranzas, embargos." transform="translate(1247.254 737.087)" fill="#12263f" font-size="16" font-family="Roboto-Bold, Roboto" font-weight="700"><tspan x="24.797" y="17">Salud, pensión, </tspan><tspan x="4.332" y="41">libranzas, embargos.</tspan></text>
    <g id="Rectángulo_44842" data-name="Rectángulo 44842" transform="translate(980.555 488.045)" fill="#bae887" stroke="#77b43a" stroke-width="1">
      <rect width="183.561" height="104.6" rx="12" stroke="none"/>
      <rect x="0.5" y="0.5" width="182.561" height="103.6" rx="11.5" fill="none"/>
    </g>
    <text id="Devengos" transform="translate(1006.167 522.771)" fill="#12263f" font-size="20" font-family="Roboto-Bold, Roboto" font-weight="700"><tspan x="22.869" y="21">Devengos</tspan></text>
    <path id="Rectángulo_40621-9" data-name="Rectángulo 40621" d="M192.811,846.62H375.488c3.423,0,6.2,4.322,6.2,9.648v96.191c0,5.326-2.778,9.648-6.2,9.648H192.811c-3.423,0-6.2-4.322-6.2-9.648V856.268C186.61,850.942,189.388,846.62,192.811,846.62Z" transform="translate(31.787 -349.294)" fill="#d1d5fc" stroke="#3e4bbf" stroke-width="2"/>
    <text id="Ciclo_contable:_libro_diario_mayor_auxiliares_balances_informes_financieros." data-name="Ciclo contable: libro diario, mayor, auxiliares, balances, informes financieros." transform="translate(235.896 506.826)" fill="#12263f" font-size="16" font-family="Roboto-Bold, Roboto" font-weight="700"><tspan x="7.977" y="17">Ciclo contable: libro </tspan><tspan x="31.18" y="41">diario, mayor, </tspan><tspan x="6.52" y="65">auxiliares, balances, </tspan><tspan x="2.817" y="89">informes financieros.</tspan></text>
    <g id="Grupo_114566" data-name="Grupo 114566" transform="translate(413.057 548.848)">
      <line id="Línea_556-5" data-name="Línea 556" x1="70.836" transform="translate(2.878 5.306)" fill="none" stroke="#3e4bbf" stroke-miterlimit="10" stroke-width="2"/>
      <path id="Trazado_158597" data-name="Trazado 158597" d="M184.433,300.116V288.59l-5.763,5.763Z" transform="translate(-178.67 -288.59)" fill="#3e4bbf"/>
    </g>
    <g id="Rectángulo_44844" data-name="Rectángulo 44844" transform="translate(473.841 476.139)" fill="#bae887" stroke="#77b43a" stroke-width="1">
      <rect width="183.561" height="142.665" rx="12" stroke="none"/>
      <rect x="0.5" y="0.5" width="182.561" height="141.665" rx="11.5" fill="none"/>
    </g>
    <text id="Hojas_de_cálculo_y_software_para_la_generación_de_informes_financieros." data-name="Hojas de cálculo y software para la generación de informes financieros." transform="translate(485.601 494.99)" fill="#12263f" font-size="16" font-family="Roboto-Bold, Roboto" font-weight="700"><tspan x="14.2" y="17">Hojas de cálculo y </tspan><tspan x="21.661" y="41">software para la </tspan><tspan x="28.649" y="65">generación de </tspan><tspan x="2.817" y="89">informes financieros.</tspan></text>
    <g id="Grupo_152272" data-name="Grupo 152272" transform="translate(1158.945 534.679)">
      <line id="Línea_556-6" data-name="Línea 556" x2="70.836" transform="translate(0 5.306)" fill="none" stroke="#3e4bbf" stroke-miterlimit="10" stroke-width="2"/>
      <path id="Trazado_158597-2" data-name="Trazado 158597" d="M178.67,300.117V288.59l5.763,5.763Z" transform="translate(-110.719 -288.59)" fill="#3e4bbf"/>
    </g>
    <g id="Grupo_152273" data-name="Grupo 152273" transform="translate(1158.761 760.899)">
      <line id="Línea_556-7" data-name="Línea 556" x2="70.836" transform="translate(0 5.306)" fill="none" stroke="#3e4bbf" stroke-miterlimit="10" stroke-width="2"/>
      <path id="Trazado_158597-3" data-name="Trazado 158597" d="M178.67,300.117V288.59l5.763,5.763Z" transform="translate(-110.719 -288.59)" fill="#3e4bbf"/>
    </g>
    <g id="Grupo_116166" data-name="Grupo 116166" transform="translate(367.275 737.087)">
      <line id="Línea_556-8" data-name="Línea 556" x1="41.665" transform="translate(4.223 7.788)" fill="none" stroke="#3e4bbf" stroke-miterlimit="10" stroke-width="2"/>
      <path id="Trazado_158597-4" data-name="Trazado 158597" d="M187.129,305.508V288.59l-8.459,8.459Z" transform="translate(-178.67 -288.59)" fill="#3e4bbf"/>
    </g>
    <g id="Grupo_116167" data-name="Grupo 116167" transform="translate(367.275 860.994)">
      <line id="Línea_556-9" data-name="Línea 556" x1="41.665" transform="translate(4.223 7.788)" fill="none" stroke="#3e4bbf" stroke-miterlimit="10" stroke-width="2"/>
      <path id="Trazado_158597-5" data-name="Trazado 158597" d="M187.129,305.508V288.59l-8.459,8.459Z" transform="translate(-178.67 -288.59)" fill="#3e4bbf"/>
    </g>
    <path id="Trazado_172582" data-name="Trazado 172582" d="M-11,0V126.679" transform="translate(424.163 743.705)" fill="none" stroke="#3e4bbf" stroke-width="2"/>
    <line id="Línea_585" data-name="Línea 585" x1="81.963" transform="translate(406.905 810.134)" fill="none" stroke="#3e4bbf" stroke-width="2"/>
    <g id="Grupo_114568" data-name="Grupo 114568" transform="translate(569.203 1156.175)">
      <line id="Línea_558" data-name="Línea 558" x1="29.512" transform="translate(2.877 5.306)" fill="none" stroke="#3e4bbf" stroke-miterlimit="10" stroke-width="2"/>
      <path id="Trazado_158597-6" data-name="Trazado 158597" d="M184.433,393.766V382.24L178.67,388Z" transform="translate(-178.67 -382.24)" fill="#3e4bbf"/>
    </g>
    <g id="Grupo_152274" data-name="Grupo 152274" transform="translate(879.078 1178.427)">
      <line id="Línea_558-2" data-name="Línea 558" x2="29.512" transform="translate(0 5.306)" fill="none" stroke="#3e4bbf" stroke-miterlimit="10" stroke-width="2"/>
      <path id="Trazado_158597-7" data-name="Trazado 158597" d="M178.67,393.767V382.24L184.433,388Z" transform="translate(-152.044 -382.24)" fill="#3e4bbf"/>
    </g>
    <g id="Grupo_116149" data-name="Grupo 116149" transform="translate(568.273 1022.352)">
      <line id="Línea_556-10" data-name="Línea 556" x1="29.245" transform="translate(2.877 5.306)" fill="none" stroke="#3e4bbf" stroke-miterlimit="10" stroke-width="2"/>
      <path id="Trazado_158597-8" data-name="Trazado 158597" d="M184.433,300.116V288.59l-5.763,5.763Z" transform="translate(-178.67 -288.59)" fill="#3e4bbf"/>
    </g>
    <g id="Grupo_152275" data-name="Grupo 152275" transform="translate(879.018 1044.604)">
      <line id="Línea_556-11" data-name="Línea 556" x2="33.512" transform="translate(0 5.306)" fill="none" stroke="#3e4bbf" stroke-miterlimit="10" stroke-width="2"/>
      <path id="Trazado_158597-9" data-name="Trazado 158597" d="M178.67,300.116V288.59l5.763,5.763Z" transform="translate(-148.044 -288.59)" fill="#3e4bbf"/>
    </g>
    <path id="Trazado_172576" data-name="Trazado 172576" d="M-11,0V315.451" transform="translate(611.396 846.891)" fill="none" stroke="#3e4bbf" stroke-width="2"/>
    <path id="Trazado_205438" data-name="Trazado 205438" d="M-11,0V315.451" transform="translate(891.193 869.143)" fill="none" stroke="#3e4bbf" stroke-width="2"/>
    <g id="Rectángulo_44845" data-name="Rectángulo 44845" transform="translate(473.655 754.946)" fill="#bae887" stroke="#77b43a" stroke-width="1">
      <rect width="183.561" height="104.6" rx="12" stroke="none"/>
      <rect x="0.5" y="0.5" width="182.561" height="103.6" rx="11.5" fill="none"/>
    </g>
    <text id="Salario" transform="translate(497.759 790.666)" fill="#12263f" font-size="20" font-family="Roboto-Bold, Roboto" font-weight="700"><tspan x="35.798" y="21">Salario</tspan></text>
    <g id="Grupo_152266" data-name="Grupo 152266" transform="translate(817.542 440.42) rotate(90)">
      <line id="Línea_556-12" data-name="Línea 556" x2="419.7" transform="translate(0 0)" fill="none" stroke="#3e4bbf" stroke-miterlimit="10" stroke-width="2"/>
    </g>
    <g id="Rectángulo_44846" data-name="Rectángulo 44846" transform="translate(726.169 851.763)" fill="#bae887" stroke="#77b43a" stroke-width="1">
      <rect width="183.561" height="104.6" rx="12" stroke="none"/>
      <rect x="0.5" y="0.5" width="182.561" height="103.6" rx="11.5" fill="none"/>
    </g>
    <text id="Contratos_de_trabajo" data-name="Contratos de trabajo" transform="translate(750.024 877.912)" fill="#12263f" font-size="20" font-family="Roboto-Bold, Roboto" font-weight="700"><tspan x="9.675" y="21">Contratos de </tspan><tspan x="35.789" y="41">trabajo</tspan></text>
    <rect id="Rectángulo_42717" data-name="Rectángulo 42717" width="191.472" height="127.095" rx="12" transform="translate(722.196 605.814)" fill="#3d46c2"/>
    <text id="Nómina_y_prestaciones_sociales" data-name="Nómina y prestaciones sociales" transform="translate(744.058 625.748)" fill="#fff" font-size="24" font-family="Roboto-Black, Roboto" font-weight="800"><tspan x="-51.141" y="25">Nómina y </tspan><tspan x="-70.189" y="55">prestaciones </tspan><tspan x="-44.766" y="85">sociales</tspan></text>
    <g id="Rectángulo_44841" data-name="Rectángulo 44841" transform="translate(726.169 312.756)" fill="#bae887" stroke="#77b43a" stroke-width="1">
      <rect width="183.561" height="168.313" rx="12" stroke="none"/>
      <rect x="0.5" y="0.5" width="182.561" height="167.313" rx="11.5" fill="none"/>
    </g>
    <text id="Documento_para_diligenciar_los_pagos_realizados_a_los_empleados_por_la_contraprestación_laboral." data-name="Documento para diligenciar los pagos realizados a los empleados, por la contraprestación laboral." transform="translate(730.142 325.324)" fill="#12263f" font-size="16" font-family="Roboto-Bold, Roboto" font-weight="700"><tspan x="28.724" y="17">Documento para </tspan><tspan x="13.329" y="41">diligenciar los pagos </tspan><tspan x="31.501" y="65">realizados a los </tspan><tspan x="23.884" y="89">empleados, por la </tspan><tspan x="26.692" y="113">contraprestación </tspan><tspan x="60.837" y="137">laboral.</tspan></text>
  </g>
</svg>
