<svg xmlns="http://www.w3.org/2000/svg" xmlns:xlink="http://www.w3.org/1999/xlink" width="355.867" height="355.869" viewBox="0 0 355.867 355.869">
  <defs>
    <linearGradient id="linear-gradient" x1="1.059" y1="0.884" x2="0.127" y2="-0.024" gradientUnits="objectBoundingBox">
      <stop offset="0" stop-color="#f85316"/>
      <stop offset="0.077" stop-color="#f85519"/>
      <stop offset="1" stop-color="#ff713d"/>
    </linearGradient>
    <linearGradient id="linear-gradient-2" x1="-0.09" y1="0.097" x2="0.867" y2="0.992" gradientUnits="objectBoundingBox">
      <stop offset="0" stop-color="#3d46c2"/>
      <stop offset="1" stop-color="#4752e3"/>
    </linearGradient>
  </defs>
  <g id="Grupo_152790" data-name="Grupo 152790" transform="translate(14483.934 12832.668)">
    <g id="Grupo_152789" data-name="Grupo 152789" transform="translate(-2055.647 -1041.012)">
      <g id="Grupo_112572" data-name="Grupo 112572" transform="translate(-12428.286 -11791.656)">
        <g id="Grupo_80127" data-name="Grupo 80127" transform="translate(7.643 7.644)">
          <path id="Trazado_113538" data-name="Trazado 113538" d="M3836.363-1094.223a169.226,169.226,0,0,1-66.284-13.382,169.708,169.708,0,0,1-54.129-36.494,169.72,169.72,0,0,1-36.494-54.129,169.232,169.232,0,0,1-13.384-66.285,169.237,169.237,0,0,1,13.384-66.286,169.73,169.73,0,0,1,36.494-54.128,169.722,169.722,0,0,1,54.129-36.494,169.226,169.226,0,0,1,66.284-13.382,169.224,169.224,0,0,1,66.284,13.382,169.728,169.728,0,0,1,54.13,36.494,169.746,169.746,0,0,1,36.494,54.128,169.223,169.223,0,0,1,13.383,66.286,169.218,169.218,0,0,1-13.383,66.285,169.736,169.736,0,0,1-36.494,54.129,169.714,169.714,0,0,1-54.13,36.494A169.224,169.224,0,0,1,3836.363-1094.223Zm0-339.234c-93.156,0-168.944,75.788-168.944,168.944s75.788,168.944,168.944,168.944,168.945-75.788,168.945-168.944S3929.52-1433.456,3836.363-1433.456Z" transform="translate(-3666.073 1434.803)" fill="#fff"/>
        </g>
        <path id="Trazado_113539" data-name="Trazado 113539" d="M3817.589-1431.492h0a10.1,10.1,0,0,0,9.484,10.089,157.423,157.423,0,0,1,102.25,46,157.419,157.419,0,0,1,46,102.251,10.1,10.1,0,0,0,10.089,9.484h0a10.119,10.119,0,0,0,10.093-10.736,177.579,177.579,0,0,0-51.883-115.3,177.572,177.572,0,0,0-115.3-51.882A10.118,10.118,0,0,0,3817.589-1431.492Z" transform="translate(-3639.655 1441.604)" fill="url(#linear-gradient)"/>
        <path id="Trazado_113540" data-name="Trazado 113540" d="M3669.383-1283.287a10.119,10.119,0,0,0-10.093,10.738,177.563,177.563,0,0,0,51.882,115.294,177.567,177.567,0,0,0,115.3,51.884,10.118,10.118,0,0,0,10.737-10.094h0a10.1,10.1,0,0,0-9.483-10.088,157.418,157.418,0,0,1-102.252-46,157.415,157.415,0,0,1-46-102.25,10.1,10.1,0,0,0-10.09-9.484Z" transform="translate(-3659.272 1461.22)" fill="url(#linear-gradient-2)"/>
      </g>
    </g>
  </g>
</svg>
