<svg xmlns="http://www.w3.org/2000/svg" width="368.609" height="425.398" viewBox="0 0 368.609 425.398">
  <g id="Grupo_152726" data-name="Grupo 152726" transform="translate(-1020.195 -3431.688)">
    <g id="Grupo_152725" data-name="Grupo 152725">
      <rect id="Rect치ngulo_43932" data-name="Rect치ngulo 43932" width="368.609" height="425.398" rx="24" transform="translate(1020.195 3431.688)" fill="#cfe5b6"/>
      <g id="Grupo_152462" data-name="Grupo 152462" transform="translate(0.195 -2)">
        <g id="Grupo_149981" data-name="Grupo 149981" transform="translate(1114 3457)">
          <circle id="Elipse_6045" data-name="Elipse 6045" cx="90.401" cy="90.401" r="90.401" transform="translate(0 0)" fill="#fff"/>
        </g>
        <g id="Grupo_152240" data-name="Grupo 152240" transform="translate(-1 -91)">
          <g id="Elipse_13361" data-name="Elipse 13361" transform="translate(1137 3570)" fill="#3d46c2" stroke="#060606" stroke-width="1">
            <circle cx="68" cy="68" r="68" stroke="none"/>
            <circle cx="68" cy="68" r="67.5" fill="none"/>
          </g>
          <g id="Grupo_152239" data-name="Grupo 152239" transform="translate(671.29 3737.983)">
            <g id="Grupo_152232" data-name="Grupo 152232" transform="translate(500.546 -137.002)">
              <path id="Trazado_205339" data-name="Trazado 205339" d="M614.526-61.411c-18.619,14.1-44.093,4.6-52.315-11.791-8-14.583-4.782-35.959,11.1-46.306-2.23,3.718-4.8,8.478-5.427,11.433-.1.445-.187.881-.253,1.3-4.065,17.135,8.217,43.283,32.314,46.576a34,34,0,0,0,3.8.312A42.311,42.311,0,0,0,614.526-61.411Z" transform="translate(-543.899 119.509)" fill="#fff"/>
              <path id="Trazado_205340" data-name="Trazado 205340" d="M600.85-61.411a38.59,38.59,0,0,1-12.416,12.06A38.276,38.276,0,0,1,551.9-47.67c-.133-.066-.266-.133-.4-.2-.445-.222-.881-.45-1.312-.681-.143-.076-.281-.155-.419-.231h0c-.543-.307-1.077-.623-1.6-.952-.115-.076-.231-.147-.342-.222-.094-.058-.182-.12-.276-.178-.129-.084-.258-.169-.383-.253-.382-.254-.756-.516-1.121-.783a.824.824,0,0,0-.1-.072c-.12-.085-.236-.174-.347-.258s-.231-.169-.342-.258c-.538-.414-1.063-.832-1.562-1.267-.107-.085-.213-.174-.32-.276-7.353-6.283-12.076-16.1-12.825-23.955,0-.045-.009-.084-.013-.124a38.33,38.33,0,0,1,12.838-33.733.391.391,0,0,1,.045-.041,37.278,37.278,0,0,1,8.514-5.618,39.687,39.687,0,0,1,6.891-2.531c.272-.076.543-.142.814-.209C538.832-104.875,539.456-73.166,561.378-60c.071.049.142.089.218.133.347.214.707.423,1.077.632C576.4-52.057,590.606-53.992,600.85-61.411Z" transform="translate(-530.223 119.509)" fill="#e6e6e6"/>
            </g>
            <g id="Grupo_152233" data-name="Grupo 152233" transform="translate(522.946 -87.562)">
              <circle id="Elipse_13362" data-name="Elipse 13362" cx="4.532" cy="4.532" r="4.532" transform="translate(0 0)" fill="#e6e6e6"/>
              <path id="Trazado_205341" data-name="Trazado 205341" d="M579.989-22.1a4.516,4.516,0,0,0-3.4,1.538,4.508,4.508,0,0,1,2.993-1.135,4.532,4.532,0,0,1,4.532,4.532,4.509,4.509,0,0,1-1.135,2.993,4.517,4.517,0,0,0,1.539-3.4A4.532,4.532,0,0,0,579.989-22.1Z" transform="translate(-575.456 22.102)" fill="#e6e6e6" style="mix-blend-mode: multiply;isolation: isolate"/>
            </g>
            <g id="Grupo_152234" data-name="Grupo 152234" transform="translate(513.33 -106.171)">
              <circle id="Elipse_13363" data-name="Elipse 13363" cx="3.501" cy="3.501" r="3.501" transform="translate(0 0)" fill="#e6e6e6"/>
              <path id="Trazado_205342" data-name="Trazado 205342" d="M559.762-58.764a3.489,3.489,0,0,0-2.624,1.189,3.484,3.484,0,0,1,2.312-.877,3.5,3.5,0,0,1,3.5,3.5,3.485,3.485,0,0,1-.877,2.312,3.49,3.49,0,0,0,1.189-2.624A3.5,3.5,0,0,0,559.762-58.764Z" transform="translate(-556.261 58.764)" fill="#e6e6e6" style="mix-blend-mode: multiply;isolation: isolate"/>
            </g>
            <g id="Grupo_152235" data-name="Grupo 152235" transform="translate(519.972 -121.169)">
              <path id="Trazado_205343" data-name="Trazado 205343" d="M571.733-86.7a1.618,1.618,0,0,1-1.619,1.619A1.619,1.619,0,0,1,568.5-86.7a1.619,1.619,0,0,1,1.619-1.619A1.618,1.618,0,0,1,571.733-86.7Z" transform="translate(-568.496 88.315)" fill="#e6e6e6"/>
              <path id="Trazado_205344" data-name="Trazado 205344" d="M570.508-88.315a1.613,1.613,0,0,0-1.213.55,1.61,1.61,0,0,1,1.069-.406,1.618,1.618,0,0,1,1.619,1.619,1.61,1.61,0,0,1-.406,1.069,1.612,1.612,0,0,0,.55-1.213A1.619,1.619,0,0,0,570.508-88.315Z" transform="translate(-568.89 88.315)" fill="#e6e6e6" style="mix-blend-mode: multiply;isolation: isolate"/>
            </g>
            <g id="Grupo_152236" data-name="Grupo 152236" transform="translate(550.007 -75.417)">
              <path id="Trazado_205345" data-name="Trazado 205345" d="M630.907,3.446a1.619,1.619,0,1,1-1.619-1.619A1.619,1.619,0,0,1,630.907,3.446Z" transform="translate(-627.67 -1.827)" fill="#e6e6e6"/>
              <path id="Trazado_205346" data-name="Trazado 205346" d="M629.682,1.827a1.613,1.613,0,0,0-1.213.549,1.617,1.617,0,0,1,2.282,2.283,1.617,1.617,0,0,0-1.069-2.832Z" transform="translate(-628.063 -1.827)" fill="#e6e6e6" style="mix-blend-mode: multiply;isolation: isolate"/>
            </g>
            <g id="Grupo_152237" data-name="Grupo 152237" transform="translate(524.301 -95.463)">
              <path id="Trazado_205347" data-name="Trazado 205347" d="M580.261-36.05a1.619,1.619,0,0,1-1.619,1.619,1.619,1.619,0,0,1-1.619-1.619,1.619,1.619,0,0,1,1.619-1.619A1.619,1.619,0,0,1,580.261-36.05Z" transform="translate(-577.024 37.669)" fill="#e6e6e6"/>
              <path id="Trazado_205348" data-name="Trazado 205348" d="M579.036-37.669a1.614,1.614,0,0,0-1.213.549,1.612,1.612,0,0,1,1.069-.405,1.618,1.618,0,0,1,1.619,1.619,1.609,1.609,0,0,1-.405,1.069,1.612,1.612,0,0,0,.55-1.213A1.619,1.619,0,0,0,579.036-37.669Z" transform="translate(-577.417 37.669)" fill="#e6e6e6" style="mix-blend-mode: multiply;isolation: isolate"/>
            </g>
            <g id="Grupo_152238" data-name="Grupo 152238" transform="translate(469.958 -155.033)">
              <path id="Trazado_205349" data-name="Trazado 205349" d="M630.343-93.415c-1.239.269-1.457.487-1.726,1.726-.269-1.239-.487-1.457-1.727-1.726,1.239-.269,1.458-.487,1.727-1.727C628.886-93.9,629.1-93.684,630.343-93.415Z" transform="translate(-547.238 125.54)" fill="#fff"/>
              <path id="Trazado_205352" data-name="Trazado 205352" d="M636.9-90.137c-3.592.78-4.224,1.411-5,5-.78-3.592-1.412-4.224-5-5,3.592-.78,4.225-1.411,5-5C632.674-91.548,633.305-90.917,636.9-90.137Z" transform="translate(-541.592 148.54)" fill="#fff"/>
              <path id="Trazado_205353" data-name="Trazado 205353" d="M636.9-90.137c-3.592.78-4.224,1.411-5,5-.78-3.592-1.412-4.224-5-5,3.592-.78,4.225-1.411,5-5C632.674-91.548,633.305-90.917,636.9-90.137Z" transform="translate(-541.592 192.458)" fill="#fff"/>
              <path id="Trazado_205354" data-name="Trazado 205354" d="M636.9-90.137c-3.592.78-4.224,1.411-5,5-.78-3.592-1.412-4.224-5-5,3.592-.78,4.225-1.411,5-5C632.674-91.548,633.305-90.917,636.9-90.137Z" transform="translate(-510.989 143.537)" fill="#fff"/>
              <circle id="Elipse_13364" data-name="Elipse 13364" cx="2.869" cy="2.869" r="2.869" transform="translate(110.162 29.639)" fill="#fff"/>
              <circle id="Elipse_13365" data-name="Elipse 13365" cx="1.727" cy="1.727" r="1.727" transform="translate(22.678 85.455)" fill="#fff"/>
              <path id="Trazado_205350" data-name="Trazado 205350" d="M498.087-98.077c-1.892.411-2.225.744-2.636,2.636-.411-1.892-.743-2.225-2.635-2.636,1.892-.41,2.225-.743,2.635-2.635C495.862-98.82,496.195-98.487,498.087-98.077Z" transform="translate(-481.214 128.283)" fill="#fff"/>
              <circle id="Elipse_13366" data-name="Elipse 13366" cx="1.727" cy="1.727" r="1.727" transform="translate(103.085 89.871)" fill="#fff"/>
              <path id="Trazado_205351" data-name="Trazado 205351" d="M543.394-153.985c-.752.163-.885.3-1.048,1.048-.163-.752-.3-.885-1.048-1.048.752-.163.885-.3,1.048-1.048C542.509-154.281,542.642-154.148,543.394-153.985Z" transform="translate(-505.089 155.033)" fill="#fff"/>
              <circle id="Elipse_13367" data-name="Elipse 13367" cx="2.535" cy="2.535" r="2.535" transform="translate(11.802 60.871)" fill="#fff"/>
              <circle id="Elipse_13368" data-name="Elipse 13368" cx="3.508" cy="3.508" r="3.508" transform="translate(82.722 13.824) rotate(-76.718)" fill="#fff"/>
              <circle id="Elipse_13369" data-name="Elipse 13369" cx="3.466" cy="3.466" r="3.466" transform="translate(50.359 103.858)" fill="#fff"/>
            </g>
          </g>
        </g>
      </g>
      <g id="Rect치ngulo_44925" data-name="Rect치ngulo 44925" transform="translate(1058.195 3747)" fill="#fff" stroke="#9dc572" stroke-width="4">
        <rect width="293" height="87" rx="17" stroke="none"/>
        <rect x="2" y="2" width="289" height="83" rx="15" fill="none"/>
      </g>
      <text id="Valor_de_la_extra_nocturna_Valor_hora_diaria_x_1.75_x_de_horas." data-name="Valor de la extra nocturna = Valor hora diaria x 1.75 x # de horas." transform="translate(1084.195 3768)" fill="#12263f" font-size="16" font-family="Roboto-Bold, Roboto" font-weight="700"><tspan x="-119.809" y="17">Valor de la extra nocturna = Valor </tspan><tspan x="-110.641" y="44">hora diaria x 1.75 x # de horas.</tspan></text>
      <text id="El_valor_extra_nocturno_se_remunera_con_un_recargo_del_75_sobre_el_valor_del_trabajo_ordinario_diurno." data-name="El valor extra nocturno se remunera con un recargo del 75 % sobre el valor del trabajo ordinario diurno." transform="translate(1043.195 3658.556)" fill="#12263f" font-size="16" font-family="Roboto-Regular, Roboto"><tspan x="-151.594" y="17">El valor extra nocturno se remunera con un </tspan><tspan x="-147.82" y="44">recargo del 75 % sobre el valor del trabajo </tspan><tspan x="-58.332" y="71">ordinario diurno.</tspan></text>
    </g>
  </g>
</svg>
