<svg xmlns="http://www.w3.org/2000/svg" width="283.15" height="230.543" viewBox="0 0 283.15 230.543">
  <g id="Grupo_150572" data-name="Grupo 150572" transform="translate(-355.142 -402.327)">
    <ellipse id="Elipse_12753" data-name="Elipse 12753" cx="74.123" cy="8.225" rx="74.123" ry="8.225" transform="translate(431.961 616.421)" fill="#d7ddf0"/>
    <path id="Trazado_202669" data-name="Trazado 202669" d="M600.692,404.021C535.05,421.583,528,523.653,589.123,571.546c18.426,14.437,42.7,37.005,68.65,44.258,61.787,17.27,95.762-2.408,124.605-29.753,26.738-25.348,16.821-91.187-58.7-95.59C668.479,487.244,659.494,388.289,600.692,404.021Z" transform="translate(-157.547)" fill="#e2e2e2"/>
    <path id="Trazado_202670" data-name="Trazado 202670" d="M987.338,899.331H887.29a9.759,9.759,0,0,1-9.479-10.017v-145.8A9.759,9.759,0,0,1,887.29,733.5H987.338a9.759,9.759,0,0,1,9.478,10.017v145.8A9.759,9.759,0,0,1,987.338,899.331Z" transform="translate(-430.578 -273.422)" fill="#3d46c2"/>
    <g id="Grupo_150555" data-name="Grupo 150555" transform="translate(457.108 469.338)">
      <g id="Grupo_150554" data-name="Grupo 150554" transform="translate(0 0)">
        <rect id="Rectángulo_44176" data-name="Rectángulo 44176" width="100.015" height="137.732" fill="#d1d4de"/>
      </g>
    </g>
    <g id="Grupo_150557" data-name="Grupo 150557" transform="translate(451.157 473.618)">
      <g id="Grupo_150556" data-name="Grupo 150556" transform="translate(0)">
        <rect id="Rectángulo_44177" data-name="Rectángulo 44177" width="100.015" height="142.355" fill="#fafbff"/>
      </g>
    </g>
    <path id="Trazado_202671" data-name="Trazado 202671" d="M1087.138,747.96h-5.217a5.164,5.164,0,0,0-5.148-5.148H1057.14a5.164,5.164,0,0,0-5.148,5.148h-5.217a5.164,5.164,0,0,0-5.148,5.148h0a5.163,5.163,0,0,0,5.148,5.148h40.364a5.164,5.164,0,0,0,5.148-5.148h0A5.164,5.164,0,0,0,1087.138,747.96Z" transform="translate(-565.827 -281.112)" fill="#252d70"/>
    <circle id="Elipse_12754" data-name="Elipse 12754" cx="24.597" cy="24.597" r="24.597" transform="translate(456.019 485.509)" fill="#dfe2ed"/>
    <g id="Grupo_150558" data-name="Grupo 150558" transform="translate(459.668 539.382)">
      <rect id="Rectángulo_44178" data-name="Rectángulo 44178" width="86.221" height="4.671" rx="2.336" transform="translate(0 63.433)" fill="#dfe2ed"/>
      <rect id="Rectángulo_44179" data-name="Rectángulo 44179" width="85.34" height="57.069" transform="translate(0.083 0)" fill="#dfe2ed"/>
      <path id="Trazado_202672" data-name="Trazado 202672" d="M996.122,1244.639H990.2a2.626,2.626,0,0,1-2.626-2.626h0a2.626,2.626,0,0,1,2.626-2.625h5.918a2.625,2.625,0,0,1,2.626,2.625h0A2.626,2.626,0,0,1,996.122,1244.639Z" transform="translate(-980.872 -1230.478)" fill="#eff1f7"/>
      <path id="Trazado_202673" data-name="Trazado 202673" d="M1155.161,1244.639h-45.687a2.626,2.626,0,0,1-2.626-2.626h0a2.625,2.625,0,0,1,2.626-2.625h45.687a2.626,2.626,0,0,1,2.626,2.625h0A2.626,2.626,0,0,1,1155.161,1244.639Z" transform="translate(-1079.344 -1230.478)" fill="#eff1f7"/>
      <path id="Trazado_202674" data-name="Trazado 202674" d="M996.122,1333.756H990.2a2.626,2.626,0,0,1-2.626-2.626h0a2.626,2.626,0,0,1,2.626-2.626h5.918a2.626,2.626,0,0,1,2.626,2.626h0A2.626,2.626,0,0,1,996.122,1333.756Z" transform="translate(-980.872 -1304.055)" fill="#eff1f7"/>
      <path id="Trazado_202675" data-name="Trazado 202675" d="M1155.161,1333.756h-45.687a2.626,2.626,0,0,1-2.626-2.626h0a2.625,2.625,0,0,1,2.626-2.626h45.687a2.626,2.626,0,0,1,2.626,2.626h0A2.626,2.626,0,0,1,1155.161,1333.756Z" transform="translate(-1079.344 -1304.055)" fill="#eff1f7"/>
      <rect id="Rectángulo_44180" data-name="Rectángulo 44180" width="11.169" height="5.251" rx="2.626" transform="translate(6.706 41.367)" fill="#eff1f7"/>
      <rect id="Rectángulo_44181" data-name="Rectángulo 44181" width="29.814" height="5.251" rx="2.626" transform="translate(27.504 41.367)" fill="#eff1f7"/>
    </g>
    <rect id="Rectángulo_44182" data-name="Rectángulo 44182" width="33.259" height="5.251" rx="2.626" transform="translate(509.968 500.48)" fill="#dfe2ed"/>
    <rect id="Rectángulo_44183" data-name="Rectángulo 44183" width="33.259" height="5.251" rx="2.626" transform="translate(509.968 515.944)" fill="#dfe2ed"/>
    <g id="Grupo_150562" data-name="Grupo 150562" transform="translate(453.482 542.347)">
      <g id="Grupo_150561" data-name="Grupo 150561">
        <g id="Grupo_150559" data-name="Grupo 150559" transform="translate(10.877 10.356)">
          <path id="Trazado_202676" data-name="Trazado 202676" d="M976.722,1354.453l2.758-.668,5.626,9.4-2.439.59-2.558-4.83c-.5-.952-1.1-2.068-1.6-3.081l-.062.015c.011,1.133.016,2.392,0,3.469l-.076,5.466-2.354.57Zm.371,6.214,4.864-1.176.433,1.79-4.864,1.177Z" transform="translate(-976.017 -1338.247)" fill="#f85316"/>
          <path id="Trazado_202677" data-name="Trazado 202677" d="M1021.455,1342.454l3.606-.874c2.2-.533,4.175-.166,4.773,2.307.579,2.392-.992,3.889-3.147,4.41l-1.306.316.835,3.449-2.3.557Zm4.657,4.052c1.26-.306,1.723-1.017,1.467-2.073s-1-1.288-2.209-.994l-1.172.283.742,3.066Z" transform="translate(-1013.532 -1327.995)" fill="#f85316"/>
          <path id="Trazado_202678" data-name="Trazado 202678" d="M1075.106,1329.471l3.605-.872c2.206-.533,4.175-.167,4.773,2.305.579,2.392-.991,3.889-3.147,4.411l-1.3.316.834,3.449-2.3.556Zm4.656,4.052c1.26-.3,1.723-1.017,1.467-2.072s-1-1.287-2.209-.994l-1.172.284.742,3.067Z" transform="translate(-1057.827 -1317.277)" fill="#f85316"/>
          <path id="Trazado_202679" data-name="Trazado 202679" d="M1128.293,1316.582l3.614-.874c2.154-.522,4.107-.2,4.692,2.216.565,2.336-.963,3.769-3.116,4.29l-1.309.317.885,3.658-2.305.559Zm4.56,3.854c1.208-.292,1.731-.97,1.49-1.965s-.974-1.184-2.181-.892l-1.122.272.692,2.857Zm1.3-.583,4.631,4.953-2.573.622-3.294-3.716Z" transform="translate(-1101.739 -1306.633)" fill="#f85316"/>
          <path id="Trazado_202680" data-name="Trazado 202680" d="M1184.9,1308.285c-.822-3.4.4-5.627,2.824-6.213s4.531.838,5.353,4.235c.842,3.478-.381,5.719-2.8,6.3S1185.746,1311.763,1184.9,1308.285Zm5.818-1.408c-.511-2.112-1.452-3.073-2.513-2.817s-1.457,1.542-.946,3.655c.531,2.193,1.475,3.168,2.536,2.911S1191.254,1309.07,1190.723,1306.877Z" transform="translate(-1148.269 -1295.446)" fill="#f85316"/>
          <path id="Trazado_202681" data-name="Trazado 202681" d="M1230.683,1286.747l2.439-.59,2.368,4.438c.571,1.037,1.025,2.016,1.6,3.06l.063-.015c.037-1.193.008-2.274.026-3.455l.054-5.024,2.354-.57-.6,10.908-2.767.669Z" transform="translate(-1186.275 -1281.12)" fill="#f85316"/>
          <path id="Trazado_202682" data-name="Trazado 202682" d="M1291.293,1274.56l6.739-1.631.467,1.929-4.438,1.075.494,2.038,3.77-.913.467,1.929-3.771.913.567,2.339,4.593-1.112.467,1.929-6.894,1.668Z" transform="translate(-1236.316 -1271.49)" fill="#f85316"/>
          <path id="Trazado_202683" data-name="Trazado 202683" d="M1342.98,1265.567l2.808-.679c2.949-.714,5.261.36,6.106,3.853s-.7,5.6-3.516,6.281l-2.938.711Zm4.693,7.664c1.581-.382,2.452-1.488,1.863-3.92s-1.845-2.923-3.427-2.54l-.38.092,1.563,6.459Z" transform="translate(-1278.99 -1264.679)" fill="#f85316"/>
        </g>
        <g id="Grupo_150560" data-name="Grupo 150560">
          <path id="Trazado_202684" data-name="Trazado 202684" d="M922.362,1251.935a4.233,4.233,0,0,1-4.106-3.231l-4.495-18.571a4.231,4.231,0,0,1,3.113-5.1l81.063-19.62a4.227,4.227,0,0,1,5.1,3.113l4.495,18.57a4.231,4.231,0,0,1-3.113,5.1h0l-81.063,19.62A4.209,4.209,0,0,1,922.362,1251.935Zm76.568-45.036a2.609,2.609,0,0,0-.616.074l-81.063,19.62a2.623,2.623,0,0,0-1.93,3.162l4.495,18.571a2.618,2.618,0,0,0,3.162,1.929l81.063-19.62a2.623,2.623,0,0,0,1.93-3.162l-4.495-18.57A2.625,2.625,0,0,0,998.931,1206.9Zm5.3,24.517h0Z" transform="translate(-913.643 -1205.293)" fill="#f85316"/>
        </g>
      </g>
    </g>
    <g id="Grupo_150564" data-name="Grupo 150564" transform="translate(462.603 491.736)">
      <circle id="Elipse_12755" data-name="Elipse 12755" cx="17.969" cy="17.969" r="17.969" transform="translate(0 0.298) rotate(-0.475)" fill="none" stroke="#75b62f" stroke-linecap="round" stroke-linejoin="round" stroke-width="4.613"/>
      <path id="Trazado_202719" data-name="Trazado 202719" d="M12.088,0A12.088,12.088,0,1,1,0,12.088,12.088,12.088,0,0,1,12.088,0Z" transform="translate(5.192 6.877) rotate(-3.925)" fill="#dce736"/>
      <g id="Grupo_150563" data-name="Grupo 150563" transform="translate(13.809 8.817)">
        <path id="Trazado_202685" data-name="Trazado 202685" d="M1048.487,980.811a6.085,6.085,0,0,1-3.347-1.664l.8-1.114a4.787,4.787,0,0,0,3.055,1.453,1.955,1.955,0,0,0,2.3-1.982c.117-3.243-5.493-2.744-5.352-6.647a3.241,3.241,0,0,1,3.022-3.218l.073-2.022,1.2.043-.071,1.982a4.416,4.416,0,0,1,2.788,1.624l-.916.949a3.191,3.191,0,0,0-2.4-1.229,1.842,1.842,0,0,0-2.071,1.85c-.1,2.9,5.51,2.3,5.354,6.607a3.361,3.361,0,0,1-3.229,3.371l-.073,2.022-1.2-.043Z" transform="translate(-1045.14 -965.618)" fill="#fff"/>
      </g>
    </g>
    <g id="Grupo_150565" data-name="Grupo 150565" transform="translate(520.431 419.759)">
      <path id="Trazado_202686" data-name="Trazado 202686" d="M1297.577,507.837a5.424,5.424,0,1,0,3.178-5.058A5.407,5.407,0,0,0,1297.577,507.837Zm8.819-1.7a3.649,3.649,0,1,1-4.832-1.811A3.649,3.649,0,0,1,1306.4,506.138Z" transform="translate(-1297.576 -502.291)" fill="#dce736"/>
      <path id="Trazado_202687" data-name="Trazado 202687" d="M1372.519,575.051a5.424,5.424,0,1,0,3.178-5.058A5.407,5.407,0,0,0,1372.519,575.051Zm8.819-1.7a3.649,3.649,0,1,1-4.832-1.811A3.649,3.649,0,0,1,1381.338,573.352Z" transform="translate(-1359.449 -557.785)" fill="#dce736"/>
      <path id="Trazado_202688" data-name="Trazado 202688" d="M1329.418,513.522l-14.913,17.849a1.178,1.178,0,0,1-1.655.148h0a1.179,1.179,0,0,1-.148-1.655l14.913-17.849a1.178,1.178,0,0,1,1.655-.148h0A1.179,1.179,0,0,1,1329.418,513.522Z" transform="translate(-1309.839 -509.972)" fill="#dce736"/>
    </g>
    <circle id="Elipse_12757" data-name="Elipse 12757" cx="3.023" cy="3.023" r="3.023" transform="translate(591.749 480.938) rotate(-80.616)" fill="none" stroke="#f85316" stroke-linecap="round" stroke-miterlimit="10" stroke-width="2"/>
    <g id="Grupo_150569" data-name="Grupo 150569" transform="translate(570.796 530.98)">
      <ellipse id="Elipse_12758" data-name="Elipse 12758" cx="17.125" cy="2.382" rx="17.125" ry="2.382" transform="translate(8.348 92.728)" fill="#d7ddf0"/>
      <g id="Grupo_150568" data-name="Grupo 150568" transform="translate(0 0)">
        <path id="Trazado_202689" data-name="Trazado 202689" d="M1725.52,1207.323s19.357-6.388,16.5-33.036C1742.024,1174.288,1717.912,1187.439,1725.52,1207.323Z" transform="translate(-1700.035 -1168.327)" fill="#75b62f"/>
        <g id="Grupo_150567" data-name="Grupo 150567" transform="translate(24.456 20.404)">
          <g id="Grupo_150566" data-name="Grupo 150566">
            <path id="Trazado_202690" data-name="Trazado 202690" d="M1727.458,1317.117c-.448,0-.812-.364-.812,2.978v-58.379c0-4.239.364-4.6.812-4.6a.813.813,0,0,1,.812.813V1316.3A.813.813,0,0,1,1727.458,1317.117Z" transform="translate(-1726.646 -1257.113)" fill="#75b62f"/>
          </g>
        </g>
        <path id="Trazado_202691" data-name="Trazado 202691" d="M1611.442,1341.787s.887-20.364-25.042-27.14C1586.4,1314.647,1590.153,1341.854,1611.442,1341.787Z" transform="translate(-1586.4 -1284.211)" fill="#75b62f"/>
        <path id="Trazado_202692" data-name="Trazado 202692" d="M1732.16,1287.66s20.183-2.85,22.106-29.581C1754.266,1258.079,1728.2,1266.741,1732.16,1287.66Z" transform="translate(-1706.405 -1237.507)" fill="#dce736"/>
        <path id="Trazado_202693" data-name="Trazado 202693" d="M1664.7,1174.789s8.651-18.457-12.677-34.684C1652.025,1140.1,1645.024,1166.662,1664.7,1174.789Z" transform="translate(-1639.582 -1140.105)" fill="#dce736"/>
      </g>
      <path id="Trazado_202694" data-name="Trazado 202694" d="M1634.8,1499.918l4.091,24.056a5.237,5.237,0,0,0,5.163,4.359H1658.5a5.237,5.237,0,0,0,5.157-4.325l4.262-24.1a3.707,3.707,0,0,0-3.655-4.352l-25.815.031A3.707,3.707,0,0,0,1634.8,1499.918Z" transform="translate(-1626.318 -1433.576)" fill="#f85316"/>
      <path id="Trazado_202695" data-name="Trazado 202695" d="M1710.934,1545.131s10.537-7.678,13.614-27.943h3.916l-6.557,25.934a2.354,2.354,0,0,1-2.22,1.776Z" transform="translate(-1689.218 -1451.433)" fill="#b73d11"/>
    </g>
    <circle id="Elipse_12759" data-name="Elipse 12759" cx="3.023" cy="3.023" r="3.023" transform="translate(442.041 425.242) rotate(-77.279)" fill="none" stroke="#f85316" stroke-linecap="round" stroke-miterlimit="10" stroke-width="2"/>
    <g id="Grupo_150571" data-name="Grupo 150571" transform="translate(375.836 481.85)">
      <g id="Grupo_150570" data-name="Grupo 150570" transform="translate(3.855)">
        <path id="Trazado_202696" data-name="Trazado 202696" d="M507.29,904.438c-2.691.111-4.989-1.468-5.507-4.816l.585-16.536,2.9,1.448,1.409,12.372Z" transform="translate(-499.811 -878.775)" fill="#c95836" fill-rule="evenodd"/>
        <path id="Trazado_202697" data-name="Trazado 202697" d="M495.934,864.121l-.853-2.882a2.544,2.544,0,0,0-1-1.39l-1.92-1.3a1.093,1.093,0,0,0-1.687.788h0l1.26,3.559a3.774,3.774,0,0,0,1.606,1.935l1.257.764Z" transform="translate(-490.474 -858.362)" fill="#c95836"/>
        <path id="Trazado_202698" data-name="Trazado 202698" d="M509.433,952.762c-3.745-1.429-11.744-20.352-11.784-22.168-.045-2.044-.689-13.919-.689-13.919l5.886.3s1.859,10.145,2.474,11.026,9.1,13.214,9.1,13.214Z" transform="translate(-495.83 -906.507)" fill="#dce736" fill-rule="evenodd"/>
      </g>
      <path id="Trazado_202699" data-name="Trazado 202699" d="M731.9,910.852c2.767.673,5.477-.487,6.708-3.851l2.822-17.266-3.31.9L734.1,903.169Z" transform="translate(-685.948 -884.264)" fill="#c95836" fill-rule="evenodd"/>
      <path id="Trazado_202700" data-name="Trazado 202700" d="M767.574,870.81,769.056,868a2.69,2.69,0,0,1,1.324-1.234l2.26-.949a1.156,1.156,0,0,1,1.586,1.166h0l-2.044,3.429a3.99,3.99,0,0,1-2.067,1.674l-1.462.532Z" transform="translate(-715.399 -864.44)" fill="#c95836"/>
      <path id="Trazado_202701" data-name="Trazado 202701" d="M657.841,956.774c4.179-.706,16.4-18.666,16.814-20.541.47-2.11,3.6-14.288,3.6-14.288l-6.165-.911s-4.03,10.133-4.851,10.919-12.178,11.813-12.178,11.813Z" transform="translate(-622.506 -910.105)" fill="#dce736" fill-rule="evenodd"/>
      <path id="Trazado_202702" data-name="Trazado 202702" d="M635.3,987.442s1.676-2.38-1.1-4.327-2.456,3.457-2.367,3.516S635.3,987.442,635.3,987.442Z" transform="translate(-603.28 -961.012)" fill="#572a22" fill-rule="evenodd"/>
      <path id="Trazado_202703" data-name="Trazado 202703" d="M609.32,999.944s.7,2.707,2.781,2.489,1.3-6.185,1.3-6.185Z" transform="translate(-584.741 -972.203)" fill="#572a22" fill-rule="evenodd"/>
      <path id="Trazado_202704" data-name="Trazado 202704" d="M625.356,1011.713s.2,3.009.372,5.5a1.79,1.79,0,0,1-.947,1.659,2.3,2.3,0,0,1-2.093.084l-.629-.294a2.321,2.321,0,0,1-1.415-2.188l.328-6.59,4.384,1.827Z" transform="translate(-594.088 -983.463)" fill="#c95836" fill-rule="evenodd"/>
      <path id="Trazado_202705" data-name="Trazado 202705" d="M639.719,1031.272l-.083,1.713-2-1.347Z" transform="translate(-608.123 -1001.121)" fill="#633c1d" fill-rule="evenodd"/>
      <path id="Trazado_202706" data-name="Trazado 202706" d="M615.282,990.422a1.6,1.6,0,0,1,1.013-2.015l2.893-.947a1.686,1.686,0,0,1,2,1.03,17.3,17.3,0,0,1,1.161,4.571,1.937,1.937,0,0,1-1.126,2.121c-.887.29-3.822.305-4.6-1.215a23.276,23.276,0,0,1-1.342-3.545Z" transform="translate(-589.599 -964.887)" fill="#c95836" fill-rule="evenodd"/>
      <path id="Trazado_202707" data-name="Trazado 202707" d="M605.344,987.414s-.984-3.269.117-4.731c1.48-1.964,3.683-3.259,6.583-1.5,0,0,1.552.64-2.922,1.957-.568.167.7,2.816,0,3.173a11.963,11.963,0,0,1-3.779,1.1Z" transform="translate(-581.124 -959.081)" fill="#572a22" fill-rule="evenodd"/>
      <ellipse id="Elipse_12760" data-name="Elipse 12760" cx="1.079" cy="1.311" rx="1.079" ry="1.311" transform="matrix(0.804, -0.595, 0.595, 0.804, 25.038, 28.097)" fill="#c95836"/>
      <ellipse id="Elipse_12761" data-name="Elipse 12761" cx="26.805" cy="1.997" rx="26.805" ry="1.997" transform="translate(0.227 141.347)" fill="#d7ddf0"/>
      <path id="Trazado_202708" data-name="Trazado 202708" d="M636.333,1344.316s-5.72-24.255-1.864-33.852l-5.4-32.9,15.427,1.057-3.863,65.932Z" transform="translate(-601.049 -1204.461)" fill="#e3633d" fill-rule="evenodd"/>
      <path id="Trazado_202709" data-name="Trazado 202709" d="M670.949,1654.916l2.394,2.217a22.86,22.86,0,0,0,4,1.612h0c.384.681-.221,1.039-.753,1.128l-9.653-.2s-2.265-.462-.661-4.751C668.1,1655.7,670.607,1656.25,670.949,1654.916Z" transform="translate(-631.294 -1516.014)" fill="#4a2a1a" fill-rule="evenodd"/>
      <path id="Trazado_202710" data-name="Trazado 202710" d="M650.051,1308.99l-.609,27.865-2.257,27.935H635.961a38.39,38.39,0,0,0,.372-6.4c-.257-1.541-1.926-16.159.915-22.884l-2.634-27.389Z" transform="translate(-605.624 -1229.691)" fill="#3d46c2" fill-rule="evenodd"/>
      <path id="Trazado_202711" data-name="Trazado 202711" d="M636.795,1335.508l-2.634-27.389,5.352.292,1.929,20.056a43.529,43.529,0,0,1-.432,11.184c-1.191,7.3-.018,17.469.194,18.741a38.4,38.4,0,0,1-.372,6.4h-5.324a38.4,38.4,0,0,0,.372-6.4C635.623,1356.851,633.955,1342.233,636.795,1335.508Z" transform="translate(-605.25 -1229.691)" fill="#5765a3" fill-rule="evenodd"/>
      <path id="Trazado_202712" data-name="Trazado 202712" d="M487.941,1336.9s1.794-24.615,8.528-33.277l4.761-32.976,14.862,3.747-24.132,63.456Z" transform="translate(-484.528 -1198.755)" fill="#e3633d" fill-rule="evenodd"/>
      <path id="Trazado_202713" data-name="Trazado 202713" d="M479.306,1641.527l.935,3a19.8,19.8,0,0,0,2.542,3.255h0c-.072.746-.818.75-1.338.569l-8.343-4.807s-1.708-1.47,2.273-4.237C476.507,1640.824,478.205,1642.464,479.306,1641.527Z" transform="translate(-471.976 -1503.13)" fill="#4a2a1a" fill-rule="evenodd"/>
      <path id="Trazado_202714" data-name="Trazado 202714" d="M500.775,1289.631l-10.586,29.513-10.774,26.791-11.047-1.977a41.219,41.219,0,0,0,2.325-6.162c.219-1.545,3.051-16.067,7.906-22.112l5.815-29.826Z" transform="translate(-468.368 -1211.312)" fill="#3d46c2" fill-rule="evenodd"/>
      <path id="Trazado_202715" data-name="Trazado 202715" d="M564.509,1184.052l20.961,1.6c3.41,1.252,2.048,20.909,2.048,20.909l-13.782.639c-6.4-.134-13.977,4.888-14.774-5.781C558.05,1189.219,564.509,1184.052,564.509,1184.052Z" transform="translate(-543.091 -1127.259)" fill="#3d46c2" fill-rule="evenodd"/>
      <path id="Trazado_202716" data-name="Trazado 202716" d="M557.241,1261.483s13.909,1.5,18.434-4.61l-18.646-1.6A54.516,54.516,0,0,0,557.241,1261.483Z" transform="translate(-541.562 -1186.059)" fill="#5765a3" fill-rule="evenodd"/>
      <path id="Trazado_202717" data-name="Trazado 202717" d="M575.971,1046.6l-7.338-.9-6.32-.278-10.027,3.647c-2.669,1.4-1.772,3.912-.672,6.73l-.565,9.147c-1.919,6.974-1.774,12.092-1.241,19.209,11.473,3.949,28.559,2.482,32.023-2.821C580.883,1067.081,580.87,1061.84,575.971,1046.6Z" transform="translate(-535.32 -1012.799)" fill="#dce736" fill-rule="evenodd"/>
      <path id="Trazado_202718" data-name="Trazado 202718" d="M619.7,1042.458s2.672,6.182-1.606,6.559-6.779-6.055-6.779-6.055l3.1-1.466Z" transform="translate(-586.391 -1009.562)" fill="#c95836"/>
    </g>
    <circle id="Elipse_12762" data-name="Elipse 12762" cx="3.023" cy="3.023" r="3.023" transform="translate(356.292 542.472) rotate(-80.616)" fill="none" stroke="#f85316" stroke-linecap="round" stroke-miterlimit="10" stroke-width="2"/>
  </g>
</svg>
