<svg xmlns="http://www.w3.org/2000/svg" width="150.743" height="133.067" viewBox="0 0 150.743 133.067">
  <g id="Grupo_152691" data-name="Grupo 152691" transform="translate(-264.5 -954)">
    <g id="Grupo_152456" data-name="Grupo 152456" transform="translate(32.073 -23)">
      <g id="Grupo_152455" data-name="Grupo 152455" transform="translate(232.927 995.817)">
        <g id="Grupo_152450" data-name="Grupo 152450" transform="translate(31.311 68.508)">
          <path id="Trazado_205745" data-name="Trazado 205745" d="M-1663.238,1796.053c-.948-17.1-7.289-32.692-29.8-43.787C-1693.036,1752.266-1696.53,1794.2-1663.238,1796.053Z" transform="translate(1693.141 -1752.266)" fill="#75b62f" stroke="#0a0a0a" stroke-width="1"/>
          <path id="Trazado_205746" data-name="Trazado 205746" d="M-1619.32,1881.546a.18.18,0,0,1-.126-.051c-12.732-12.426-20.686-30.656-20.765-30.839a.181.181,0,0,1,.094-.238.181.181,0,0,1,.238.094c.079.182,8.006,18.348,20.685,30.722a.181.181,0,0,1,0,.256A.182.182,0,0,1-1619.32,1881.546Z" transform="translate(1643.043 -1845.181)" fill="#75b62f" stroke="#0a0a0a" stroke-width="1" opacity="0.51"/>
        </g>
        <g id="Grupo_152451" data-name="Grupo 152451" transform="translate(100.455 89.261)">
          <path id="Trazado_205747" data-name="Trazado 205747" d="M-393.836,2164.2c15.374,1.419,30.123-2.17,43-20.776C-350.836,2143.423-387.777,2134.751-393.836,2164.2Z" transform="translate(393.836 -2142.231)" fill="#dce736" stroke="#0a0a0a" stroke-width="1"/>
          <path id="Trazado_205748" data-name="Trazado 205748" d="M-233.149,2211.188a.18.18,0,0,1-.117-.043.181.181,0,0,1-.021-.255c4.6-5.417,12.121-8.86,17.624-10.793a72.883,72.883,0,0,1,10.942-2.927.179.179,0,0,1,.208.149.18.18,0,0,1-.149.208c-.2.033-19.648,3.341-28.348,13.6A.182.182,0,0,1-233.149,2211.188Z" transform="translate(241.872 -2194.243)" fill="#dce736" stroke="#0a0a0a" stroke-width="1" opacity="0.51"/>
        </g>
        <path id="Trazado_205749" data-name="Trazado 205749" d="M-1155.232,1946.188l-3.232,28.99h37.5l-4.885-28.99Z" transform="translate(1218.229 -1867.36)" fill="#12263f" stroke="#0a0a0a" stroke-width="1"/>
        <g id="Grupo_152452" data-name="Grupo 152452" transform="translate(0)">
          <path id="Trazado_205750" data-name="Trazado 205750" d="M-2281.5,472.316v66.395a10.072,10.072,0,0,0,9.812,10.069c24.251.625,109.068,2.142,132.153,1.8a7.411,7.411,0,0,0,7.3-7.2c.445-15.424,1.168-52.515-1.507-69.735a7.626,7.626,0,0,0-7.292-6.455c-20.319-.65-110.231-2.714-133.3-2.2A7.321,7.321,0,0,0-2281.5,472.316Z" transform="translate(2281.505 -464.913)" fill="#3d46c2" stroke="#0a0a0a" stroke-width="1"/>
          <path id="Trazado_205751" data-name="Trazado 205751" d="M-2203.22,517.886v63.08a5.836,5.836,0,0,0,5.749,5.835l128.729,1.59a5.679,5.679,0,0,0,5.764-5.658l.216-62.516a4.153,4.153,0,0,0-4.052-4.168l-131.8-2.662A4.5,4.5,0,0,0-2203.22,517.886Z" transform="translate(2207.386 -510.806)" fill="#e8e8e8" stroke="#0a0a0a" stroke-width="1"/>
          <path id="Trazado_205752" data-name="Trazado 205752" d="M-2065.23,1922.2h0l-141.211-2.406a.182.182,0,0,1-.178-.184.187.187,0,0,1,.184-.178l141.211,2.406a.18.18,0,0,1,.178.184A.181.181,0,0,1-2065.23,1922.2Z" transform="translate(2210.607 -1842.026)" fill="#fff" stroke="#000" stroke-width="1" opacity="0.65"/>
          <path id="Trazado_205753" data-name="Trazado 205753" d="M-879.648,1967.944a1.653,1.653,0,0,1-1.651-1.651,1.652,1.652,0,0,1,1.651-1.65,1.652,1.652,0,0,1,1.65,1.65A1.652,1.652,0,0,1-879.648,1967.944Zm0-2.939a1.29,1.29,0,0,0-1.288,1.288,1.29,1.29,0,0,0,1.288,1.288,1.29,1.29,0,0,0,1.288-1.288A1.29,1.29,0,0,0-879.648,1965.005Z" transform="translate(955.813 -1884.833)" fill="#fff" stroke="#000" stroke-width="1" opacity="0.65"/>
        </g>
        <g id="Grupo_152453" data-name="Grupo 152453" transform="translate(95.981 64.024)">
          <path id="Trazado_205754" data-name="Trazado 205754" d="M-475.692,1716c16.491-8.186,29.212-21.063,30.631-48.009C-445.061,1667.992-487.982,1682.322-475.692,1716Z" transform="translate(477.905 -1667.992)" fill="#75b62f" stroke="#0a0a0a" stroke-width="1"/>
          <path id="Trazado_205755" data-name="Trazado 205755" d="M-389.439,1845.426a.175.175,0,0,1-.06-.01.181.181,0,0,1-.111-.231,87.31,87.31,0,0,1,14-25.156,67.982,67.982,0,0,1,8.294-8.871.182.182,0,0,1,.255.022.182.182,0,0,1-.022.255,84.624,84.624,0,0,0-22.185,33.869A.181.181,0,0,1-389.439,1845.426Z" transform="translate(394.318 -1803.5)" fill="#75b62f" stroke="#0a0a0a" stroke-width="1" opacity="0.51"/>
        </g>
        <g id="Grupo_152454" data-name="Grupo 152454" transform="translate(48.089 105.623)">
          <path id="Trazado_205756" data-name="Trazado 205756" d="M-1320.594,2457.821h-54.887c-1.491,0-2.611-1.061-2.322-2.2l.7-2.785a2.271,2.271,0,0,1,2.228-1.486l52.913-1.651a2.34,2.34,0,0,1,2.405,1.442l1.27,4.437C-1317.953,2456.727-1319.078,2457.821-1320.594,2457.821Z" transform="translate(1377.848 -2449.695)" fill="#12263f" stroke="#0a0a0a" stroke-width="1"/>
          <path id="Trazado_205757" data-name="Trazado 205757" d="M-781.357,2487.937a.181.181,0,0,1-.181-.179.181.181,0,0,1,.178-.184l2.267-.033h0a.181.181,0,0,1,.181.178.181.181,0,0,1-.179.184l-2.267.033Z" transform="translate(813.272 -2485.527)" fill="#12263f" stroke="#0a0a0a" stroke-width="1"/>
          <path id="Trazado_205758" data-name="Trazado 205758" d="M-1342.035,2493.6a.142.142,0,0,1-.029,0,.18.18,0,0,1-.15-.207l.323-2.026a2.263,2.263,0,0,1,2.2-1.909l24.049-.352h0a.181.181,0,0,1,.181.178.181.181,0,0,1-.178.184l-24.049.352a1.9,1.9,0,0,0-1.852,1.6l-.324,2.025A.181.181,0,0,1-1342.035,2493.6Z" transform="translate(1344.112 -2487.01)" fill="#12263f" stroke="#0a0a0a" stroke-width="1"/>
        </g>
      </g>
      <g id="Grupo_150604" data-name="Grupo 150604" transform="translate(248.31 977)">
        <rect id="Rectángulo_44185" data-name="Rectángulo 44185" width="53.159" height="91.901" rx="10" transform="translate(40.545 0.901)" fill="#dce736"/>
        <rect id="Rectángulo_44186" data-name="Rectángulo 44186" width="18.921" height="7.208" transform="translate(57.664 0.901)" fill="#3d46c2"/>
        <rect id="Rectángulo_44187" data-name="Rectángulo 44187" width="37.842" height="59.466" transform="translate(48.654 14.416)" fill="#75b62f"/>
        <g id="Elipse_12765" data-name="Elipse 12765" transform="translate(0.901 0.901)" fill="#f85316" stroke="#707070" stroke-width="1">
          <circle cx="15.767" cy="15.767" r="15.767" stroke="none"/>
          <circle cx="15.767" cy="15.767" r="15.267" fill="none"/>
        </g>
        <g id="Elipse_12766" data-name="Elipse 12766" transform="translate(24.327 27.03)" fill="#3d46c2" stroke="#707070" stroke-width="1">
          <ellipse cx="20.723" cy="20.272" rx="20.723" ry="20.272" stroke="none"/>
          <ellipse cx="20.723" cy="20.272" rx="20.223" ry="19.772" fill="none"/>
        </g>
        <g id="Elipse_12767" data-name="Elipse 12767" transform="translate(28.832 32.436)" fill="#dce736" stroke="#707070" stroke-width="1">
          <ellipse cx="15.317" cy="14.866" rx="15.317" ry="14.866" stroke="none"/>
          <ellipse cx="15.317" cy="14.866" rx="14.817" ry="14.366" fill="none"/>
        </g>
        <path id="Unión_5" data-name="Unión 5" d="M0,18.716a7.4,7.4,0,0,1,6.749-7.047L19.261,0,27.24,8.556l-11.5,10.721c-.316,3.671-3.714,6.56-7.859,6.56C3.53,25.837,0,22.649,0,18.716Z" transform="translate(0.509 64.19)" fill="#3d46c2"/>
        <g id="nomina-de-sueldos">
          <path id="Trazado_202776" data-name="Trazado 202776" d="M52.569,37.785A16.785,16.785,0,1,0,35.785,54.569,16.8,16.8,0,0,0,52.569,37.785Zm-30.517,0A13.733,13.733,0,1,1,35.785,51.518,13.749,13.749,0,0,1,22.052,37.785Z" transform="translate(8.466 9.517)"/>
          <path id="Trazado_202777" data-name="Trazado 202777" d="M33.1,46.362V43.31h3.052V38.733a4.583,4.583,0,0,0-4.578-4.578,1.527,1.527,0,0,1-1.526-1.526V31.1h1.526A1.527,1.527,0,0,1,33.1,32.629h3.052a4.571,4.571,0,0,0-3.052-4.3V25H30.052v3.052H27v4.578a4.583,4.583,0,0,0,4.578,4.578A1.527,1.527,0,0,1,33.1,38.733v1.526H31.578a1.527,1.527,0,0,1-1.526-1.526H27a4.571,4.571,0,0,0,3.052,4.3v3.333Z" transform="translate(12.673 11.621)"/>
          <path id="Trazado_202778" data-name="Trazado 202778" d="M35,31h3.052v3.052H35Z" transform="translate(16.88 14.776)"/>
          <path id="Trazado_202779" data-name="Trazado 202779" d="M23,31h3.052v3.052H23Z" transform="translate(10.569 14.776)"/>
          <path id="Trazado_202780" data-name="Trazado 202780" d="M17.785,34.569A16.785,16.785,0,1,0,1,17.785,16.8,16.8,0,0,0,17.785,34.569Zm0-30.517A13.733,13.733,0,1,1,4.052,17.785,13.749,13.749,0,0,1,17.785,4.052Z" transform="translate(-1 -1)"/>
          <path id="Trazado_202781" data-name="Trazado 202781" d="M13.578,20.259a1.527,1.527,0,0,1-1.526-1.526H9a4.571,4.571,0,0,0,3.052,4.3v3.333H15.1V23.31h3.052V18.733a4.583,4.583,0,0,0-4.578-4.578,1.527,1.527,0,0,1-1.526-1.526V11.1h1.526A1.527,1.527,0,0,1,15.1,12.629h3.052a4.571,4.571,0,0,0-3.052-4.3V5H12.052V8.052H9v4.578a4.583,4.583,0,0,0,4.578,4.578A1.527,1.527,0,0,1,15.1,18.733v1.526Z" transform="translate(3.207 1.103)"/>
          <path id="Trazado_202782" data-name="Trazado 202782" d="M17,11h3.052v3.052H17Z" transform="translate(7.414 4.259)"/>
          <path id="Trazado_202783" data-name="Trazado 202783" d="M5,11H8.052v3.052H5Z" transform="translate(1.103 4.259)"/>
          <path id="Trazado_202784" data-name="Trazado 202784" d="M41,57H53.207v3.052H41Z" transform="translate(20.035 28.449)"/>
          <path id="Trazado_202785" data-name="Trazado 202785" d="M87.975,1H48.3a7.638,7.638,0,0,0-7.629,7.629V25.875a22.853,22.853,0,0,0-14.6,34.874l-2.943,2.943L20.836,61.4,3.344,78.9A8,8,0,0,0,14.657,90.21L32.149,72.716,29.86,70.427,32.8,67.484a22.733,22.733,0,0,0,7.869,3.246V87.975A7.638,7.638,0,0,0,48.3,95.6H87.975A7.638,7.638,0,0,0,95.6,87.975V8.629A7.638,7.638,0,0,0,87.975,1ZM58.983,4.052H77.294V5.578A1.527,1.527,0,0,1,75.768,7.1H60.509a1.527,1.527,0,0,1-1.526-1.526Zm-46.484,84a4.948,4.948,0,1,1-7-7L20.836,65.718l7,7ZM27.7,68.27l-2.42-2.42,2.638-2.638a23.228,23.228,0,0,0,2.42,2.42ZM25.414,48.3A19.836,19.836,0,1,1,45.25,68.138,19.859,19.859,0,0,1,25.414,48.3ZM83.4,71.19V49.828H68.061c.034-.507.078-1.01.078-1.526a22.927,22.927,0,0,0-18.31-22.427V16.259H86.449V74.242H49.828V70.729a22.565,22.565,0,0,0,3.052-.874V71.19ZM56.62,68.138A22.937,22.937,0,0,0,67.676,52.88H80.345V68.138ZM92.552,87.975a4.583,4.583,0,0,1-4.578,4.578H48.3a4.583,4.583,0,0,1-4.578-4.578V83.4H92.552Zm0-7.629H43.724V71.112c.507.034,1.01.078,1.526.078s1.019-.044,1.526-.078v3.13a3.055,3.055,0,0,0,3.052,3.052H86.449A3.055,3.055,0,0,0,89.5,74.242V16.259a3.055,3.055,0,0,0-3.052-3.052H49.828a3.055,3.055,0,0,0-3.052,3.052v9.233c-.507-.034-1.01-.078-1.526-.078s-1.019.044-1.526.078V8.629A4.583,4.583,0,0,1,48.3,4.052h7.629V5.578a4.583,4.583,0,0,0,4.578,4.578H75.768a4.583,4.583,0,0,0,4.578-4.578V4.052h7.629a4.583,4.583,0,0,1,4.578,4.578Z" transform="translate(-1 -1)"/>
          <path id="Trazado_202786" data-name="Trazado 202786" d="M35,13h3.052v3.052H35Z" transform="translate(16.88 5.31)"/>
          <path id="Trazado_202787" data-name="Trazado 202787" d="M39,13h3.052v3.052H39Z" transform="translate(18.983 5.31)"/>
          <path id="Trazado_202788" data-name="Trazado 202788" d="M43,13H61.31v3.052H43Z" transform="translate(21.087 5.31)"/>
          <path id="Trazado_202789" data-name="Trazado 202789" d="M43,17H61.31v3.052H43Z" transform="translate(21.087 7.414)"/>
          <path id="Trazado_202790" data-name="Trazado 202790" d="M47,21H59.207v3.052H47Z" transform="translate(23.19 9.517)"/>
          <path id="Trazado_202791" data-name="Trazado 202791" d="M47,25H59.207v3.052H47Z" transform="translate(23.19 11.621)"/>
          <path id="Trazado_202792" data-name="Trazado 202792" d="M47,29H59.207v3.052H47Z" transform="translate(23.19 13.724)"/>
        </g>
      </g>
    </g>
  </g>
</svg>
