<svg xmlns="http://www.w3.org/2000/svg" width="98" height="98" viewBox="0 0 98 98">
  <g id="Grupo_152654" data-name="Grupo 152654" transform="translate(-1012 -1532)">
    <g id="Worker" transform="translate(1010 1530)">
      <path id="Trazado_176315" data-name="Trazado 176315" d="M38.351,40h-6.4l-3.2,11.2-4.67-3.738.586,4.989L26.4,67.2l-.846,6.4h19.2V41.728A12.562,12.562,0,0,0,38.351,40Z" transform="translate(14.187 24.8)" fill="#75b62f"/>
      <path id="Trazado_176316" data-name="Trazado 176316" d="M54,28.6H52.4V27A20.785,20.785,0,0,0,41.2,8.559a20.48,20.48,0,0,0-4.8-1.8V6.2A3.2,3.2,0,0,0,33.2,3H30a3.2,3.2,0,0,0-3.2,3.2v.56A20.8,20.8,0,0,0,10.8,27v1.6H9.2a3.2,3.2,0,0,0,0,6.4H54a3.2,3.2,0,0,0,0-6.4Z" transform="translate(2.4 0.6)" fill="#f85316"/>
      <path id="Trazado_176317" data-name="Trazado 176317" d="M45,28.6H43.4V27A20.785,20.785,0,0,0,32.2,8.559a20.48,20.48,0,0,0-4.8-1.8V6.2A3.2,3.2,0,0,0,24.2,3H21a3.2,3.2,0,0,1,3.2,3.2v.56a20.48,20.48,0,0,1,4.8,1.8A20.786,20.786,0,0,1,40.2,27v1.6h1.6a3.2,3.2,0,1,1,0,6.4H45a3.2,3.2,0,0,0,0-6.4Z" transform="translate(12.284 0.6)" fill="#e88965"/>
      <path id="Trazado_176318" data-name="Trazado 176318" d="M25.33,47.462l0-.006,0,.006L30,51.2,33.2,40H28.4L22,44.8Z" transform="translate(12.755 24.234)" fill="#57a4ff"/>
      <path id="Trazado_176319" data-name="Trazado 176319" d="M20.139,45.662l-.586,4.989L23.468,52.6l3.915-1.949L26.8,45.662,23.468,43Z" transform="translate(11.169 26.119)" fill="#dce736"/>
      <path id="Trazado_176320" data-name="Trazado 176320" d="M29.485,52.451l.586-4.989L25.4,51.2,22.2,40H15.8A12.8,12.8,0,0,0,3,52.8V73.6H28.6l-.843-6.435Z" transform="translate(0.6 24.8)" fill="#75b62f"/>
      <path id="Trazado_176321" data-name="Trazado 176321" d="M28.031,47.782l-3.915,1.949L20.2,47.782,18.473,62.5l.843,6.435h9.6l.846-6.408Z" transform="translate(10.506 29.469)" fill="#dce736"/>
      <path id="Trazado_176322" data-name="Trazado 176322" d="M22.87,47.462l0-.006,0,.006L26.2,44.8,19.8,40H15l3.2,11.2Z" transform="translate(8.291 24.234)" fill="#57a4ff"/>
      <path id="Trazado_176323" data-name="Trazado 176323" d="M30.8,42.3V36.162a15.955,15.955,0,0,1-12.768.016c0,3.39-.032,6.125-.032,6.125l6.4,4.8Z" transform="translate(10.215 21.782)" fill="#ffbcab"/>
      <path id="Trazado_176324" data-name="Trazado 176324" d="M9,23v1.6a4.8,4.8,0,0,0,4.8,4.8V23Z" transform="translate(4.2 13.35)" fill="#ffa791"/>
      <path id="Trazado_176325" data-name="Trazado 176325" d="M32,29.4a4.8,4.8,0,0,0,4.8-4.8V23H32Z" transform="translate(19.053 13.35)" fill="#ffa791"/>
      <path id="Trazado_176326" data-name="Trazado 176326" d="M12,23v6.4a16,16,0,0,0,32,0V23Z" transform="translate(6.5 13.513)" fill="#ffc2b3"/>
      <path id="Trazado_176327" data-name="Trazado 176327" d="M65.8,38.6V29H37V80.2H75.4V38.6Z" transform="translate(23 18.2)" fill="#ffd4a2"/>
      <path id="Trazado_176328" data-name="Trazado 176328" d="M66.2,35V57.4A19.2,19.2,0,0,1,47,76.6H69.4V35Z" transform="translate(29 21.8)" fill="#ffc477"/>
      <path id="Trazado_176329" data-name="Trazado 176329" d="M55,29v9.6h9.6v-.074L55.278,29Z" transform="translate(33.8 17.2)" fill="#ff5023"/>
      <g id="Grupo_119443" data-name="Grupo 119443" transform="translate(2 2)">
        <path id="Trazado_176330" data-name="Trazado 176330" d="M30.058,33l.274-.274a1.6,1.6,0,1,0-2.263-2.263l-.273.274a4.8,4.8,0,0,1-6.79,0l-.274-.274a1.6,1.6,0,1,0-2.263,2.263l.274.273A8,8,0,0,0,30.058,33Z" transform="translate(8.215 15.788)" fill="#231f20"/>
        <path id="Trazado_176331" data-name="Trazado 176331" d="M13.6,22.4H24.8a1.6,1.6,0,0,0,1.6-1.6V19.2h3.2v1.6a1.6,1.6,0,0,0,1.6,1.6H42.4a1.6,1.6,0,1,0,0-3.2H32.8V17.6A1.6,1.6,0,0,0,31.2,16H24.8a1.6,1.6,0,0,0-1.6,1.6v1.6H13.6a1.6,1.6,0,1,0,0,3.2Z" transform="translate(4.5 6.9)" fill="#231f20"/>
        <path id="Trazado_176332" data-name="Trazado 176332" d="M99.526,54.675,90.02,44.957a1.669,1.669,0,0,0-1.176-.49H59.167A1.633,1.633,0,0,0,57.533,46.1V63.3a14.669,14.669,0,0,0-4.9-.866h-9.8v-3.61a18.019,18.019,0,0,0,9.735-14.569,6.533,6.533,0,0,0,4.965-6.321,4.9,4.9,0,1,0,0-9.8,22.76,22.76,0,0,0-16.4-21.919A4.9,4.9,0,0,0,36.3,2H33.033A4.9,4.9,0,0,0,28.2,6.214,22.76,22.76,0,0,0,11.8,28.133a4.9,4.9,0,1,0,0,9.8,6.533,6.533,0,0,0,4.965,6.321,17.967,17.967,0,0,0,9.767,14.569c0,1.421-.016,2.695-.016,3.61H16.7A14.723,14.723,0,0,0,2,77.133V98.367A1.633,1.633,0,0,0,3.633,100H98.367A1.633,1.633,0,0,0,100,98.367V55.818A1.607,1.607,0,0,0,99.526,54.675ZM52.633,40.759V37.933h1.633A3.241,3.241,0,0,1,52.633,40.759Zm-35.933,0a3.241,3.241,0,0,1-1.633-2.826H16.7Zm-4.9-6.092a1.633,1.633,0,1,1,0-3.267,1.633,1.633,0,0,0,3.267,0V28.133a19.505,19.505,0,0,1,8.167-15.925V16.7a1.633,1.633,0,1,0,3.267,0V10.314c.539-.245,1.078-.457,1.633-.653V19.967a1.633,1.633,0,0,0,3.267,0V6.9a1.633,1.633,0,0,1,1.633-1.633H36.3A1.633,1.633,0,0,1,37.933,6.9V19.967a1.633,1.633,0,0,0,3.267,0V9.66c.555.2,1.094.408,1.633.653V16.7a1.633,1.633,0,1,0,3.267,0V12.208a19.505,19.505,0,0,1,8.167,15.925V31.4a1.633,1.633,0,0,0,3.267,0,1.633,1.633,0,1,1,0,3.267Zm8.167,8.167v-4.9H26.5a1.633,1.633,0,0,0,0,3.267h1.633a1.633,1.633,0,1,0,0-3.267H41.2a1.633,1.633,0,1,0,0,3.267h1.633a1.633,1.633,0,0,0,0-3.267h6.533v4.9a14.7,14.7,0,0,1-29.4,0Zm14.7,24.092L29.783,63.25c0-.7,0-1.8.016-3.136a17.786,17.786,0,0,0,4.867.686,17.425,17.425,0,0,0,4.9-.7l0,3.153Zm2.238,8.9-2.238,1.111-2.238-1.111.376-3.283,1.862-1.486,1.862,1.486Zm-7.856.817a.06.06,0,0,0-.016.049L27.284,91.6a1.707,1.707,0,0,0,0,.408l.621,4.72H18.333V85.3a1.633,1.633,0,0,0-3.267,0V96.733h-9.8v-19.6A11.446,11.446,0,0,1,16.7,65.7h5.308l2.924,10.241a1.633,1.633,0,0,0,2.581.833l1.666-1.323ZM30.24,70.42,27.4,72.691,25.406,65.7h2.189L32,69.016l-1.715,1.356Zm7.889,26.313H31.2l-.653-4.949,1.47-12.511,1.911.964a1.736,1.736,0,0,0,1.47,0l1.911-.964,1.47,12.544Zm.915-26.362-1.715-1.356,4.41-3.316h2.189l-1.993,6.991-2.842-2.27ZM57.533,96.733H54.267V85.3A1.633,1.633,0,0,0,51,85.3V96.733H41.429l.621-4.688a1.705,1.705,0,0,0,0-.408L40.3,76.692a.06.06,0,0,0-.016-.049l-.131-1.192,1.666,1.323a1.666,1.666,0,0,0,1.013.359,1.71,1.71,0,0,0,.49-.082A1.6,1.6,0,0,0,44.4,75.941L47.325,65.7h5.308a11.461,11.461,0,0,1,4.9,1.127ZM90.2,49.808l4.361,4.459H90.2Zm6.533,46.926H60.8v-49H86.933V55.9a1.633,1.633,0,0,0,1.633,1.633h8.167Z" transform="translate(-2 -2)" fill="#231f20"/>
        <path id="Trazado_176333" data-name="Trazado 176333" d="M43.2,38H41.6a1.6,1.6,0,0,0,0,3.2h1.6a1.6,1.6,0,1,0,0-3.2Z" transform="translate(22.133 20.841)" fill="#231f20"/>
        <path id="Trazado_176334" data-name="Trazado 176334" d="M64.2,38H46.6a1.6,1.6,0,1,0,0,3.2H64.2a1.6,1.6,0,0,0,0-3.2Z" transform="translate(25.8 20.841)" fill="#231f20"/>
        <path id="Trazado_176335" data-name="Trazado 176335" d="M43.2,42H41.6a1.6,1.6,0,0,0,0,3.2h1.6a1.6,1.6,0,1,0,0-3.2Z" transform="translate(22.133 23.379)" fill="#231f20"/>
        <path id="Trazado_176336" data-name="Trazado 176336" d="M64.2,42H46.6a1.6,1.6,0,1,0,0,3.2H64.2a1.6,1.6,0,0,0,0-3.2Z" transform="translate(25.8 23.379)" fill="#231f20"/>
        <path id="Trazado_176337" data-name="Trazado 176337" d="M43.2,46H41.6a1.6,1.6,0,1,0,0,3.2h1.6a1.6,1.6,0,1,0,0-3.2Z" transform="translate(22.133 25.917)" fill="#231f20"/>
        <path id="Trazado_176338" data-name="Trazado 176338" d="M64.2,46H46.6a1.6,1.6,0,1,0,0,3.2H64.2a1.6,1.6,0,0,0,0-3.2Z" transform="translate(25.8 25.917)" fill="#231f20"/>
        <path id="Trazado_176339" data-name="Trazado 176339" d="M43.2,50H41.6a1.6,1.6,0,0,0,0,3.2h1.6a1.6,1.6,0,1,0,0-3.2Z" transform="translate(22.133 28.455)" fill="#231f20"/>
        <path id="Trazado_176340" data-name="Trazado 176340" d="M64.2,50H46.6a1.6,1.6,0,1,0,0,3.2H64.2a1.6,1.6,0,0,0,0-3.2Z" transform="translate(25.8 28.455)" fill="#231f20"/>
        <path id="Trazado_176341" data-name="Trazado 176341" d="M43.2,54H41.6a1.6,1.6,0,0,0,0,3.2h1.6a1.6,1.6,0,1,0,0-3.2Z" transform="translate(22.133 31.2)" fill="#231f20"/>
        <path id="Trazado_176342" data-name="Trazado 176342" d="M64.2,54H46.6a1.6,1.6,0,1,0,0,3.2H64.2a1.6,1.6,0,0,0,0-3.2Z" transform="translate(25.8 31.2)" fill="#231f20"/>
      </g>
    </g>
  </g>
</svg>
