<svg xmlns="http://www.w3.org/2000/svg" xmlns:xlink="http://www.w3.org/1999/xlink" width="150.743" height="136.714" viewBox="0 0 150.743 136.714">
  <defs>
    <linearGradient id="linear-gradient" x1="-19.335" y1="-17.763" x2="-19.539" y2="-13.841" gradientUnits="objectBoundingBox">
      <stop offset="0" stop-color="#febbba"/>
      <stop offset="1" stop-color="#ff928e"/>
    </linearGradient>
    <linearGradient id="linear-gradient-2" x1="8.222" y1="-16.34" x2="8.012" y2="-12.937" gradientUnits="objectBoundingBox">
      <stop offset="0" stop-color="#e1473d"/>
      <stop offset="1" stop-color="#e9605a"/>
    </linearGradient>
    <linearGradient id="linear-gradient-3" x1="5.393" y1="-8.904" x2="5.264" y2="-6.819" xlink:href="#linear-gradient-2"/>
    <linearGradient id="linear-gradient-4" x1="5.048" y1="-9.574" x2="4.923" y2="-7.547" xlink:href="#linear-gradient-2"/>
    <linearGradient id="linear-gradient-5" x1="6.42" y1="-10.843" x2="6.263" y2="-8.309" xlink:href="#linear-gradient-2"/>
  </defs>
  <g id="Grupo_152694" data-name="Grupo 152694" transform="translate(-284.5 -490.353)">
    <g id="Grupo_152693" data-name="Grupo 152693">
      <g id="Grupo_152457" data-name="Grupo 152457" transform="translate(0 -13)">
        <g id="Grupo_152455" data-name="Grupo 152455" transform="translate(285 525.817)">
          <g id="Grupo_152450" data-name="Grupo 152450" transform="translate(31.311 68.508)">
            <path id="Trazado_205745" data-name="Trazado 205745" d="M-1663.238,1796.053c-.948-17.1-7.289-32.692-29.8-43.787C-1693.036,1752.266-1696.53,1794.2-1663.238,1796.053Z" transform="translate(1693.141 -1752.266)" fill="#dce736" stroke="#0a0a0a" stroke-width="1"/>
            <path id="Trazado_205746" data-name="Trazado 205746" d="M-1619.32,1881.546a.18.18,0,0,1-.126-.051c-12.732-12.426-20.686-30.656-20.765-30.839a.181.181,0,0,1,.094-.238.181.181,0,0,1,.238.094c.079.182,8.006,18.348,20.685,30.722a.181.181,0,0,1,0,.256A.182.182,0,0,1-1619.32,1881.546Z" transform="translate(1643.043 -1845.181)" fill="#dce736" stroke="#0a0a0a" stroke-width="1" opacity="0.51"/>
          </g>
          <g id="Grupo_152451" data-name="Grupo 152451" transform="translate(100.455 89.261)">
            <path id="Trazado_205747" data-name="Trazado 205747" d="M-393.836,2164.2c15.374,1.419,30.123-2.17,43-20.776C-350.836,2143.423-387.777,2134.751-393.836,2164.2Z" transform="translate(393.836 -2142.231)" fill="#dce736" stroke="#0a0a0a" stroke-width="1"/>
            <path id="Trazado_205748" data-name="Trazado 205748" d="M-233.149,2211.188a.18.18,0,0,1-.117-.043.181.181,0,0,1-.021-.255c4.6-5.417,12.121-8.86,17.624-10.793a72.883,72.883,0,0,1,10.942-2.927.179.179,0,0,1,.208.149.18.18,0,0,1-.149.208c-.2.033-19.648,3.341-28.348,13.6A.182.182,0,0,1-233.149,2211.188Z" transform="translate(241.872 -2194.243)" fill="#dce736" stroke="#0a0a0a" stroke-width="1" opacity="0.51"/>
          </g>
          <path id="Trazado_205749" data-name="Trazado 205749" d="M-1155.232,1946.188l-3.232,28.99h37.5l-4.885-28.99Z" transform="translate(1218.229 -1867.36)" fill="#12263f" stroke="#0a0a0a" stroke-width="1"/>
          <g id="Grupo_152452" data-name="Grupo 152452" transform="translate(0)">
            <path id="Trazado_205750" data-name="Trazado 205750" d="M-2281.5,472.316v66.395a10.072,10.072,0,0,0,9.812,10.069c24.251.625,109.068,2.142,132.153,1.8a7.411,7.411,0,0,0,7.3-7.2c.445-15.424,1.168-52.515-1.507-69.735a7.626,7.626,0,0,0-7.292-6.455c-20.319-.65-110.231-2.714-133.3-2.2A7.321,7.321,0,0,0-2281.5,472.316Z" transform="translate(2281.505 -464.913)" fill="#3d46c2" stroke="#0a0a0a" stroke-width="1"/>
            <path id="Trazado_205751" data-name="Trazado 205751" d="M-2203.22,517.886v63.08a5.836,5.836,0,0,0,5.749,5.835l128.729,1.59a5.679,5.679,0,0,0,5.764-5.658l.216-62.516a4.153,4.153,0,0,0-4.052-4.168l-131.8-2.662A4.5,4.5,0,0,0-2203.22,517.886Z" transform="translate(2207.386 -510.806)" fill="#e8e8e8" stroke="#0a0a0a" stroke-width="1"/>
            <path id="Trazado_205752" data-name="Trazado 205752" d="M-2065.23,1922.2h0l-141.211-2.406a.182.182,0,0,1-.178-.184.187.187,0,0,1,.184-.178l141.211,2.406a.18.18,0,0,1,.178.184A.181.181,0,0,1-2065.23,1922.2Z" transform="translate(2210.607 -1842.026)" fill="#fff" stroke="#000" stroke-width="1" opacity="0.65"/>
            <path id="Trazado_205753" data-name="Trazado 205753" d="M-879.648,1967.944a1.653,1.653,0,0,1-1.651-1.651,1.652,1.652,0,0,1,1.651-1.65,1.652,1.652,0,0,1,1.65,1.65A1.652,1.652,0,0,1-879.648,1967.944Zm0-2.939a1.29,1.29,0,0,0-1.288,1.288,1.29,1.29,0,0,0,1.288,1.288,1.29,1.29,0,0,0,1.288-1.288A1.29,1.29,0,0,0-879.648,1965.005Z" transform="translate(955.813 -1884.833)" fill="#fff" stroke="#000" stroke-width="1" opacity="0.65"/>
          </g>
          <g id="Grupo_152453" data-name="Grupo 152453" transform="translate(95.981 64.024)">
            <path id="Trazado_205754" data-name="Trazado 205754" d="M-475.692,1716c16.491-8.186,29.212-21.063,30.631-48.009C-445.061,1667.992-487.982,1682.322-475.692,1716Z" transform="translate(477.905 -1667.992)" fill="#f85316" stroke="#0a0a0a" stroke-width="1"/>
            <path id="Trazado_205755" data-name="Trazado 205755" d="M-389.439,1845.426a.175.175,0,0,1-.06-.01.181.181,0,0,1-.111-.231,87.31,87.31,0,0,1,14-25.156,67.982,67.982,0,0,1,8.294-8.871.182.182,0,0,1,.255.022.182.182,0,0,1-.022.255,84.624,84.624,0,0,0-22.185,33.869A.181.181,0,0,1-389.439,1845.426Z" transform="translate(394.318 -1803.5)" fill="#f85316" stroke="#0a0a0a" stroke-width="1" opacity="0.51"/>
          </g>
          <g id="Grupo_152454" data-name="Grupo 152454" transform="translate(48.089 105.623)">
            <path id="Trazado_205756" data-name="Trazado 205756" d="M-1320.594,2457.821h-54.887c-1.491,0-2.611-1.061-2.322-2.2l.7-2.785a2.271,2.271,0,0,1,2.228-1.486l52.913-1.651a2.34,2.34,0,0,1,2.405,1.442l1.27,4.437C-1317.953,2456.727-1319.078,2457.821-1320.594,2457.821Z" transform="translate(1377.848 -2449.695)" fill="#12263f" stroke="#0a0a0a" stroke-width="1"/>
            <path id="Trazado_205757" data-name="Trazado 205757" d="M-781.357,2487.937a.181.181,0,0,1-.181-.179.181.181,0,0,1,.178-.184l2.267-.033h0a.181.181,0,0,1,.181.178.181.181,0,0,1-.179.184l-2.267.033Z" transform="translate(813.272 -2485.527)" fill="#12263f" stroke="#0a0a0a" stroke-width="1"/>
            <path id="Trazado_205758" data-name="Trazado 205758" d="M-1342.035,2493.6a.142.142,0,0,1-.029,0,.18.18,0,0,1-.15-.207l.323-2.026a2.263,2.263,0,0,1,2.2-1.909l24.049-.352h0a.181.181,0,0,1,.181.178.181.181,0,0,1-.178.184l-24.049.352a1.9,1.9,0,0,0-1.852,1.6l-.324,2.025A.181.181,0,0,1-1342.035,2493.6Z" transform="translate(1344.112 -2487.01)" fill="#12263f" stroke="#0a0a0a" stroke-width="1"/>
          </g>
        </g>
        <g id="Grupo_150607" data-name="Grupo 150607" transform="translate(-233.701 -2042.417)">
          <g id="Grupo_150605" data-name="Grupo 150605" transform="translate(550.359 2546.417)">
            <path id="Trazado_202793" data-name="Trazado 202793" d="M678.8,2546.819l-65.611-.4a3.756,3.756,0,0,0-3.774,3.942l4.471,92.329,73.055.888L691,2560.292Z" transform="translate(-609.41 -2546.417)" fill="#75b62f" stroke="#000" stroke-width="1"/>
            <path id="Trazado_202794" data-name="Trazado 202794" d="M1001.558,2562.344a3.755,3.755,0,0,1-3.612-4.049l.7-8.9,12.389,13.295Z" transform="translate(-929.441 -2548.869)" fill="#4e8a0e" stroke="#000" stroke-width="1"/>
            <path id="Trazado_202795" data-name="Trazado 202795" d="M719.176,2728.85H662.26a3.177,3.177,0,0,1-3.176-3.081l-1.189-39.036a3.177,3.177,0,0,1,3.176-3.274h58.1a3.177,3.177,0,0,1,3.177,3.177v39.037A3.177,3.177,0,0,1,719.176,2728.85Z" transform="translate(-649.346 -2659.3)" fill="#fff" stroke="#000" stroke-width="1" opacity="0.39"/>
            <path id="Trazado_202796" data-name="Trazado 202796" d="M716.122,2728.051H659.206a3.379,3.379,0,0,1-3.394-3.292l-1.189-39.037a3.395,3.395,0,0,1,3.394-3.5h58.1a3.4,3.4,0,0,1,3.4,3.395v39.037A3.4,3.4,0,0,1,716.122,2728.051Zm-58.1-45.392a2.96,2.96,0,0,0-2.959,3.05l1.189,39.037a2.946,2.946,0,0,0,2.959,2.87h56.915a2.963,2.963,0,0,0,2.96-2.96v-39.037a2.963,2.963,0,0,0-2.96-2.96Z" transform="translate(-646.651 -2658.282)" fill="#fff" stroke="#000" stroke-width="1"/>
            <rect id="Rectángulo_44188" data-name="Rectángulo 44188" width="45.439" height="0.435" transform="translate(27.91 69.417) rotate(-89.701)" fill="#fff" stroke="#000" stroke-width="1"/>
            <rect id="Rectángulo_44189" data-name="Rectángulo 44189" width="0.435" height="64.425" transform="translate(8.223 28.773) rotate(-89.719)" fill="#fff" stroke="#000" stroke-width="1"/>
            <rect id="Rectángulo_44190" data-name="Rectángulo 44190" width="64.137" height="0.435" transform="translate(8.435 38.932)" fill="#fff" stroke="#000" stroke-width="1"/>
            <rect id="Rectángulo_44191" data-name="Rectángulo 44191" width="63.556" height="0.435" transform="translate(9.015 50.105)" fill="#fff" stroke="#000" stroke-width="1"/>
            <rect id="Rectángulo_44192" data-name="Rectángulo 44192" width="63.004" height="0.435" transform="matrix(1, -0.003, 0.003, 1, 9.638, 59.423)" fill="#fff" stroke="#000" stroke-width="1"/>
            <rect id="Rectángulo_44193" data-name="Rectángulo 44193" width="27.049" height="2.385" rx="1.192" transform="translate(36.159 10.592)" fill="#fff" stroke="#000" stroke-width="1" opacity="0.55"/>
            <rect id="Rectángulo_44194" data-name="Rectángulo 44194" width="62.299" height="4.672" rx="2.336" transform="translate(10.348 77.354)" fill="#fff" stroke="#000" stroke-width="1" opacity="0.42"/>
            <rect id="Rectángulo_44195" data-name="Rectángulo 44195" width="27.049" height="2.385" rx="1.192" transform="translate(36.276 14.391)" fill="#fff" stroke="#000" stroke-width="1" opacity="0.55"/>
          </g>
          <g id="Grupo_150616" data-name="Grupo 150616" transform="translate(606.161 2562.172)">
            <g id="Grupo_150615" data-name="Grupo 150615" transform="translate(0 78.238) rotate(-82)">
              <g id="Grupo_150614" data-name="Grupo 150614" transform="translate(0 0)">
                <path id="Trazado_202814" data-name="Trazado 202814" d="M61.906,20.911,3.111,0,0,8.641,58.775,30.135a2.741,2.741,0,0,0,3.311-1.2,11.66,11.66,0,0,0,1.383-5.785A2.347,2.347,0,0,0,61.906,20.911Z" transform="translate(15.538 2.237)" fill="#f85316" stroke="#000" stroke-width="1"/>
                <g id="Grupo_150613" data-name="Grupo 150613">
                  <path id="Trazado_202815" data-name="Trazado 202815" d="M.459,0,8.581,1A7.137,7.137,0,0,1,6.967,5.224L.185.749A.408.408,0,0,1,.459,0Z" fill="#12263f" stroke="#000" stroke-width="1"/>
                  <path id="Trazado_202816" data-name="Trazado 202816" d="M11.681,1.236A11.315,11.315,0,0,1,8.571,9.877L0,4.223A7.138,7.138,0,0,0,1.614,0Z" transform="translate(6.967 1.001)" stroke="#000" stroke-width="1" fill="url(#linear-gradient)"/>
                </g>
              </g>
              <path id="Trazado_202817" data-name="Trazado 202817" d="M56.424,20.225a.173.173,0,0,0,.057-.336L.23.01A.173.173,0,1,0,.115.335l56.251,19.88A.172.172,0,0,0,56.424,20.225Z" transform="translate(20.29 5.572)" fill="#12263f" stroke="#000" stroke-width="1"/>
              <path id="Trazado_202818" data-name="Trazado 202818" d="M56.424,20.225a.173.173,0,0,0,.058-.336L.23.01A.173.173,0,0,0,.115.336l56.251,19.88A.172.172,0,0,0,56.424,20.225Z" transform="translate(19.32 8.962)" fill="#12263f" stroke="#000" stroke-width="1"/>
            </g>
          </g>
          <g id="Grupo_150626" data-name="Grupo 150626" transform="translate(537.721 2561.781)">
            <g id="Grupo_150625" data-name="Grupo 150625" transform="translate(0 0)">
              <g id="Grupo_150618" data-name="Grupo 150618" transform="translate(0 20.643)">
                <circle id="Elipse_12769" data-name="Elipse 12769" cx="5.691" cy="5.691" r="5.691" transform="translate(0.114 10.792) rotate(-69.737)" stroke="#000" stroke-width="0.5" fill="url(#linear-gradient-2)"/>
                <circle id="Elipse_12770" data-name="Elipse 12770" cx="5.502" cy="5.502" r="5.502" transform="translate(0 5.093) rotate(-27.571)" fill="#f85316" stroke="#000" stroke-width="0.5"/>
                <path id="Trazado_202820" data-name="Trazado 202820" d="M550.788,2767.417a.183.183,0,0,1-.228-.215,5.242,5.242,0,0,1,3.779-4.024,5.368,5.368,0,0,1,.939-.166.184.184,0,1,1,.031.367,4.93,4.93,0,0,0-.873.155,4.875,4.875,0,0,0-3.516,3.743A.183.183,0,0,1,550.788,2767.417Z" transform="translate(-548.294 -2760.834)" fill="#fff" stroke="#000" stroke-width="0.5" opacity="0.78"/>
                <circle id="Elipse_12771" data-name="Elipse 12771" cx="4.657" cy="4.657" r="4.657" transform="matrix(0.497, -0.868, 0.868, 0.497, 1.215, 9.233)" fill="#ffd4a2" stroke="#000" stroke-width="0.5" opacity="0.78"/>
                <g id="Grupo_150617" data-name="Grupo 150617" transform="translate(5.305 4.277)">
                  <path id="Trazado_202821" data-name="Trazado 202821" d="M570.544,2781.611l-.133-.489a4.137,4.137,0,0,1-1.453.074.293.293,0,0,1-.247-.292v-.489a.3.3,0,0,1,.336-.292,3.43,3.43,0,0,0,1.339-.077c.491-.133.812-.4.719-.74-.083-.308-.416-.414-1.148-.412-1.046,0-1.86-.237-2.093-1.094a1.654,1.654,0,0,1,1.135-1.942l-.133-.489a.3.3,0,0,1,.208-.362l.287-.078a.3.3,0,0,1,.362.208l.119.439a3.769,3.769,0,0,1,1.14-.1.294.294,0,0,1,.27.294v.452a.294.294,0,0,1-.323.294,3.084,3.084,0,0,0-1.119.1c-.583.158-.683.445-.625.661.072.266.471.355,1.292.382,1.17.031,1.741.358,1.96,1.166a1.727,1.727,0,0,1-1.188,2.011l.148.547a.3.3,0,0,1-.208.362l-.287.078A.3.3,0,0,1,570.544,2781.611Z" transform="translate(-567.812 -2774.919)" fill="#f85316" stroke="#000" stroke-width="0.5"/>
                </g>
              </g>
              <g id="Grupo_150620" data-name="Grupo 150620" transform="translate(6.621)">
                <circle id="Elipse_12772" data-name="Elipse 12772" cx="9.288" cy="9.288" r="9.288" transform="translate(0 6.499) rotate(-20.479)" stroke="#000" stroke-width="0.5" fill="url(#linear-gradient-3)"/>
                <circle id="Elipse_12773" data-name="Elipse 12773" cx="8.98" cy="8.98" r="8.98" transform="translate(0.917 5.665) rotate(-15.33)" fill="#f85316" stroke="#000" stroke-width="0.5"/>
                <path id="Trazado_202822" data-name="Trazado 202822" d="M596.231,2660.451a.176.176,0,0,1-.08,0,.172.172,0,0,1-.134-.2,8.426,8.426,0,0,1,6.076-6.47,8.531,8.531,0,0,1,1.509-.267.172.172,0,1,1,.029.343,8.191,8.191,0,0,0-1.448.257,8.083,8.083,0,0,0-5.829,6.207A.173.173,0,0,1,596.231,2660.451Z" transform="translate(-592.358 -2649.995)" fill="#fff" stroke="#000" stroke-width="0.5" opacity="0.78"/>
                <path id="Trazado_202828" data-name="Trazado 202828" d="M7.6,0A7.6,7.6,0,1,1,0,7.6,7.6,7.6,0,0,1,7.6,0Z" transform="matrix(0.786, -0.618, 0.618, 0.786, 1.52, 10.807)" fill="#ffd4a2" stroke="#000" stroke-width="0.5" opacity="0.78"/>
                <g id="Grupo_150619" data-name="Grupo 150619" transform="translate(8.493 6.815)">
                  <path id="Trazado_202823" data-name="Trazado 202823" d="M627.909,2683.142l-.216-.8a6.751,6.751,0,0,1-2.371.122.478.478,0,0,1-.4-.476v-.8a.482.482,0,0,1,.549-.476,5.594,5.594,0,0,0,2.185-.126c.8-.218,1.325-.651,1.174-1.208-.136-.5-.679-.676-1.874-.673-1.707,0-3.036-.387-3.415-1.785-.343-1.263.319-2.478,1.852-3.171l-.216-.8a.482.482,0,0,1,.339-.591l.469-.127a.481.481,0,0,1,.591.339l.194.716a6.165,6.165,0,0,1,1.861-.163.48.48,0,0,1,.44.48v.738a.48.48,0,0,1-.527.479,5.017,5.017,0,0,0-1.826.156c-.951.258-1.115.726-1.019,1.079.118.435.769.579,2.108.624,1.909.051,2.841.585,3.2,1.9.328,1.208-.274,2.538-1.938,3.281l.242.893a.482.482,0,0,1-.339.591l-.469.127A.482.482,0,0,1,627.909,2683.142Z" transform="translate(-623.451 -2672.22)" fill="#f85316" stroke="#000" stroke-width="0.5"/>
                </g>
              </g>
              <g id="Grupo_150622" data-name="Grupo 150622" transform="translate(18.643 18.753)">
                <circle id="Elipse_12775" data-name="Elipse 12775" cx="9.558" cy="9.558" r="9.558" transform="translate(0 18.575) rotate(-76.35)" stroke="#000" stroke-width="0.5" fill="url(#linear-gradient-4)"/>
                <circle id="Elipse_12776" data-name="Elipse 12776" cx="9.24" cy="9.24" r="9.24" transform="matrix(0.243, -0.97, 0.97, 0.243, 0.338, 18.266)" fill="#f85316" stroke="#000" stroke-width="0.5"/>
                <path id="Trazado_202824" data-name="Trazado 202824" d="M660.775,2763.346a.169.169,0,0,1-.08,0,.173.173,0,0,1-.134-.2,8.665,8.665,0,0,1,6.249-6.655,8.763,8.763,0,0,1,1.552-.274.172.172,0,1,1,.029.344,8.443,8.443,0,0,0-1.491.264,8.322,8.322,0,0,0-6,6.391A.172.172,0,0,1,660.775,2763.346Z" transform="translate(-657.545 -2753.346)" fill="#fff" stroke="#000" stroke-width="0.5" opacity="0.78"/>
                <circle id="Elipse_12777" data-name="Elipse 12777" cx="7.82" cy="7.82" r="7.82" transform="translate(3.709 4.134) rotate(-1.944)" fill="#ffd4a2" stroke="#000" stroke-width="0.5" opacity="0.78"/>
                <g id="Grupo_150621" data-name="Grupo 150621" transform="translate(7.985 6.258)">
                  <path id="Trazado_202825" data-name="Trazado 202825" d="M693.349,2786.676l-.223-.821a6.937,6.937,0,0,1-2.44.125.492.492,0,0,1-.415-.49v-.821a.5.5,0,0,1,.565-.49,5.765,5.765,0,0,0,2.249-.129c.825-.224,1.364-.67,1.208-1.243-.14-.517-.7-.7-1.928-.692-1.756,0-3.124-.4-3.514-1.837-.353-1.3.329-2.55,1.906-3.263l-.223-.821a.5.5,0,0,1,.349-.608l.482-.131a.5.5,0,0,1,.608.349l.2.737a6.338,6.338,0,0,1,1.915-.167.493.493,0,0,1,.453.494v.759a.494.494,0,0,1-.542.493,5.162,5.162,0,0,0-1.879.161c-.978.265-1.148.746-1.049,1.11.121.447.792.6,2.169.642,1.964.052,2.924.6,3.292,1.958.337,1.244-.281,2.612-1.995,3.376l.249.919a.5.5,0,0,1-.349.608l-.483.131A.5.5,0,0,1,693.349,2786.676Z" transform="translate(-688.761 -2775.438)" fill="#f85316" stroke="#000" stroke-width="0.5"/>
                </g>
              </g>
              <g id="Grupo_150624" data-name="Grupo 150624" transform="translate(28.453 2.725)">
                <circle id="Elipse_12778" data-name="Elipse 12778" cx="7.644" cy="7.644" r="7.644" transform="translate(0 3.226) rotate(-12.181)" stroke="#000" stroke-width="0.5" fill="url(#linear-gradient-5)"/>
                <circle id="Elipse_12779" data-name="Elipse 12779" cx="7.39" cy="7.39" r="7.39" transform="matrix(0.139, -0.99, 0.99, 0.139, 0.74, 15.376)" fill="#f85316" stroke="#000" stroke-width="0.5"/>
                <path id="Trazado_202826" data-name="Trazado 202826" d="M711.9,2666.721a.186.186,0,0,1-.087,0,.188.188,0,0,1-.146-.222,6.981,6.981,0,0,1,5.034-5.36,7.067,7.067,0,0,1,1.25-.221.188.188,0,1,1,.032.375,6.709,6.709,0,0,0-1.183.209,6.606,6.606,0,0,0-4.763,5.072A.188.188,0,0,1,711.9,2666.721Z" transform="translate(-709.453 -2658.822)" fill="#fff" stroke="#000" stroke-width="0.5" opacity="0.78"/>
                <circle id="Elipse_12780" data-name="Elipse 12780" cx="6.254" cy="6.254" r="6.254" transform="matrix(0.854, -0.521, 0.521, 0.854, 0.686, 7.113)" fill="#ffd4a2" stroke="#000" stroke-width="0.5" opacity="0.78"/>
                <g id="Grupo_150623" data-name="Grupo 150623" transform="translate(6.239 4.858)">
                  <path id="Trazado_202827" data-name="Trazado 202827" d="M738.176,2685.566l-.178-.657a5.54,5.54,0,0,1-1.951.1.394.394,0,0,1-.332-.392v-.657a.4.4,0,0,1,.452-.392,4.607,4.607,0,0,0,1.8-.1c.659-.179,1.091-.536.966-.994-.112-.414-.559-.556-1.542-.554-1.4,0-2.5-.318-2.811-1.469a2.222,2.222,0,0,1,1.524-2.609l-.178-.657a.4.4,0,0,1,.279-.487l.386-.1a.4.4,0,0,1,.487.279l.16.59a5.071,5.071,0,0,1,1.532-.134.4.4,0,0,1,.363.4v.607a.4.4,0,0,1-.434.394,4.127,4.127,0,0,0-1.5.129c-.782.212-.918.6-.839.887.1.358.633.476,1.735.513,1.571.042,2.339.482,2.633,1.566a2.32,2.32,0,0,1-1.6,2.7l.2.735a.4.4,0,0,1-.279.487l-.386.1A.4.4,0,0,1,738.176,2685.566Z" transform="translate(-734.507 -2676.578)" fill="#f85316" stroke="#000" stroke-width="0.5"/>
                </g>
              </g>
            </g>
          </g>
        </g>
      </g>
    </g>
  </g>
</svg>
