<svg xmlns="http://www.w3.org/2000/svg" width="100" height="100.167" viewBox="0 0 100 100.167">
  <g id="Grupo_152655" data-name="Grupo 152655" transform="translate(-472 -1733)">
    <g id="Grupo_152632" data-name="Grupo 152632" transform="translate(0 19.24)">
      <g id="subordinacion" transform="translate(471.602 1713.76)">
        <path id="Trazado_176343" data-name="Trazado 176343" d="M221.731,14.667A6.667,6.667,0,1,1,215.065,8,6.666,6.666,0,0,1,221.731,14.667Zm0,0" transform="translate(-164.666 -6.333)" fill="#f85316"/>
        <path id="Trazado_176344" data-name="Trazado 176344" d="M176.4,98v6.667l1.409.7a26.667,26.667,0,0,0,23.85,0l1.408-.7V98a10,10,0,0,0-10-10H186.4a10,10,0,0,0-10,10Zm0,0" transform="translate(-139.333 -69.667)" fill="#f85316"/>
        <path id="Trazado_176345" data-name="Trazado 176345" d="M221.731,302.667A6.667,6.667,0,1,1,215.065,296,6.666,6.666,0,0,1,221.731,302.667Zm0,0" transform="translate(-164.666 -234.333)" fill="#3d46c2"/>
        <path id="Trazado_176346" data-name="Trazado 176346" d="M176.4,386v6.667l1.409.7a26.667,26.667,0,0,0,23.85,0l1.408-.7V386a10,10,0,0,0-10-10H186.4a10,10,0,0,0-10,10Zm0,0" transform="translate(-139.333 -297.667)" fill="#3d46c2"/>
        <path id="Trazado_176347" data-name="Trazado 176347" d="M389.731,302.667A6.667,6.667,0,1,1,383.065,296,6.666,6.666,0,0,1,389.731,302.667Zm0,0" transform="translate(-297.666 -234.333)" fill="#dce736"/>
        <path id="Trazado_176348" data-name="Trazado 176348" d="M371.065,386a10,10,0,0,0-10-10H354.4a10,10,0,0,0-10,10v6.667l1.409.7a26.667,26.667,0,0,0,23.85,0l1.408-.7Zm0,0" transform="translate(-272.333 -297.667)" fill="#dce736"/>
        <path id="Trazado_176349" data-name="Trazado 176349" d="M53.731,302.667A6.667,6.667,0,1,1,47.065,296,6.666,6.666,0,0,1,53.731,302.667Zm0,0" transform="translate(-31.666 -234.333)" fill="#75b62f"/>
        <path id="Trazado_176350" data-name="Trazado 176350" d="M33.658,393.37l1.408-.7V386a10,10,0,0,0-10-10H18.4a10,10,0,0,0-10,10v6.667l1.409.7a26.667,26.667,0,0,0,23.85,0Zm0,0" transform="translate(-6.334 -297.667)" fill="#75b62f"/>
        <path id="Trazado_176351" data-name="Trazado 176351" d="M208.731,16.667a8.333,8.333,0,1,1,8.333-8.333A8.334,8.334,0,0,1,208.731,16.667Zm0-13.333a5,5,0,1,0,5,5A5,5,0,0,0,208.731,3.333Zm0,0" transform="translate(-158.333 0)"/>
        <path id="Trazado_176352" data-name="Trazado 176352" d="M183.4,103.5a28.331,28.331,0,0,1-12.666-2.977L168.4,99.356v-7.69A11.68,11.68,0,0,1,180.065,80h6.667A11.68,11.68,0,0,1,198.4,91.667v7.7l-2.333,1.166A28.328,28.328,0,0,1,183.4,103.5Zm-11.667-6.2.487.242a25.1,25.1,0,0,0,22.36,0l.487-.238V91.667a8.343,8.343,0,0,0-8.333-8.333h-6.667a8.344,8.344,0,0,0-8.333,8.333Zm0,0" transform="translate(-133 -63.333)"/>
        <path id="Trazado_176353" data-name="Trazado 176353" d="M208.731,304.667a8.333,8.333,0,1,1,8.333-8.333A8.334,8.334,0,0,1,208.731,304.667Zm0-13.333a5,5,0,1,0,5,5A5,5,0,0,0,208.731,291.333Zm0,0" transform="translate(-158.333 -228)"/>
        <path id="Trazado_176354" data-name="Trazado 176354" d="M183.4,391.5a28.331,28.331,0,0,1-12.666-2.977l-2.334-1.167v-7.69A11.68,11.68,0,0,1,180.065,368h6.667A11.68,11.68,0,0,1,198.4,379.667v7.7l-2.333,1.166A28.328,28.328,0,0,1,183.4,391.5Zm-11.667-6.2.487.242a25.1,25.1,0,0,0,22.36,0l.487-.238v-5.636a8.343,8.343,0,0,0-8.333-8.333h-6.667a8.344,8.344,0,0,0-8.333,8.333Zm0,0" transform="translate(-133 -291.333)"/>
        <path id="Trazado_176355" data-name="Trazado 176355" d="M376.731,304.667a8.333,8.333,0,1,1,8.333-8.333A8.334,8.334,0,0,1,376.731,304.667Zm0-13.333a5,5,0,1,0,5,5A5,5,0,0,0,376.731,291.333Zm0,0" transform="translate(-291.333 -228)"/>
        <path id="Trazado_176356" data-name="Trazado 176356" d="M351.4,391.5a28.331,28.331,0,0,1-12.666-2.977l-2.334-1.167v-7.69A11.68,11.68,0,0,1,348.065,368h6.667A11.68,11.68,0,0,1,366.4,379.667v7.7l-2.333,1.166A28.328,28.328,0,0,1,351.4,391.5Zm-11.667-6.2.487.242a25.1,25.1,0,0,0,22.36,0l.487-.238v-5.636a8.343,8.343,0,0,0-8.333-8.333h-6.667a8.344,8.344,0,0,0-8.333,8.333Zm0,0" transform="translate(-266 -291.333)"/>
        <path id="Trazado_176357" data-name="Trazado 176357" d="M40.732,304.667a8.333,8.333,0,1,1,8.333-8.333A8.334,8.334,0,0,1,40.732,304.667Zm0-13.333a5,5,0,1,0,5,5A5,5,0,0,0,40.732,291.333Zm0,0" transform="translate(-25.333 -228)"/>
        <path id="Trazado_176358" data-name="Trazado 176358" d="M15.4,391.5a28.331,28.331,0,0,1-12.666-2.977L.4,387.356v-7.69A11.68,11.68,0,0,1,12.065,368h6.667A11.68,11.68,0,0,1,30.4,379.667v7.7l-2.333,1.166A28.328,28.328,0,0,1,15.4,391.5ZM3.732,385.3l.487.242a25.1,25.1,0,0,0,22.36,0l.487-.238v-5.636a8.343,8.343,0,0,0-8.333-8.333H12.065a8.344,8.344,0,0,0-8.333,8.333Zm0,0" transform="translate(0 -291.333)"/>
        <path id="Trazado_176359" data-name="Trazado 176359" d="M102.731,213v-5H99.4v5h-35v8.333h3.333v-5H99.4v5h3.333v-5H134.4v5h3.333V213Zm0,0" transform="translate(-50.666 -164.667)"/>
      </g>
    </g>
  </g>
</svg>
