<svg xmlns="http://www.w3.org/2000/svg" width="101.333" height="101.333" viewBox="0 0 101.333 101.333">
  <g id="Grupo_152656" data-name="Grupo 152656" transform="translate(-1022.666 -1928)">
    <g id="XMLID_2337_" transform="translate(1021.666 1945)">
      <g id="Grupo_119445" data-name="Grupo 119445" transform="translate(1 -17)">
        <g id="XMLID_2075_" transform="translate(28.104 15.833)">
          <g id="XMLID_2083_">
            <path id="XMLID_2120_" d="M206.872,116.44H145.211A3.211,3.211,0,0,1,142,113.229V83.211A3.211,3.211,0,0,1,145.211,80h61.661a3.211,3.211,0,0,1,3.211,3.211v30.017A3.211,3.211,0,0,1,206.872,116.44Z" transform="translate(-142 -80)" fill="#75b62f"/>
            <g id="Grupo_119444" data-name="Grupo 119444" transform="translate(0 0)">
              <path id="XMLID_2119_" d="M145.211,228.871H150.7v-.134a8.558,8.558,0,0,0-8.563-8.563H142v5.486A3.211,3.211,0,0,0,145.211,228.871Z" transform="translate(-142 -192.431)" fill="#75b62f"/>
              <path id="XMLID_2118_" d="M447.543,228.871h-5.485v-.134a8.558,8.558,0,0,1,8.563-8.563h.134v5.486A3.211,3.211,0,0,1,447.543,228.871Z" transform="translate(-382.671 -192.431)" fill="#75b62f"/>
              <path id="XMLID_2100_" d="M447.543,80h-5.485v.134A8.558,8.558,0,0,0,450.62,88.7h.134V83.211A3.211,3.211,0,0,0,447.543,80Z" transform="translate(-382.671 -80)" fill="#75b62f"/>
            </g>
          </g>
          <path id="XMLID_2081_" d="M274.958,123.442a9.634,9.634,0,1,1-9.634,9.634A9.634,9.634,0,0,1,274.958,123.442Z" transform="translate(-240.916 -114.844)" fill="#dce736"/>
        </g>
        <path id="XMLID_2145_" d="M98,26h28.7a12.756,12.756,0,0,1,7.789,2.654l10.418,8.033H123.385a4.109,4.109,0,0,0-1.988,7.7l10.182,5.631a4.871,4.871,0,0,1-3.192,9.062l-7.149-1.243a45.412,45.412,0,0,1-18.487-7.7H98Z" transform="translate(-78.604 -20.854)" fill="#ffd4be"/>
        <path id="XMLID_2070_" d="M10,10H27.417V41.667H10Z" transform="translate(-8.021 -8.021)" fill="#f85316"/>
        <g id="XMLID_2175_">
          <path id="XMLID_2223_" d="M65.5,345.157a4.913,4.913,0,0,1,6.932.017l9.621,9.624a17.192,17.192,0,0,0,12.158,5.037h.824a4.9,4.9,0,1,1,0-9.8h12.5l2.585-3.068A16.927,16.927,0,0,1,133,344.173l.288.209v26.064H94.515a25.857,25.857,0,0,1-18.283-7.573L65.479,352.121a4.913,4.913,0,0,1,.016-6.964Z" transform="translate(-51.366 -273.467)" fill="#ffd4be"/>
          <path id="XMLID_2179_" d="M414,342h17.417v31.667H414Z" transform="translate(-332.062 -274.312)" fill="#3d46c2"/>
          <g id="XMLID_350_">
            <path id="XMLID_605_" d="M304.58,254.7a1.978,1.978,0,1,0,1.4-.58A1.991,1.991,0,0,0,304.58,254.7Z" transform="translate(-243.833 -203.825)"/>
            <path id="XMLID_606_" d="M411.358,165.5a1.978,1.978,0,1,0-1.4.58A1.993,1.993,0,0,0,411.358,165.5Z" transform="translate(-327.234 -130.034)"/>
            <path id="XMLID_609_" d="M21.375,33.646V31.271h2.148q1.271.875,2.6,1.663V49.062a5.2,5.2,0,0,0,5.19,5.19H53.24a1.979,1.979,0,1,0,0-3.958H38.616a10.567,10.567,0,0,0-8.532-8.532V35.048a47.6,47.6,0,0,0,12.211,3.89l7.149,1.243a6.792,6.792,0,0,0,2.775-.09,11.612,11.612,0,1,0,.774-13.174L43.75,21.806a2.129,2.129,0,0,1,1.03-3.993h40.9a10.567,10.567,0,0,0,8.532,8.532V41.762a10.566,10.566,0,0,0-8.532,8.532H71.052a1.979,1.979,0,0,0,0,3.958H92.976a5.2,5.2,0,0,0,5.19-5.19V19.045a5.2,5.2,0,0,0-5.19-5.191h-26L57.093,6.233a14.81,14.81,0,0,0-9-3.066H21.375V1.979A1.979,1.979,0,0,0,19.4,0H1.979A1.979,1.979,0,0,0,0,1.979V33.646a1.979,1.979,0,0,0,1.979,1.979H19.4a1.979,1.979,0,0,0,1.979-1.979ZM34.557,50.294H31.315a1.233,1.233,0,0,1-1.232-1.232V45.82A6.609,6.609,0,0,1,34.557,50.294ZM62.146,26.41a7.655,7.655,0,1,1-6.51,11.681,6.829,6.829,0,0,0,.476-8.733,7.637,7.637,0,0,1,6.033-2.948ZM92.976,50.294H89.735a6.609,6.609,0,0,1,4.474-4.474v3.242A1.233,1.233,0,0,1,92.976,50.294Zm1.232-31.249v3.241a6.609,6.609,0,0,1-4.474-4.474h3.242A1.233,1.233,0,0,1,94.208,19.045ZM48.095,7.125a10.832,10.832,0,0,1,6.581,2.243l5.819,4.487H44.78a6.088,6.088,0,0,0-2.946,11.415L52.017,30.9a2.892,2.892,0,0,1-1.9,5.38l-7.149-1.243a43.7,43.7,0,0,1-17.682-7.36,1.979,1.979,0,0,0-1.145-.365H21.375V7.125ZM17.417,31.667H3.958V3.958H17.417Z" transform="translate(0 0)"/>
            <path id="XMLID_748_" d="M142.7,331.157H125.282a1.978,1.978,0,0,0-1.958,1.7,18.908,18.908,0,0,0-22.747,4.813l-1.992,2.364H87.01a6.877,6.877,0,0,0-6.646,8.649,15.191,15.191,0,0,1-4.937-3.308l-9.621-9.624a6.892,6.892,0,1,0-9.747,9.746l10.752,10.752a27.653,27.653,0,0,0,19.683,8.153H123.3v.4a1.979,1.979,0,0,0,1.979,1.979H142.7a1.979,1.979,0,0,0,1.979-1.979V333.136A1.979,1.979,0,0,0,142.7,331.157ZM86.493,360.449a23.72,23.72,0,0,1-16.884-6.993L58.858,342.7a2.933,2.933,0,1,1,4.149-4.148l9.621,9.624A19.046,19.046,0,0,0,86.186,353.8h22.376a1.979,1.979,0,1,0,0-3.958H87.01a2.92,2.92,0,1,1,0-5.84h12.5a1.979,1.979,0,0,0,1.514-.7l2.585-3.069a14.948,14.948,0,0,1,19.7-2.824v23.048Zm54.226,2.375H127.261V335.115H140.72Z" transform="translate(-43.344 -265.449)"/>
          </g>
        </g>
      </g>
    </g>
  </g>
</svg>
