<svg xmlns="http://www.w3.org/2000/svg" xmlns:xlink="http://www.w3.org/1999/xlink" width="545" height="746" viewBox="0 0 545 746">
  <defs>
    <clipPath id="clip-path">
      <circle id="Elipse_13420" data-name="Elipse 13420" cx="52.5" cy="52.5" r="52.5" transform="translate(580 1568)" fill="#75b62f" stroke="#5d9125" stroke-width="2"/>
    </clipPath>
  </defs>
  <g id="Grupo_152714" data-name="Grupo 152714" transform="translate(2558 12061)">
    <g id="Grupo_152695" data-name="Grupo 152695" transform="translate(-3086 -13606)">
      <g id="Rectángulo_43917" data-name="Rectángulo 43917" transform="translate(528 1545)" fill="#cbccdf" stroke="#aaadd9" stroke-width="2" opacity="0.23">
        <rect width="545" height="746" rx="32" stroke="none"/>
        <rect x="1" y="1" width="543" height="744" rx="31" fill="none"/>
      </g>
      <g id="Rectángulo_44196" data-name="Rectángulo 44196" transform="translate(580 1683)" fill="#f8fad6" stroke="#dce736" stroke-width="4">
        <rect width="441" height="60" rx="6" stroke="none"/>
        <rect x="2" y="2" width="437" height="56" rx="4" fill="none"/>
      </g>
      <g id="Rectángulo_44197" data-name="Rectángulo 44197" transform="translate(581 1761)" fill="#f8fad6" stroke="#dce736" stroke-width="4">
        <rect width="440" height="60" rx="6" stroke="none"/>
        <rect x="2" y="2" width="436" height="56" rx="4" fill="none"/>
      </g>
      <g id="Rectángulo_44198" data-name="Rectángulo 44198" transform="translate(581 1840)" fill="#f8fad6" stroke="#dce736" stroke-width="4">
        <rect width="440" height="60" rx="6" stroke="none"/>
        <rect x="2" y="2" width="436" height="56" rx="4" fill="none"/>
      </g>
      <g id="Rectángulo_44204" data-name="Rectángulo 44204" transform="translate(581 2197)" fill="#f8fad6" stroke="#dce736" stroke-width="4">
        <rect width="440" height="60" rx="6" stroke="none"/>
        <rect x="2" y="2" width="436" height="56" rx="4" fill="none"/>
      </g>
      <g id="Rectángulo_44201" data-name="Rectángulo 44201" transform="translate(581 2118)" fill="#eaf4e0" stroke="#cfe5b6" stroke-width="4">
        <rect width="261" height="60" rx="6" stroke="none"/>
        <rect x="2" y="2" width="257" height="56" rx="4" fill="none"/>
      </g>
      <g id="Rectángulo_44203" data-name="Rectángulo 44203" transform="translate(853 2118)" fill="#eaf4e0" stroke="#cfe5b6" stroke-width="4">
        <rect width="168" height="60" rx="6" stroke="none"/>
        <rect x="2" y="2" width="164" height="56" rx="4" fill="none"/>
      </g>
      <g id="Rectángulo_44199" data-name="Rectángulo 44199" transform="translate(581 1923)" fill="#eaf4e0" stroke="#cfe5b6" stroke-width="4">
        <rect width="261" height="178.176" rx="6" stroke="none"/>
        <rect x="2" y="2" width="257" height="174.176" rx="4" fill="none"/>
      </g>
      <g id="Rectángulo_44200" data-name="Rectángulo 44200" transform="translate(853 1923)" fill="#eaf4e0" stroke="#cfe5b6" stroke-width="4">
        <rect width="168" height="178.176" rx="6" stroke="none"/>
        <rect x="2" y="2" width="164" height="174.176" rx="4" fill="none"/>
      </g>
      <g id="Elipse_12781" data-name="Elipse 12781" transform="translate(580 1568)" fill="#75b62f" stroke="#5d9125" stroke-width="2">
        <circle cx="52.5" cy="52.5" r="52.5" stroke="none"/>
        <circle cx="52.5" cy="52.5" r="51.5" fill="none"/>
      </g>
    </g>
    <g id="Grupo_152696" data-name="Grupo 152696" transform="translate(-2497 -11914.667)">
      <text id="_1" data-name="1" transform="translate(23 30.667)" fill="#12263f" font-size="24" font-family="Roboto-Black, Roboto" font-weight="800"><tspan x="-6.949" y="0">1</tspan></text>
    </g>
    <g id="Grupo_152697" data-name="Grupo 152697" transform="translate(-2497 -11836.668)">
      <text id="_2" data-name="2" transform="translate(23 30.667)" fill="#12263f" font-size="24" font-family="Roboto-Black, Roboto" font-weight="800"><tspan x="-6.949" y="0">2</tspan></text>
    </g>
    <g id="Grupo_152698" data-name="Grupo 152698" transform="translate(-2497 -11758.666)">
      <text id="_3" data-name="3" transform="translate(23 30.667)" fill="#12263f" font-size="24" font-family="Roboto-Black, Roboto" font-weight="800"><tspan x="-6.949" y="0">3</tspan></text>
    </g>
    <g id="Grupo_152699" data-name="Grupo 152699" transform="translate(-2236 -11615.667)">
      <text id="_5" data-name="5" transform="translate(23 30.667)" fill="#12263f" font-size="24" font-family="Roboto-Black, Roboto" font-weight="800"><tspan x="-6.949" y="0">5</tspan></text>
    </g>
    <g id="Grupo_152700" data-name="Grupo 152700" transform="translate(-2497 -11480.667)">
      <text id="_6" data-name="6" transform="translate(23 30.667)" fill="#12263f" font-size="24" font-family="Roboto-Black, Roboto" font-weight="800"><tspan x="-6.949" y="0">6</tspan></text>
    </g>
    <g id="Grupo_152701" data-name="Grupo 152701" transform="translate(-2236 -11480.668)">
      <text id="_7" data-name="7" transform="translate(23 30.667)" fill="#12263f" font-size="24" font-family="Roboto-Black, Roboto" font-weight="800"><tspan x="-6.949" y="0">7</tspan></text>
    </g>
    <g id="Grupo_152702" data-name="Grupo 152702" transform="translate(-2497 -11401.666)">
      <text id="_8" data-name="8" transform="translate(23 30.667)" fill="#12263f" font-size="24" font-family="Roboto-Black, Roboto" font-weight="800"><tspan x="-6.949" y="0">8</tspan></text>
    </g>
    <text id="_4" data-name="4" transform="translate(-2474 -11585)" fill="#12263f" font-size="24" font-family="Roboto-Black, Roboto" font-weight="800"><tspan x="-6.949" y="0">4</tspan></text>
    <g id="Enmascarar_grupo_202" data-name="Enmascarar grupo 202" transform="translate(-3086 -13606)" clip-path="url(#clip-path)">
      <g id="Grupo_152713" data-name="Grupo 152713" transform="translate(4070.113 12630.726)">
        <g id="Grupo_152704" data-name="Grupo 152704" transform="translate(-3445.468 -10970.048)">
          <path id="Trazado_208508" data-name="Trazado 208508" d="M29.242,50l3.081,12.323H20L23.081,50Z" transform="translate(-20 -50)" fill="#f85316" stroke="#000" stroke-width="1"/>
        </g>
        <g id="Grupo_152705" data-name="Grupo 152705" transform="translate(-3445.468 -10982.37)">
          <path id="Trazado_208509" data-name="Trazado 208509" d="M32.323,52.161l-3.081,6.161H23.081L20,52.161,26.161,46Z" transform="translate(-20 -46)" fill="#f85316" stroke="#000" stroke-width="1"/>
        </g>
        <g id="Grupo_152706" data-name="Grupo 152706" transform="translate(-3470.113 -10986.067)">
          <path id="Trazado_208510" data-name="Trazado 208510" d="M39.726,60.819,36.645,73.142H12V67.2A24.983,24.983,0,0,1,25.8,44.8l7.763,12.939,3.081-3.081Z" transform="translate(-12 -44.8)" fill="#dce736" stroke="#000" stroke-width="1"/>
        </g>
        <g id="Grupo_152707" data-name="Grupo 152707" transform="translate(-3436.226 -10986.067)">
          <path id="Trazado_208511" data-name="Trazado 208511" d="M29.161,57.739,36.925,44.8a24.983,24.983,0,0,1,13.8,22.4v5.946H26.081L23,60.819l3.081-6.161Z" transform="translate(-23 -44.8)" fill="#dce736" stroke="#000" stroke-width="1"/>
        </g>
        <g id="Grupo_152708" data-name="Grupo 152708" transform="translate(-3439.307 -10988.532)">
          <path id="Trazado_208512" data-name="Trazado 208512" d="M39.005,46.434v.031L31.242,59.4l-3.081-3.081L22,50.161,31.242,44A25.117,25.117,0,0,1,39.005,46.434Z" transform="translate(-22 -44)" fill="#dce736" stroke="#000" stroke-width="1"/>
        </g>
        <g id="Grupo_152709" data-name="Grupo 152709" transform="translate(-3456.312 -10988.532)">
          <path id="Trazado_208513" data-name="Trazado 208513" d="M33.485,50.161l-6.161,6.161L24.243,59.4,16.48,46.465v-.031A25.117,25.117,0,0,1,24.243,44Z" transform="translate(-16.48 -44)" fill="#dce736" stroke="#000" stroke-width="1"/>
        </g>
        <g id="Grupo_152710" data-name="Grupo 152710" transform="translate(-3463.952 -11043.983)">
          <path id="Trazado_208514" data-name="Trazado 208514" d="M62.089,54.28a23.781,23.781,0,0,1-6.161,9.673L53.74,66.048l-.092-.031a11.044,11.044,0,0,0,.4-3.05V58.316a5.579,5.579,0,0,0-4.5-5.484A27,27,0,0,1,32.484,41.4l-3.758,2.5a12.332,12.332,0,0,0-5.484,10.259v8.811a11.044,11.044,0,0,0,.4,3.05l-.092.031-2.187-2.095A23.53,23.53,0,0,1,14,46.794v-2.31A18.484,18.484,0,0,1,32.484,26H44.806a18.491,18.491,0,0,1,8.256,1.941,17.986,17.986,0,0,1,6.531,5.453,18.46,18.46,0,0,1,3.7,11.09v2.31A23.656,23.656,0,0,1,62.089,54.28Z" transform="translate(-14 -26)" fill="#12263f" stroke="#000" stroke-width="1"/>
        </g>
        <g id="Grupo_152711" data-name="Grupo 152711" transform="translate(-3448.549 -10995.524)">
          <path id="Trazado_208515" data-name="Trazado 208515" d="M37.484,48.723l-9.242,6.161L19,48.723l1.756-6.962V41.73a11.56,11.56,0,0,0,4.405.832h6.161a11.56,11.56,0,0,0,4.405-.832v.031Z" transform="translate(-19 -41.73)" fill="#f0d0b4" stroke="#000" stroke-width="1"/>
        </g>
        <g id="Grupo_152712" data-name="Grupo 152712" transform="translate(-3454.71 -11028.58)">
          <path id="Trazado_208516" data-name="Trazado 208516" d="M47.806,47.913v4.652a11.044,11.044,0,0,1-.4,3.05,12.31,12.31,0,0,1-7.517,8.441,11.56,11.56,0,0,1-4.405.832H29.323a11.56,11.56,0,0,1-4.405-.832A12.31,12.31,0,0,1,17.4,55.614a11.044,11.044,0,0,1-.4-3.05V43.754A12.332,12.332,0,0,1,22.484,33.5L26.242,31A27,27,0,0,0,43.309,42.429,5.579,5.579,0,0,1,47.806,47.913Z" transform="translate(-17 -31)" fill="#f0d0b4" stroke="#000" stroke-width="1"/>
        </g>
      </g>
    </g>
  </g>
</svg>
