<svg xmlns="http://www.w3.org/2000/svg" width="63.983" height="70.959" viewBox="0 0 63.983 70.959">
  <g id="Grupo_152690" data-name="Grupo 152690" transform="translate(-328.018 -6039.379)">
    <g id="Capa_1" data-name="Capa 1" transform="translate(328.018 6039.379)">
      <g id="Grupo_116309" data-name="Grupo 116309">
        <g id="Grupo_116308" data-name="Grupo 116308">
          <rect id="Rectángulo_42822" data-name="Rectángulo 42822" width="44.567" height="58.469" rx="8" transform="translate(5.318 5.273)" fill="#3d46c2"/>
          <path id="Trazado_171009" data-name="Trazado 171009" d="M50.912,69.227H14.706a4.191,4.191,0,0,1-4.186-4.186V14.706a4.191,4.191,0,0,1,4.186-4.186H50.912A4.191,4.191,0,0,1,55.1,14.706V65.041A4.191,4.191,0,0,1,50.912,69.227ZM14.706,12.648a2.064,2.064,0,0,0-2.063,2.057V65.041A2.06,2.06,0,0,0,14.706,67.1H50.912a2.064,2.064,0,0,0,2.063-2.058V14.706a2.06,2.06,0,0,0-2.063-2.057Z" transform="translate(-5.202 -5.202)"/>
          <rect id="Rectángulo_42823" data-name="Rectángulo 42823" width="42.454" height="56.579" rx="5" transform="translate(1.062 1.062)" fill="#dbe636"/>
          <path id="Trazado_171010" data-name="Trazado 171010" d="M40.392,58.707H4.186A4.191,4.191,0,0,1,0,54.521V4.186A4.194,4.194,0,0,1,4.186,0H40.392a4.191,4.191,0,0,1,4.186,4.186v50.33A4.191,4.191,0,0,1,40.392,58.7ZM4.186,2.128A2.064,2.064,0,0,0,2.123,4.186v50.33a2.06,2.06,0,0,0,2.063,2.057H40.392a2.064,2.064,0,0,0,2.063-2.057V4.186a2.06,2.06,0,0,0-2.063-2.058H4.186Z"/>
          <path id="Trazado_171011" data-name="Trazado 171011" d="M43.1,19.113H23.062a1.062,1.062,0,0,1,0-2.123H43.1a1.062,1.062,0,0,1,0,2.123Z" transform="translate(-10.878 -8.401)"/>
          <path id="Trazado_171012" data-name="Trazado 171012" d="M43.189,35.243H14.642a1.062,1.062,0,0,1,0-2.123H43.184a1.062,1.062,0,0,1,0,2.123Z" transform="translate(-6.715 -16.377)"/>
          <path id="Trazado_171013" data-name="Trazado 171013" d="M43.189,51.723H14.642a1.062,1.062,0,1,1,0-2.123H43.184a1.062,1.062,0,0,1,0,2.123Z" transform="translate(-6.715 -24.526)"/>
          <path id="Trazado_171014" data-name="Trazado 171014" d="M43.189,68.2H14.642a1.062,1.062,0,0,1,0-2.123H43.184a1.062,1.062,0,0,1,0,2.123Z" transform="translate(-6.715 -32.675)"/>
          <path id="Trazado_171015" data-name="Trazado 171015" d="M43.189,84.343H14.642a1.062,1.062,0,0,1,0-2.123H43.184a1.062,1.062,0,0,1,0,2.123Z" transform="translate(-6.715 -40.655)"/>
          <path id="Trazado_171016" data-name="Trazado 171016" d="M43.189,100.123H14.642a1.062,1.062,0,1,1,0-2.123H43.184a1.062,1.062,0,1,1,0,2.123Z" transform="translate(-6.715 -48.458)"/>
        </g>
        <path id="Trazado_205744" data-name="Trazado 205744" d="M12.133,0A12.133,12.133,0,1,1,0,12.133,12.133,12.133,0,0,1,12.133,0Z" transform="translate(33.168 41.155)" fill="#f85316"/>
        <path id="Trazado_171017" data-name="Trazado 171017" d="M74.278,72.41A16.318,16.318,0,1,0,90.6,88.728,16.317,16.317,0,0,0,74.278,72.41Zm0,27.2A2.72,2.72,0,1,1,77,96.888,2.721,2.721,0,0,1,74.278,99.607Zm1.36-8.159h-2.72l-1.36-13.6H77Z" transform="translate(-28.66 -35.805)" fill="#f75316" stroke="#f75316" stroke-miterlimit="10" stroke-width="0.5"/>
        <circle id="Elipse_6048" data-name="Elipse 6048" cx="16.177" cy="16.177" r="16.177" transform="translate(29.629 36.605)" fill="none" stroke="#000" stroke-miterlimit="10" stroke-width="4"/>
        <g id="Unión_13" data-name="Unión 13" transform="translate(37.063 44.557)" fill="#fff">
          <path d="M 1.77055037021637 15.95148944854736 C 1.422490358352661 15.95150947570801 1.097880363464355 15.81382942199707 0.8565203547477722 15.56381988525391 C 0.3697603344917297 15.06029987335205 0.3837703466415405 14.25465965270996 0.8875203132629395 13.76768970489502 L 6.253940105438232 8.585490226745605 L 6.626410484313965 8.225810050964355 L 6.253920555114746 7.866129875183105 L 0.8873103260993958 2.684109926223755 C 0.3837703466415405 2.197339773178101 0.3697603344917297 1.39169979095459 0.856290340423584 0.8884198069572449 C 1.097840309143066 0.6378898024559021 1.422090291976929 0.5001798272132874 1.769760370254517 0.5001798272132874 C 2.100630283355713 0.5001798272132874 2.414180278778076 0.62680983543396 2.652650356292725 0.8567398190498352 L 8.10753059387207 6.124709606170654 L 8.454860687255859 6.460139751434326 L 8.802200317382812 6.124719619750977 L 14.25773048400879 0.8564698100090027 C 14.49548053741455 0.6269398331642151 14.80854034423828 0.5005098581314087 15.13920021057129 0.5005098581314087 C 15.48718070983887 0.5005098581314087 15.81199073791504 0.63826984167099 16.05381011962891 0.8884198069572449 C 16.53965950012207 1.391669869422913 16.52535057067871 2.197409868240356 16.02168083190918 2.684309720993042 L 10.65579032897949 7.866339683532715 L 10.28337001800537 8.22599983215332 L 10.65579032897949 8.585659980773926 L 16.02186012268066 13.76785945892334 C 16.52587127685547 14.25382995605469 16.53988075256348 15.05947017669678 16.05335998535156 15.56404972076416 C 15.81208992004395 15.81363010406494 15.48743057250977 15.95135021209717 15.13963031768799 15.95137023925781 C 14.80891990661621 15.95139026641846 14.49579048156738 15.8247594833374 14.25792026519775 15.59480953216553 L 8.802450180053711 10.32699966430664 L 8.455120086669922 9.991620063781738 L 8.107800483703613 10.32703018188477 L 2.652360439300537 15.59554004669189 C 2.414650440216064 15.82502937316895 2.101450443267822 15.95146942138672 1.770540356636047 15.95148944854736 L 1.77055037021637 15.95148944854736 Z" stroke="none"/>
          <path d="M 1.770530343055725 15.45148944854736 L 1.770500302314758 15.45148944854736 C 1.971190333366394 15.4514799118042 2.161060333251953 15.37485980987549 2.305020332336426 15.23587989807129 L 8.455090522766113 9.296540260314941 L 14.60544013977051 15.23532962799072 C 14.7495698928833 15.37465953826904 14.93926048278809 15.45137977600098 15.13960075378418 15.45137023925781 C 15.35065078735352 15.45135974884033 15.54765033721924 15.36779022216797 15.69342041015625 15.21700000762939 C 15.83654022216797 15.06857013702393 15.91338062286377 14.87345027923584 15.90980052947998 14.66757965087891 C 15.90622997283936 14.4621696472168 15.82288074493408 14.2705602645874 15.67452049255371 14.12751960754395 L 9.563610076904297 8.22599983215332 L 15.67416000366211 2.324829816818237 C 15.97974014282227 2.029419898986816 15.98858070373535 1.540729880332947 15.6943302154541 1.235939860343933 C 15.5475606918335 1.08411979675293 15.35041046142578 1.000509858131409 15.13920021057129 1.000509858131409 C 14.93878078460693 1.000509858131409 14.74905014038086 1.077119827270508 14.6050500869751 1.216149806976318 L 8.454850196838379 7.155220031738281 L 2.305590391159058 1.216669797897339 C 2.160800218582153 1.077069878578186 1.970510363578796 1.000179886817932 1.769760370254517 1.000179886817932 C 1.559100389480591 1.000179886817932 1.362680315971375 1.083569884300232 1.215770363807678 1.235939860343933 C 0.9208703637123108 1.540999889373779 0.9295103549957275 2.029469728469849 1.234630346298218 2.324429750442505 L 7.346210479736328 8.225799560546875 L 1.235040307044983 14.12716960906982 C 0.9295103549957275 14.42253017425537 0.9208703637123108 14.91100025177002 1.216230392456055 15.21653938293457 C 1.362520337104797 15.36806011199951 1.559370279312134 15.45149993896484 1.770530343055725 15.45148944854736 M 1.770570278167725 16.45149040222168 C 1.306940317153931 16.45150947570801 0.8439703583717346 16.27070045471191 0.4968003332614899 15.91109943389893 C -0.1826996654272079 15.2081995010376 -0.1628996729850769 14.08769989013672 0.540000319480896 13.40820026397705 L 5.906610488891602 8.22581958770752 L 0.540000319480896 3.043799877166748 C -0.1628996729850769 2.364299774169922 -0.1826996654272079 1.243799805641174 0.4968003332614899 0.5408998131752014 C 1.175400257110596 -0.1629000604152679 2.295900344848633 -0.1818002611398697 2.999700307846069 0.4967998266220093 L 8.454870223999023 5.765049934387207 L 13.910400390625 0.4967998266220093 C 14.61330223083496 -0.1818001270294189 15.73380088806152 -0.1620002239942551 16.41329956054688 0.5408998131752014 C 17.09189987182617 1.243799805641174 17.07209968566895 2.364299774169922 16.36919975280762 3.043799877166748 L 11.00312995910645 8.22599983215332 L 16.36919975280762 13.40820026397705 C 17.07299995422363 14.08679962158203 17.09189987182617 15.20730018615723 16.41329956054688 15.91109943389893 C 15.73379993438721 16.61400032043457 14.61330032348633 16.63379669189453 13.910400390625 15.95429992675781 L 8.455140113830566 10.68668937683105 L 2.999700307846069 15.9552001953125 C 2.656400442123413 16.28663063049316 2.213180303573608 16.45145988464355 1.770570278167725 16.45149040222168 Z" stroke="none" fill="#0a0a0a"/>
        </g>
      </g>
    </g>
  </g>
</svg>
