<svg xmlns="http://www.w3.org/2000/svg" xmlns:xlink="http://www.w3.org/1999/xlink" width="121" height="121" viewBox="0 0 121 121">
  <defs>
    <clipPath id="clip-path">
      <circle id="Elipse_13268" data-name="Elipse 13268" cx="57" cy="57" r="57" transform="translate(717.792 6121.163)" fill="#fff"/>
    </clipPath>
    <clipPath id="clip-path-2">
      <rect id="Rectángulo_44416" data-name="Rectángulo 44416" width="122.928" height="86.05" fill="none"/>
    </clipPath>
    <clipPath id="clip-path-3">
      <path id="SVGID" d="M254.946,1886.9c1.614-1.215,3.856-1.748,5-1.192s.77,1.994-.844,3.208-3.855,1.749-5,1.192S253.331,1888.113,254.946,1886.9Z" transform="translate(-253.437 -1885.487)" fill="#dce736" stroke="#000" stroke-width="0.2"/>
    </clipPath>
    <clipPath id="clip-path-4">
      <path id="SVGID-2" data-name="SVGID" d="M298.389,1827.591c.511-1.955.155-4.231-.8-5.083s-2.137.044-2.648,2-.155,4.231.8,5.083S297.878,1829.546,298.389,1827.591Z" transform="translate(-294.712 -1822.186)" fill="#dce736" stroke="#000" stroke-width="0.2"/>
    </clipPath>
    <clipPath id="clip-path-5">
      <path id="SVGID-3" data-name="SVGID" d="M340.168,1859.352c1.329,1.522,3.412,2.507,4.65,2.2s1.165-1.792-.163-3.313-3.411-2.508-4.65-2.2S338.839,1857.831,340.168,1859.352Z" transform="translate(-339.122 -1855.983)" fill="#dce736" stroke="#000" stroke-width="0.2"/>
    </clipPath>
    <clipPath id="clip-path-6">
      <path id="SVGID-4" data-name="SVGID" d="M299.051,1886.986c1.989-.354,3.908-1.63,4.283-2.85s-.934-1.922-2.923-1.569-3.907,1.629-4.283,2.85S297.062,1887.339,299.051,1886.986Z" transform="translate(-296.063 -1882.476)" fill="#dce736" stroke="#000" stroke-width="0.2"/>
    </clipPath>
    <clipPath id="clip-path-7">
      <path id="SVGID-5" data-name="SVGID" d="M295.128,1937.7c2.02.036,4.115.995,4.678,2.14s-.62,2.045-2.64,2.009-4.115-.994-4.678-2.14S293.108,1937.667,295.128,1937.7Z" transform="translate(-292.348 -1937.702)" fill="#dce736" stroke="#000" stroke-width="0.2"/>
    </clipPath>
    <clipPath id="clip-path-8">
      <path id="SVGID-6" data-name="SVGID" d="M324.838,1912.615c1.615-1.215,3.856-1.748,5-1.192s.77,1.994-.844,3.208-3.855,1.749-5,1.192S323.223,1913.829,324.838,1912.615Z" transform="translate(-323.329 -1911.203)" fill="#dce736" stroke="#000" stroke-width="0.2"/>
    </clipPath>
  </defs>
  <g id="Grupo_152744" data-name="Grupo 152744" transform="translate(-735.828 -5924.506)">
    <g id="Grupo_152646" data-name="Grupo 152646">
      <g id="Grupo_116481" data-name="Grupo 116481" transform="translate(-3.172 -688.494)">
        <g id="Grupo_116260" data-name="Grupo 116260" transform="translate(0 64)">
          <g id="Elipse_6003" data-name="Elipse 6003" transform="translate(739 6549)" fill="#fff" stroke="#77b43a" stroke-width="4">
            <circle cx="60.5" cy="60.5" r="60.5" stroke="none"/>
            <circle cx="60.5" cy="60.5" r="58.5" fill="none"/>
          </g>
        </g>
      </g>
      <g id="Enmascarar_grupo_195" data-name="Enmascarar grupo 195" transform="translate(21 -192.658)" clip-path="url(#clip-path)">
        <g id="Grupo_151359" data-name="Grupo 151359" transform="translate(713.828 4426.258)">
          <g id="Grupo_151358" data-name="Grupo 151358" transform="translate(0 1702.918)">
            <g id="Grupo_151357" data-name="Grupo 151357" transform="translate(0 0)" clip-path="url(#clip-path-2)">
              <path id="Trazado_204035" data-name="Trazado 204035" d="M326.67,1883.088h20.521s-.586-2.931-2.052-3.078-2.785,1.612-2.785,1.612.293-4.25-1.612-4.544-4.1,3.958-4.1,3.958,0-1.906-1.759-2.052-3.225,2.052-3.225,2.052a2.2,2.2,0,0,0-1.759-1.026C328.576,1879.864,326.67,1883.088,326.67,1883.088Z" transform="translate(-245.914 -1834.014)" fill="#fff"/>
              <g id="Grupo_151309" data-name="Grupo 151309" transform="translate(21.41 37.745)">
                <path id="Trazado_204074" data-name="Trazado 204074" d="M86.608,1896.091l41.75.169,1.819-32.828-41.75-.169Z" transform="translate(-86.608 -1861.369)" fill="#dce736" stroke="#000" stroke-width="1"/>
                <path id="Trazado_204075" data-name="Trazado 204075" d="M95.923,1896.106l41.75.169-2.115-32.844-41.75-.169Z" transform="translate(-92.028 -1861.369)" fill="#75b62f" stroke="#000" stroke-width="1"/>
                <path id="Trazado_204076" data-name="Trazado 204076" d="M112.389,1880.419l.291,4.545,5.489.042.389-.271-.275-3.978-.505-.4Z" transform="translate(-106.015 -1874.237)" fill="#f85316" stroke="#000" stroke-width="0.5"/>
                <g id="Grupo_151297" data-name="Grupo 151297" transform="translate(5.86 5.764)">
                  <path id="Trazado_204077" data-name="Trazado 204077" d="M112.049,1904.052l33.968.138-1.738-25.135-33.968-.138Zm33.366-.427-32.841-.133-1.66-24.012,32.842.133Z" transform="translate(-110.311 -1878.917)" fill="#3d46c2" stroke="#000" stroke-width="0.5"/>
                </g>
                <path id="Trazado_204078" data-name="Trazado 204078" d="M252.9,1860.023a.6.6,0,0,0,.6-.6l.011-2.608a.6.6,0,0,0-1.2,0l-.01,2.608A.6.6,0,0,0,252.9,1860.023Z" transform="translate(-211.342 -1856.065)" fill="#f85316" stroke="#000" stroke-width="0.5"/>
                <path id="Trazado_204079" data-name="Trazado 204079" d="M239.075,1859.967a.6.6,0,0,0,.6-.6l.011-2.608a.6.6,0,1,0-1.2,0l-.01,2.608A.6.6,0,0,0,239.075,1859.967Z" transform="translate(-200.934 -1856.022)" fill="#f85316" stroke="#000" stroke-width="0.5"/>
                <path id="Trazado_204080" data-name="Trazado 204080" d="M225.249,1859.911a.6.6,0,0,0,.6-.6l.011-2.608a.6.6,0,1,0-1.2,0l-.011,2.608A.6.6,0,0,0,225.249,1859.911Z" transform="translate(-190.526 -1855.98)" fill="#f85316" stroke="#000" stroke-width="0.5"/>
                <path id="Trazado_204081" data-name="Trazado 204081" d="M211.424,1859.855a.6.6,0,0,0,.6-.6l.011-2.608a.6.6,0,1,0-1.2,0l-.01,2.608A.6.6,0,0,0,211.424,1859.855Z" transform="translate(-180.119 -1855.938)" fill="#f85316" stroke="#000" stroke-width="0.5"/>
                <path id="Trazado_204082" data-name="Trazado 204082" d="M197.6,1859.8a.6.6,0,0,0,.6-.6l.01-2.608a.6.6,0,1,0-1.2,0L197,1859.2A.6.6,0,0,0,197.6,1859.8Z" transform="translate(-169.711 -1855.896)" fill="#f85316" stroke="#000" stroke-width="0.5"/>
                <path id="Trazado_204083" data-name="Trazado 204083" d="M183.772,1859.743a.6.6,0,0,0,.6-.6l.011-2.608a.6.6,0,1,0-1.2,0l-.01,2.608A.6.6,0,0,0,183.772,1859.743Z" transform="translate(-159.303 -1855.854)" fill="#f85316" stroke="#000" stroke-width="0.5"/>
                <path id="Trazado_204084" data-name="Trazado 204084" d="M169.947,1859.687a.6.6,0,0,0,.6-.6l.01-2.608a.6.6,0,0,0-1.2,0l-.011,2.608A.6.6,0,0,0,169.947,1859.687Z" transform="translate(-148.895 -1855.812)" fill="#f85316" stroke="#000" stroke-width="0.5"/>
                <path id="Trazado_204085" data-name="Trazado 204085" d="M156.121,1859.631a.6.6,0,0,0,.6-.6l.01-2.608a.6.6,0,1,0-1.2,0l-.011,2.608A.6.6,0,0,0,156.121,1859.631Z" transform="translate(-138.487 -1855.77)" fill="#f85316" stroke="#000" stroke-width="0.5"/>
                <path id="Trazado_204086" data-name="Trazado 204086" d="M142.3,1859.575a.6.6,0,0,0,.6-.6l.011-2.608a.6.6,0,1,0-1.2,0l-.011,2.608A.6.6,0,0,0,142.3,1859.575Z" transform="translate(-128.08 -1855.727)" fill="#f85316" stroke="#000" stroke-width="0.5"/>
                <path id="Trazado_204087" data-name="Trazado 204087" d="M128.47,1859.519a.6.6,0,0,0,.6-.6l.011-2.608a.6.6,0,0,0-1.2,0l-.011,2.608A.6.6,0,0,0,128.47,1859.519Z" transform="translate(-117.672 -1855.686)" fill="#f85316" stroke="#000" stroke-width="0.5"/>
                <path id="Trazado_204088" data-name="Trazado 204088" d="M114.643,1859.463a.6.6,0,0,0,.6-.6l.011-2.608a.6.6,0,0,0-1.2,0l-.011,2.608A.6.6,0,0,0,114.643,1859.463Z" transform="translate(-107.264 -1855.643)" fill="#f85316" stroke="#000" stroke-width="0.5"/>
                <path id="Trazado_204089" data-name="Trazado 204089" d="M100.819,1859.407a.6.6,0,0,0,.6-.6l.011-2.608a.6.6,0,1,0-1.2,0l-.011,2.608A.6.6,0,0,0,100.819,1859.407Z" transform="translate(-96.856 -1855.601)" fill="#f85316" stroke="#000" stroke-width="0.5"/>
                <g id="Grupo_151298" data-name="Grupo 151298" transform="translate(6.596 10.565)">
                  <rect id="Rectángulo_44407" data-name="Rectángulo 44407" width="0.562" height="33.405" transform="translate(0 0.562) rotate(-89.768)" fill="#3d46c2" stroke="#000" stroke-width="0.5"/>
                </g>
                <g id="Grupo_151299" data-name="Grupo 151299" transform="translate(6.731 15.654)">
                  <rect id="Rectángulo_44408" data-name="Rectángulo 44408" width="0.562" height="33.405" transform="matrix(0.004, -1, 1, 0.004, 0, 0.562)" fill="#3d46c2" stroke="#000" stroke-width="0.5"/>
                </g>
                <g id="Grupo_151300" data-name="Grupo 151300" transform="translate(7.329 20.745)">
                  <rect id="Rectángulo_44409" data-name="Rectángulo 44409" width="0.562" height="33.405" transform="translate(0 0.562) rotate(-89.768)" fill="#3d46c2" stroke="#000" stroke-width="0.5"/>
                </g>
                <g id="Grupo_151301" data-name="Grupo 151301" transform="translate(7.465 25.289)">
                  <rect id="Rectángulo_44410" data-name="Rectángulo 44410" width="0.562" height="33.405" transform="translate(0 0.562) rotate(-89.768)" fill="#3d46c2" stroke="#000" stroke-width="0.5"/>
                </g>
                <g id="Grupo_151302" data-name="Grupo 151302" transform="translate(33.713 6.141)">
                  <rect id="Rectángulo_44411" data-name="Rectángulo 44411" width="0.562" height="24.623" transform="translate(0 0.036) rotate(-3.654)" fill="#3d46c2" stroke="#000" stroke-width="0.5"/>
                </g>
                <g id="Grupo_151303" data-name="Grupo 151303" transform="translate(28.482 6.12)">
                  <rect id="Rectángulo_44412" data-name="Rectángulo 44412" width="0.562" height="24.623" transform="translate(0 0.036) rotate(-3.659)" fill="#3d46c2" stroke="#000" stroke-width="0.5"/>
                </g>
                <g id="Grupo_151304" data-name="Grupo 151304" transform="translate(23.14 6.098)">
                  <rect id="Rectángulo_44413" data-name="Rectángulo 44413" width="0.562" height="24.623" transform="translate(0 0.036) rotate(-3.659)" fill="#3d46c2" stroke="#000" stroke-width="0.5"/>
                </g>
                <g id="Grupo_151305" data-name="Grupo 151305" transform="translate(17.912 6.077)">
                  <rect id="Rectángulo_44414" data-name="Rectángulo 44414" width="0.562" height="24.623" transform="translate(0 0.036) rotate(-3.654)" fill="#3d46c2" stroke="#000" stroke-width="0.5"/>
                </g>
                <g id="Grupo_151306" data-name="Grupo 151306" transform="translate(11.964 6.053)">
                  <rect id="Rectángulo_44415" data-name="Rectángulo 44415" width="0.562" height="24.623" transform="matrix(0.998, -0.064, 0.064, 0.998, 0, 0.036)" fill="#3d46c2" stroke="#000" stroke-width="0.5"/>
                </g>
                <g id="Grupo_151308" data-name="Grupo 151308" transform="translate(8.368 6.685)">
                  <g id="Grupo_151307" data-name="Grupo 151307">
                    <path id="Trazado_204090" data-name="Trazado 204090" d="M122.386,1885.642l-.068.522h-1.86l.068-.522h.611l.222-1.831c0-.042.011-.084.018-.127s.015-.086.023-.129l-.386.336a.281.281,0,0,1-.108.048.241.241,0,0,1-.094,0,.2.2,0,0,1-.074-.03.155.155,0,0,1-.046-.046l-.188-.3,1.128-.918h.6l-.367,3Z" transform="translate(-120.459 -1882.644)" fill="#fff"/>
                  </g>
                </g>
              </g>
              <g id="Grupo_151356" data-name="Grupo 151356" transform="translate(60.537 29.484)">
                <g id="Grupo_151317" data-name="Grupo 151317" transform="translate(0 21.711)">
                  <g id="Grupo_151310" data-name="Grupo 151310">
                    <path id="Unión_14" data-name="Unión 14" d="M4587.423,5886.313c-2.116.866-14.82-.406-14.82-.406s-6.336-1.274-9.009-1.42a24.634,24.634,0,0,1-6.646-1.837.914.914,0,0,1-.273-1.026.555.555,0,0,1,.492-.272l-2.306-1.837c-.791-.755.674-1.744,1.565-1.809,1.245-.093,4.791,1.422,4.791,1.422l6.267-1.295,4.015.012s3.685-1.765,3.719-1.889c.139-.492-1.635-1.27-2.37-1.715s-5.8-1.8-7.061-2.65-2.455-2.807-1.293-3.231,5.055,1.109,6.1,1.312,8.767,1.185,11.917,1.954c2.517.614,8.344,6.072,8.344,6.072l8.716,2.7-2.1,9.2Z" transform="translate(-4554.635 -5868.287)" fill="#f79e86" stroke="#000" stroke-width="1"/>
                  </g>
                  <g id="Grupo_151311" data-name="Grupo 151311" transform="translate(2.366 11.813)">
                    <path id="Trazado_204093" data-name="Trazado 204093" d="M269.424,1960.2a27.5,27.5,0,0,0,2.946-.628c2.736-.647,6.482-1.543,7.763-1.447a18.26,18.26,0,0,1,3.181.453.165.165,0,1,0,.086-.319,18.186,18.186,0,0,0-3.245-.465c-1.337-.079-5.1.8-7.861,1.456-1.4.331-2.611.617-2.867.619-.564,0-8.052-.591-8.128-.6-.082-.022-2.607-.631-3.149-.682a12.344,12.344,0,0,0-3.574.292.165.165,0,1,0,.079.321,12.31,12.31,0,0,1,3.464-.283c.519.049,3.1.672,3.129.678C261.582,1959.632,268.849,1960.2,269.424,1960.2Z" transform="translate(-254.449 -1957.794)" fill="#e0745c" stroke="#000" stroke-width="0.5"/>
                  </g>
                  <path id="Trazado_204094" data-name="Trazado 204094" d="M265.785,1937.178l-7.715-2.226s-3.208-2.441-4.3-2.6-1.777.275-1.738.554c.055.39,1.249,1.85,3.264,3.659a15.577,15.577,0,0,0,2.525,1.853l3.527.31Z" transform="translate(-250.259 -1926.806)" fill="#f79e86" stroke="#000" stroke-width="1"/>
                  <g id="Grupo_151314" data-name="Grupo 151314" transform="translate(20.727 7.713)">
                    <path id="Trazado_204097" data-name="Trazado 204097" d="M332.485,1942.6c.186,0,.372-.007.559-.022a.166.166,0,0,0,.152-.178.168.168,0,0,0-.178-.152,6.513,6.513,0,0,1-4.043-1.009.165.165,0,1,0-.178.279A6.79,6.79,0,0,0,332.485,1942.6Z" transform="translate(-328.721 -1941.209)" fill="#e0745c" stroke="#000" stroke-width="1"/>
                  </g>
                </g>
                <g id="Grupo_151319" data-name="Grupo 151319" transform="translate(33.967 31.172)">
                  <path id="Trazado_204100" data-name="Trazado 204100" d="M387.687,1949.024l-2.648-.744-2.758,10.446,3.706.9Z" transform="translate(-382.281 -1948.28)" fill="#fff" stroke="#000" stroke-width="1"/>
                  <path id="Trazado_204101" data-name="Trazado 204101" d="M417.854,1971.959l-31.071-10.551,2.411-12.566,28.66,6.41Z" transform="translate(-385.67 -1948.703)" fill="#3d46c2" stroke="#000" stroke-width="1"/>
                  <g id="Grupo_151318" data-name="Grupo 151318" transform="translate(2.818 11.139)">
                    <path id="Trazado_204102" data-name="Trazado 204102" d="M394.306,1994.975a.83.83,0,1,0-.6-1.009A.83.83,0,0,0,394.306,1994.975Z" transform="translate(-393.68 -1993.34)" fill="#a2c0e6" stroke="#000" stroke-width="1"/>
                    <path id="Trazado_204103" data-name="Trazado 204103" d="M405.009,1997.7a.83.83,0,1,0-.6-1.01A.831.831,0,0,0,405.009,1997.7Z" transform="translate(-401.737 -1995.391)" fill="#a2c0e6" stroke="#000" stroke-width="1"/>
                    <path id="Trazado_204104" data-name="Trazado 204104" d="M415.712,2000.425a.83.83,0,1,0-.6-1.009A.83.83,0,0,0,415.712,2000.425Z" transform="translate(-409.795 -1997.443)" fill="#a2c0e6" stroke="#000" stroke-width="1"/>
                  </g>
                </g>
                <g id="Grupo_151325" data-name="Grupo 151325" transform="translate(2.116 15.649)">
                  <path id="Trazado_204105" data-name="Trazado 204105" d="M272.264,1893.783a3.775,3.775,0,0,0,1.451-1.829l.267.562a3.641,3.641,0,0,1-1.473,1.917,7.319,7.319,0,0,1-1.273.763l-.32-.616A7.357,7.357,0,0,0,272.264,1893.783Z" transform="translate(-266.596 -1890.355)" fill="#dce736" stroke="#000" stroke-width="0.2"/>
                  <path id="Trazado_204106" data-name="Trazado 204106" d="M282.2,1888.842l.246.65a1.19,1.19,0,0,1,.031.682l-.267-.562A1.226,1.226,0,0,0,282.2,1888.842Z" transform="translate(-275.089 -1888.013)" fill="#dce736" stroke="#000" stroke-width="0.2"/>
                  <path id="Trazado_204107" data-name="Trazado 204107" d="M254.3,1902.323a4.751,4.751,0,0,0,3.657-.4l.32.616a4.809,4.809,0,0,1-3.732.429,1.13,1.13,0,0,1-.6-.609l-.246-.65A1.13,1.13,0,0,0,254.3,1902.323Z" transform="translate(-253.64 -1897.703)" fill="#dce736" stroke="#000" stroke-width="0.2"/>
                  <path id="Trazado_204108" data-name="Trazado 204108" d="M282.213,1888.88c0-.013-.009-.025-.013-.037l.246.65.013.038-.246-.65Z" transform="translate(-275.089 -1888.013)" fill="#dce736" stroke="#000" stroke-width="0.2"/>
                  <path id="Trazado_204109" data-name="Trazado 204109" d="M254.946,1886.9c1.614-1.215,3.856-1.748,5-1.192s.77,1.994-.844,3.208-3.855,1.749-5,1.192S253.331,1888.113,254.946,1886.9Z" transform="translate(-253.437 -1885.487)" fill="#dce736" stroke="#000" stroke-width="0.2"/>
                  <g id="Grupo_151320" data-name="Grupo 151320" transform="translate(0.437 0.299)">
                    <path id="Trazado_204110" data-name="Trazado 204110" d="M255.784,1890.767a.912.912,0,0,1-.576-.742c-.065-.612.439-1.383,1.348-2.063,1.419-1.061,3.379-1.553,4.369-1.1a.911.911,0,0,1,.576.743c.065.612-.44,1.383-1.348,2.062a6.254,6.254,0,0,1-3.453,1.267A2.209,2.209,0,0,1,255.784,1890.767Zm.828-2.731a2.631,2.631,0,0,0-1.311,1.979.823.823,0,0,0,.522.667c.962.445,2.88-.043,4.274-1.086.869-.65,1.371-1.408,1.311-1.978a.822.822,0,0,0-.523-.669,2.119,2.119,0,0,0-.882-.164A6.153,6.153,0,0,0,256.612,1888.036Z" transform="translate(-255.203 -1886.695)" fill="#dce736" stroke="#000" stroke-width="0.2"/>
                  </g>
                  <g id="Grupo_151321" data-name="Grupo 151321" transform="translate(0.041 0.032)" style="mix-blend-mode: screen;isolation: isolate">
                    <path id="Trazado_204111" data-name="Trazado 204111" d="M254.266,1890.171a1.068,1.068,0,0,1-.658-.868,3,3,0,0,1,1.5-2.3c1.586-1.192,3.789-1.721,4.911-1.177a1.076,1.076,0,0,1,.663.874,2.992,2.992,0,0,1-1.492,2.292,6.842,6.842,0,0,1-3.818,1.392A2.547,2.547,0,0,1,254.266,1890.171Zm.885-3.108c-.985.741-1.534,1.576-1.47,2.233a1,1,0,0,0,.618.81c1.1.535,3.277.011,4.847-1.169.98-.738,1.527-1.57,1.463-2.227a1.007,1.007,0,0,0-.622-.816,2.478,2.478,0,0,0-1.071-.208A6.757,6.757,0,0,0,255.151,1887.063Z" transform="translate(-253.603 -1885.615)" fill="#dce736" stroke="#000" stroke-width="0.2"/>
                  </g>
                  <g id="Grupo_151324" data-name="Grupo 151324" style="isolation: isolate">
                    <g id="Grupo_151323" data-name="Grupo 151323" clip-path="url(#clip-path-3)">
                      <g id="Grupo_151322" data-name="Grupo 151322" transform="translate(1.8 1.401)">
                        <path id="Trazado_204112" data-name="Trazado 204112" d="M263.687,1892.353l-.535-.26a.962.962,0,0,1,.41-.049c.213.043.206.178.126.309Zm-.209.225a1.364,1.364,0,0,1-.148.093l-.784-.38.24-.083.72.349-.027.022Zm-1.655-.347a.824.824,0,0,1-.484.036c-.122-.054-.1-.161-.017-.279l.5.243Zm.606-.2-.109.039-.13.045-.675-.327.047-.037c.038-.029.078-.056.12-.082l.748.363Zm-.993-.772-.235.177.206.1c-.054.037-.11.077-.167.118l-.2-.1-.235.177.214.1c-.319.306-.429.63-.1.777a1.83,1.83,0,0,0,1.1-.144l.176-.061.8.39a.823.823,0,0,1-.679-.071l-.387.277a1.284,1.284,0,0,0,1.4-.042l.242.117.235-.177-.2-.1c.047-.031.093-.064.137-.1l.027-.021s.2.1.2.1l.235-.177-.224-.108c.292-.3.44-.634.107-.773a2.69,2.69,0,0,0-1.309.19l-.8-.386a.777.777,0,0,1,.692.067l.374-.283a1.344,1.344,0,0,0-1.382.062l-.236-.115Z" transform="translate(-260.718 -1891.153)" fill="#dce736" stroke="#000" stroke-width="0.2"/>
                      </g>
                    </g>
                  </g>
                </g>
                <g id="Grupo_151331" data-name="Grupo 151331" transform="translate(11.625)">
                  <path id="Trazado_204113" data-name="Trazado 204113" d="M292.862,1825.267A3.775,3.775,0,0,1,294,1823.23l-.622-.034a3.64,3.64,0,0,0-1.215,2.09,7.306,7.306,0,0,0-.223,1.467l.691.063A7.337,7.337,0,0,1,292.862,1825.267Z" transform="translate(-291.935 -1822.946)" fill="#dce736" stroke="#000" stroke-width="0.2"/>
                  <path id="Trazado_204114" data-name="Trazado 204114" d="M299.1,1822.188l-.695.019a1.19,1.19,0,0,0-.642.23l.622.034A1.229,1.229,0,0,1,299.1,1822.188Z" transform="translate(-296.313 -1822.188)" fill="#dce736" stroke="#000" stroke-width="0.2"/>
                  <path id="Trazado_204115" data-name="Trazado 204115" d="M293.628,1841.182a4.752,4.752,0,0,1-1.022-3.534l-.691-.063a4.808,4.808,0,0,0,1.019,3.615,1.128,1.128,0,0,0,.79.322l.695-.019A1.129,1.129,0,0,1,293.628,1841.182Z" transform="translate(-291.904 -1833.779)" fill="#dce736" stroke="#000" stroke-width="0.2"/>
                  <path id="Trazado_204116" data-name="Trazado 204116" d="M300.894,1822.19l.04,0-.695.019-.04,0,.695-.019Z" transform="translate(-298.149 -1822.188)" fill="#dce736" stroke="#000" stroke-width="0.2"/>
                  <path id="Trazado_204117" data-name="Trazado 204117" d="M298.389,1827.591c.511-1.955.155-4.231-.8-5.083s-2.137.044-2.648,2-.155,4.231.8,5.083S297.878,1829.546,298.389,1827.591Z" transform="translate(-294.018 -1822.186)" fill="#dce736" stroke="#000" stroke-width="0.2"/>
                  <g id="Grupo_151326" data-name="Grupo 151326" transform="translate(0.968 0.457)">
                    <path id="Trazado_204118" data-name="Trazado 204118" d="M296.672,1830.56c-.8-.743-1.087-2.744-.643-4.458.284-1.1.806-1.857,1.4-2.03a.913.913,0,0,1,.906.251c.8.743,1.087,2.743.643,4.458-.284,1.1-.806,1.857-1.4,2.03a.876.876,0,0,1-.246.036A.965.965,0,0,1,296.672,1830.56Zm2.213-1.8c.436-1.686.16-3.645-.617-4.367a.828.828,0,0,0-.816-.23c-.55.161-1.061.913-1.333,1.963-.436,1.686-.16,3.645.616,4.367a.828.828,0,0,0,.817.23c.55-.161,1.061-.913,1.333-1.963Z" transform="translate(-295.82 -1824.036)" fill="#dce736" stroke="#000" stroke-width="0.2"/>
                  </g>
                  <g id="Grupo_151327" data-name="Grupo 151327" transform="translate(0.729 0.059)" style="mix-blend-mode: screen;isolation: isolate">
                    <path id="Trazado_204119" data-name="Trazado 204119" d="M295.862,1829.72c-.932-.835-1.281-3.079-.778-5,.317-1.211.9-2.052,1.555-2.25a1.077,1.077,0,0,1,1.06.281c.929.833,1.277,3.071.775,4.99-.318,1.216-.9,2.061-1.557,2.259a1,1,0,0,1-.29.044A1.145,1.145,0,0,1,295.862,1829.72Zm.8-7.181c-.632.19-1.195,1.012-1.505,2.2-.5,1.9-.157,4.11.757,4.928a1,1,0,0,0,.984.264c.633-.19,1.2-1.015,1.508-2.208.5-1.9.158-4.1-.753-4.917a1.077,1.077,0,0,0-.721-.307A.925.925,0,0,0,296.659,1822.539Z" transform="translate(-294.853 -1822.425)" fill="#dce736" stroke="#000" stroke-width="0.2"/>
                  </g>
                  <g id="Grupo_151330" data-name="Grupo 151330" transform="translate(0.694)" style="isolation: isolate">
                    <g id="Grupo_151329" data-name="Grupo 151329" clip-path="url(#clip-path-4)">
                      <g id="Grupo_151328" data-name="Grupo 151328" transform="translate(0.706 2.123)">
                        <path id="Trazado_204120" data-name="Trazado 204120" d="M298.2,1831.491c.091-.124.213-.181.334,0a.961.961,0,0,1,.11.4l-.443-.4Zm-.129.279.01-.033.6.534c0,.079.009.163.014.254l-.649-.581a1.439,1.439,0,0,1,.029-.173Zm.949,1.4.415.372c-.076.124-.169.182-.265.09a.828.828,0,0,1-.15-.462Zm-.048-.635.619.554c-.008.049-.018.1-.03.142-.005.02-.011.039-.016.058l-.559-.5c0-.046-.005-.091-.008-.138,0-.026,0-.066-.006-.116Zm1.092.626-.2-.175a1.344,1.344,0,0,0-.467-1.3l-.12.454a.776.776,0,0,1,.325.614l-.66-.591a2.689,2.689,0,0,0-.321-1.284c-.256-.255-.51.009-.675.392l-.185-.166-.074.285s.165.148.165.15l-.009.033c-.014.054-.026.109-.038.164l-.17-.152-.074.285.2.179c-.044.563.092,1.129.493,1.313l.109-.463a.822.822,0,0,1-.324-.6l.666.6c0,.062.007.12.01.186a1.832,1.832,0,0,0,.286,1.075c.261.25.519.025.681-.386l.177.159.074-.285-.165-.148c.017-.069.032-.136.046-.2l.17.153.074-.285Z" transform="translate(-297.568 -1830.774)" fill="#dce736" stroke="#000" stroke-width="0.2"/>
                      </g>
                    </g>
                  </g>
                </g>
                <g id="Grupo_151337" data-name="Grupo 151337" transform="translate(23.298 7.77)">
                  <path id="Trazado_204121" data-name="Trazado 204121" d="M357.992,1860.256a3.776,3.776,0,0,1,1.042,2.09l.378-.495a3.64,3.64,0,0,0-1.045-2.18,7.32,7.32,0,0,0-1.087-1.009l-.441.536A7.343,7.343,0,0,1,357.992,1860.256Z" transform="translate(-352.458 -1857.414)" fill="#dce736" stroke="#000" stroke-width="0.2"/>
                  <path id="Trazado_204122" data-name="Trazado 204122" d="M365.039,1872.809l.375-.585a1.19,1.19,0,0,0,.171-.661l-.378.5A1.229,1.229,0,0,1,365.039,1872.809Z" transform="translate(-358.632 -1867.126)" fill="#dce736" stroke="#000" stroke-width="0.2"/>
                  <path id="Trazado_204123" data-name="Trazado 204123" d="M340.531,1854.257a4.753,4.753,0,0,1,3.5,1.142l.441-.536a4.81,4.81,0,0,0-3.563-1.191,1.128,1.128,0,0,0-.71.472l-.375.585A1.13,1.13,0,0,1,340.531,1854.257Z" transform="translate(-339.648 -1853.616)" fill="#dce736" stroke="#000" stroke-width="0.2"/>
                  <path id="Trazado_204124" data-name="Trazado 204124" d="M365.06,1874.683l-.021.034.375-.585.021-.034-.375.585Z" transform="translate(-358.632 -1869.035)" fill="#dce736" stroke="#000" stroke-width="0.2"/>
                  <path id="Trazado_204125" data-name="Trazado 204125" d="M340.168,1859.352c1.329,1.522,3.412,2.507,4.65,2.2s1.165-1.792-.163-3.313-3.411-2.508-4.65-2.2S338.839,1857.831,340.168,1859.352Z" transform="translate(-339.122 -1855.398)" fill="#dce736" stroke="#000" stroke-width="0.2"/>
                  <g id="Grupo_151332" data-name="Grupo 151332" transform="translate(0.409 0.919)">
                    <path id="Trazado_204126" data-name="Trazado 204126" d="M341.72,1860.276a2.676,2.676,0,0,1-.892-2.3.912.912,0,0,1,.717-.608c1.066-.24,2.879.645,4.048,1.976a2.675,2.675,0,0,1,.893,2.3.911.911,0,0,1-.717.608,1.732,1.732,0,0,1-.38.04A5.68,5.68,0,0,1,341.72,1860.276Zm-.154-2.814a.823.823,0,0,0-.649.546,2.631,2.631,0,0,0,.874,2.206c1.149,1.308,2.927,2.185,3.957,1.946a.822.822,0,0,0,.65-.545,2.63,2.63,0,0,0-.874-2.207,5.578,5.578,0,0,0-3.592-1.985A1.631,1.631,0,0,0,341.565,1857.462Z" transform="translate(-340.775 -1857.332)" fill="#dce736" stroke="#000" stroke-width="0.2"/>
                  </g>
                  <g id="Grupo_151333" data-name="Grupo 151333" transform="translate(0.037 0.625)" style="mix-blend-mode: screen;isolation: isolate">
                    <path id="Trazado_204127" data-name="Trazado 204127" d="M340.317,1859.471a3.008,3.008,0,0,1-.992-2.559,1.068,1.068,0,0,1,.824-.713c1.216-.306,3.266.671,4.573,2.169a2.994,2.994,0,0,1,.986,2.551,1.075,1.075,0,0,1-.829.718,1.989,1.989,0,0,1-.48.055A6.235,6.235,0,0,1,340.317,1859.471Zm-.151-3.2a1,1,0,0,0-.772.665,2.94,2.94,0,0,0,.977,2.488c1.289,1.477,3.3,2.438,4.49,2.143a1.006,1.006,0,0,0,.777-.669,2.929,2.929,0,0,0-.972-2.481,6.165,6.165,0,0,0-4.032-2.2A1.979,1.979,0,0,0,340.167,1856.27Z" transform="translate(-339.27 -1856.143)" fill="#dce736" stroke="#000" stroke-width="0.2"/>
                  </g>
                  <g id="Grupo_151336" data-name="Grupo 151336" transform="translate(0 0.585)" style="isolation: isolate">
                    <g id="Grupo_151335" data-name="Grupo 151335" clip-path="url(#clip-path-5)">
                      <g id="Grupo_151334" data-name="Grupo 151334" transform="translate(1.533 1.782)">
                        <path id="Trazado_204128" data-name="Trazado 204128" d="M348.271,1864.29c.051.145.03.278-.187.276a.959.959,0,0,1-.391-.133l.578-.143Zm-.158-.263.022.027-.777.193-.217-.131.846-.209a1.441,1.441,0,0,1,.126.121Zm-1.691,0-.54.134c-.06-.133-.056-.242.074-.27a.827.827,0,0,1,.466.136Zm.552.318-.806.2c-.036-.034-.07-.069-.1-.1l-.038-.046.728-.181.118.071.1.06Zm-1.131.551.255-.063a1.344,1.344,0,0,0,1.34.346l-.308-.354a.777.777,0,0,1-.691-.077l.86-.214a2.688,2.688,0,0,0,1.242.457c.355-.068.28-.427.056-.779l.241-.06-.194-.222s-.216.053-.217.052l-.023-.026c-.037-.042-.075-.083-.114-.123l.221-.055-.194-.222-.261.065a1.284,1.284,0,0,0-1.363-.331l.321.351a.821.821,0,0,1,.679.071l-.867.215-.159-.1a1.836,1.836,0,0,0-1.05-.369c-.353.075-.313.415-.064.781l-.231.057.194.222.216-.053c.048.053.094.1.139.15l-.222.055.194.222Z" transform="translate(-345.322 -1863.191)" fill="#dce736" stroke="#000" stroke-width="0.2"/>
                      </g>
                    </g>
                  </g>
                </g>
                <g id="Grupo_151343" data-name="Grupo 151343" transform="translate(12.346 14.282)">
                  <path id="Trazado_204129" data-name="Trazado 204129" d="M308.37,1880.671a3.776,3.776,0,0,1,2.328.185l-.229-.579a3.639,3.639,0,0,0-2.407-.229,7.316,7.316,0,0,0-1.425.412l.232.654A7.318,7.318,0,0,1,308.37,1880.671Z" transform="translate(-303.715 -1879.957)" fill="#dce736" stroke="#000" stroke-width="0.2"/>
                  <path id="Trazado_204130" data-name="Trazado 204130" d="M322.925,1882.364l-.308-.623a1.187,1.187,0,0,0-.478-.487l.229.579A1.227,1.227,0,0,1,322.925,1882.364Z" transform="translate(-315.385 -1880.933)" fill="#dce736" stroke="#000" stroke-width="0.2"/>
                  <path id="Trazado_204131" data-name="Trazado 204131" d="M295.19,1885.052a4.751,4.751,0,0,1,2.782-2.407l-.232-.654a4.808,4.808,0,0,0-2.858,2.438,1.129,1.129,0,0,0,.038.852l.308.623A1.128,1.128,0,0,1,295.19,1885.052Z" transform="translate(-294.818 -1881.488)" fill="#dce736" stroke="#000" stroke-width="0.2"/>
                  <path id="Trazado_204132" data-name="Trazado 204132" d="M324.306,1883.7l.018.036-.308-.623-.018-.035.308.623Z" transform="translate(-316.784 -1882.308)" fill="#dce736" stroke="#000" stroke-width="0.2"/>
                  <path id="Trazado_204133" data-name="Trazado 204133" d="M299.051,1886.986c1.989-.354,3.908-1.63,4.283-2.85s-.934-1.922-2.923-1.569-3.907,1.629-4.283,2.85S297.062,1887.339,299.051,1886.986Z" transform="translate(-295.756 -1881.853)" fill="#dce736" stroke="#000" stroke-width="0.2"/>
                  <g id="Grupo_151338" data-name="Grupo 151338" transform="translate(0.734 0.939)">
                    <path id="Trazado_204134" data-name="Trazado 204134" d="M298,1887.219a.912.912,0,0,1-.151-.928c.341-1.036,2.037-2.135,3.781-2.45a2.677,2.677,0,0,1,2.428.419.912.912,0,0,1,.151.928c-.341,1.036-2.037,2.135-3.781,2.45a5.132,5.132,0,0,1-.9.086A2,2,0,0,1,298,1887.219Zm2.411.328c1.714-.31,3.378-1.38,3.709-2.387a.825.825,0,0,0-.133-.838,2.627,2.627,0,0,0-2.341-.388c-1.714.309-3.378,1.379-3.709,2.387a.823.823,0,0,0,.133.837,2.623,2.623,0,0,0,2.341.389Z" transform="translate(-297.788 -1883.755)" fill="#dce736" stroke="#000" stroke-width="0.2"/>
                  </g>
                  <g id="Grupo_151339" data-name="Grupo 151339" transform="translate(0.358 0.664)" style="mix-blend-mode: screen;isolation: isolate">
                    <path id="Trazado_204135" data-name="Trazado 204135" d="M296.519,1886.607a1.069,1.069,0,0,1-.186-1.073c.368-1.2,2.259-2.452,4.216-2.8a2.992,2.992,0,0,1,2.694.47,1.075,1.075,0,0,1,.188,1.08c-.367,1.192-2.255,2.445-4.208,2.792a5.674,5.674,0,0,1-.992.093A2.264,2.264,0,0,1,296.519,1886.607Zm2.691.4c1.929-.343,3.791-1.573,4.151-2.742a1.007,1.007,0,0,0-.173-1.011,2.928,2.928,0,0,0-2.627-.447c-1.932.344-3.8,1.577-4.159,2.75a1,1,0,0,0,.171,1,2.942,2.942,0,0,0,2.637.447Z" transform="translate(-296.268 -1882.641)" fill="#dce736" stroke="#000" stroke-width="0.2"/>
                  </g>
                  <g id="Grupo_151342" data-name="Grupo 151342" transform="translate(0.308 0.623)" style="isolation: isolate">
                    <g id="Grupo_151341" data-name="Grupo 151341" clip-path="url(#clip-path-6)">
                      <g id="Grupo_151340" data-name="Grupo 151340" transform="translate(2.234 0.757)">
                        <path id="Trazado_204136" data-name="Trazado 204136" d="M307.206,1886.094c.15.031.254.117.14.3a.955.955,0,0,1-.315.266l.175-.569Zm-.307,0,.034-.005-.235.765-.224.118.256-.833a1.477,1.477,0,0,1,.169-.045Zm-.875,1.448-.164.532c-.145-.018-.236-.077-.193-.2a.828.828,0,0,1,.357-.329Zm.557-.309-.245.794q-.072.02-.141.032l-.059.009.221-.717.122-.065c.023-.013.058-.031.1-.054Zm-.112,1.253.077-.251a1.343,1.343,0,0,0,.987-.969l-.462.081a.777.777,0,0,1-.422.552l.261-.847c.4-.228.934-.566,1.032-.829.125-.339-.222-.46-.639-.449l.073-.238-.29.052s-.066.212-.067.213l-.034.006c-.055.01-.11.021-.165.035l.067-.218-.29.052-.079.257c-.53.195-.987.555-.987,1l.466-.094a.823.823,0,0,1,.411-.545l-.263.854-.164.087c-.382.2-.769.455-.857.709-.118.342.195.482.636.457l-.07.228.29-.052.066-.212c.07-.013.137-.028.2-.042l-.067.219.29-.052Z" transform="translate(-305.101 -1885.536)" fill="#dce736" stroke="#000" stroke-width="0.2"/>
                      </g>
                    </g>
                  </g>
                </g>
                <g id="Grupo_151349" data-name="Grupo 151349" transform="translate(11.529 28.557)">
                  <path id="Trazado_204139" data-name="Trazado 204139" d="M306.727,1952.818a3.776,3.776,0,0,0,2.27-.549l-.135.608a3.639,3.639,0,0,1-2.341.6,7.311,7.311,0,0,1-1.473-.182l.126-.683A7.333,7.333,0,0,0,306.727,1952.818Z" transform="translate(-301.702 -1948.668)" fill="#dce736" stroke="#000" stroke-width="0.2"/>
                  <path id="Trazado_204140" data-name="Trazado 204140" d="M321.075,1949.793l-.206.664a1.188,1.188,0,0,1-.4.556l.135-.608A1.23,1.23,0,0,0,321.075,1949.793Z" transform="translate(-313.315 -1946.804)" fill="#dce736" stroke="#000" stroke-width="0.2"/>
                  <path id="Trazado_204141" data-name="Trazado 204141" d="M291.861,1943.253a4.752,4.752,0,0,0,3.126,1.939l-.126.682a4.809,4.809,0,0,1-3.206-1.958,1.129,1.129,0,0,1-.1-.847l.206-.664A1.129,1.129,0,0,0,291.861,1943.253Z" transform="translate(-291.515 -1941.243)" fill="#dce736" stroke="#000" stroke-width="0.2"/>
                  <path id="Trazado_204142" data-name="Trazado 204142" d="M322.228,1949.831l.013-.038-.206.664-.013.038.206-.664Z" transform="translate(-314.48 -1946.804)" fill="#dce736" stroke="#000" stroke-width="0.2"/>
                  <path id="Trazado_204143" data-name="Trazado 204143" d="M295.128,1937.7c2.02.036,4.115.995,4.678,2.14s-.62,2.045-2.64,2.009-4.115-.994-4.678-2.14S293.108,1937.667,295.128,1937.7Z" transform="translate(-292.142 -1937.702)" fill="#dce736" stroke="#000" stroke-width="0.2"/>
                  <g id="Grupo_151344" data-name="Grupo 151344" transform="translate(0.65 0.294)">
                    <path id="Trazado_204144" data-name="Trazado 204144" d="M298.391,1942.453c-1.772-.037-3.619-.854-4.119-1.824a.911.911,0,0,1,0-.94,2.584,2.584,0,0,1,2.21-.8h.121c1.772.036,3.62.855,4.119,1.824a.912.912,0,0,1,0,.94,2.583,2.583,0,0,1-2.209.8Zm-1.786-3.468h-.115a2.542,2.542,0,0,0-2.135.754.823.823,0,0,0,0,.848c.485.942,2.3,1.738,4.038,1.774h.116a2.541,2.541,0,0,0,2.134-.753.824.824,0,0,0,0-.848c-.485-.942-2.3-1.739-4.038-1.774Z" transform="translate(-294.143 -1938.891)" fill="#dce736" stroke="#000" stroke-width="0.2"/>
                  </g>
                  <g id="Grupo_151345" data-name="Grupo 151345" transform="translate(0.257 0.031)" style="mix-blend-mode: screen;isolation: isolate">
                    <path id="Trazado_204145" data-name="Trazado 204145" d="M297.3,1941.906c-1.987-.035-4.053-.978-4.6-2.1a1.07,1.07,0,0,1,.015-1.09,2.915,2.915,0,0,1,2.476-.89h.12c1.984.036,4.045.976,4.6,2.094a1.077,1.077,0,0,1-.016,1.1,2.9,2.9,0,0,1-2.467.889Zm-4.528-3.152a1,1,0,0,0-.011,1.018c.541,1.1,2.578,2.026,4.54,2.061h.119a2.839,2.839,0,0,0,2.4-.855,1.006,1.006,0,0,0,.011-1.025c-.539-1.1-2.572-2.019-4.531-2.055h-.12A2.85,2.85,0,0,0,292.771,1938.755Z" transform="translate(-292.553 -1937.826)" fill="#dce736" stroke="#000" stroke-width="0.2"/>
                  </g>
                  <g id="Grupo_151348" data-name="Grupo 151348" transform="translate(0.206)" style="isolation: isolate">
                    <g id="Grupo_151347" data-name="Grupo 151347" clip-path="url(#clip-path-7)">
                      <g id="Grupo_151346" data-name="Grupo 151346" transform="translate(2.224 0.684)">
                        <path id="Trazado_204146" data-name="Trazado 204146" d="M303.738,1942.729l-.263-.534a.959.959,0,0,1,.353.213c.141.165.053.266-.091.321Zm-.3.048a1.392,1.392,0,0,1-.174-.018l-.384-.782.24.082.353.718Zm-1.091-1.292a.829.829,0,0,1-.4-.269c-.063-.117.018-.191.158-.231l.245.5Zm.6.218c-.047-.015-.085-.028-.11-.037l-.131-.045-.331-.673h.06c.047,0,.1,0,.145.01l.366.746Zm-.308-1.22-.294-.005.1.205q-.1-.006-.2-.01l-.1-.2-.294-.006.105.214c-.44.045-.726.233-.556.552a1.829,1.829,0,0,0,.958.565l.176.06.394.8a.822.822,0,0,1-.491-.474l-.475-.02c.069.436.577.72,1.131.829l.118.241.294.005-.1-.2c.056,0,.112.007.168.008h.034s.1.2.1.2l.294.005-.11-.223c.413-.055.736-.229.56-.544a2.69,2.69,0,0,0-1.149-.656l-.391-.8a.776.776,0,0,1,.5.479l.469.008a1.344,1.344,0,0,0-1.127-.8l-.116-.236Z" transform="translate(-301.343 -1940.468)" fill="#dce736" stroke="#000" stroke-width="0.2"/>
                      </g>
                    </g>
                  </g>
                </g>
                <g id="Grupo_151355" data-name="Grupo 151355" transform="translate(19.394 22.006)">
                  <path id="Trazado_204147" data-name="Trazado 204147" d="M342.156,1919.5a3.775,3.775,0,0,0,1.451-1.829l.267.562a3.639,3.639,0,0,1-1.473,1.917,7.33,7.33,0,0,1-1.273.763l-.321-.616A7.329,7.329,0,0,0,342.156,1919.5Z" transform="translate(-336.488 -1916.071)" fill="#dce736" stroke="#000" stroke-width="0.2"/>
                  <path id="Trazado_204148" data-name="Trazado 204148" d="M352.093,1914.558l.246.65a1.19,1.19,0,0,1,.031.682l-.268-.562A1.229,1.229,0,0,0,352.093,1914.558Z" transform="translate(-344.982 -1913.729)" fill="#dce736" stroke="#000" stroke-width="0.2"/>
                  <path id="Trazado_204149" data-name="Trazado 204149" d="M324.2,1928.038a4.752,4.752,0,0,0,3.657-.395l.321.616a4.809,4.809,0,0,1-3.732.429,1.13,1.13,0,0,1-.6-.609l-.246-.65A1.127,1.127,0,0,0,324.2,1928.038Z" transform="translate(-323.533 -1923.418)" fill="#dce736" stroke="#000" stroke-width="0.2"/>
                  <path id="Trazado_204150" data-name="Trazado 204150" d="M352.106,1914.6c0-.013-.009-.025-.013-.038l.246.65.013.038-.246-.65Z" transform="translate(-344.982 -1913.729)" fill="#dce736" stroke="#000" stroke-width="0.2"/>
                  <path id="Trazado_204151" data-name="Trazado 204151" d="M324.838,1912.615c1.615-1.215,3.856-1.748,5-1.192s.77,1.994-.844,3.208-3.855,1.749-5,1.192S323.223,1913.829,324.838,1912.615Z" transform="translate(-323.329 -1911.203)" fill="#dce736" stroke="#000" stroke-width="0.2"/>
                  <g id="Grupo_151350" data-name="Grupo 151350" transform="translate(0.437 0.3)">
                    <path id="Trazado_204152" data-name="Trazado 204152" d="M325.676,1916.486a.912.912,0,0,1-.576-.743c-.064-.612.439-1.382,1.348-2.062,1.419-1.062,3.379-1.551,4.369-1.1a.912.912,0,0,1,.576.743c.064.612-.44,1.382-1.348,2.062a6.25,6.25,0,0,1-3.453,1.267A2.21,2.21,0,0,1,325.676,1916.486Zm.828-2.731a2.631,2.631,0,0,0-1.311,1.979.823.823,0,0,0,.523.667c.961.445,2.88-.043,4.274-1.086.869-.65,1.372-1.408,1.311-1.978a.823.823,0,0,0-.523-.668,2.127,2.127,0,0,0-.883-.165A6.149,6.149,0,0,0,326.5,1913.755Z" transform="translate(-325.095 -1912.414)" fill="#dce736" stroke="#000" stroke-width="0.2"/>
                  </g>
                  <g id="Grupo_151351" data-name="Grupo 151351" transform="translate(0.041 0.031)" style="mix-blend-mode: screen;isolation: isolate">
                    <path id="Trazado_204153" data-name="Trazado 204153" d="M324.158,1915.886a1.069,1.069,0,0,1-.658-.868,3.007,3.007,0,0,1,1.5-2.3c1.585-1.192,3.788-1.722,4.911-1.177a1.075,1.075,0,0,1,.662.874,2.993,2.993,0,0,1-1.492,2.292,6.841,6.841,0,0,1-3.818,1.393A2.551,2.551,0,0,1,324.158,1915.886Zm.885-3.108c-.984.741-1.534,1.576-1.47,2.233a1,1,0,0,0,.618.811c1.1.533,3.278.01,4.847-1.17.98-.738,1.527-1.57,1.463-2.227a1.008,1.008,0,0,0-.622-.816,2.478,2.478,0,0,0-1.071-.208A6.756,6.756,0,0,0,325.043,1912.778Z" transform="translate(-323.495 -1911.329)" fill="#dce736" stroke="#000" stroke-width="0.2"/>
                  </g>
                  <g id="Grupo_151354" data-name="Grupo 151354" style="isolation: isolate">
                    <g id="Grupo_151353" data-name="Grupo 151353" clip-path="url(#clip-path-8)">
                      <g id="Grupo_151352" data-name="Grupo 151352" transform="translate(1.8 1.401)">
                        <path id="Trazado_204154" data-name="Trazado 204154" d="M333.579,1918.069l-.535-.26a.965.965,0,0,1,.41-.049c.213.043.206.178.126.309Zm-.209.225a1.41,1.41,0,0,1-.148.093l-.784-.38.24-.083.72.349-.027.022Zm-1.655-.347a.827.827,0,0,1-.484.037c-.122-.054-.1-.161-.017-.279l.5.243Zm.606-.2c-.047.018-.085.031-.11.038l-.13.045-.675-.327.047-.037c.038-.028.078-.056.12-.082l.748.362Zm-.994-.772-.235.177.206.1c-.054.037-.11.077-.167.118l-.2-.1-.235.177.214.1c-.319.306-.429.63-.1.777a1.837,1.837,0,0,0,1.1-.144l.176-.062.8.39a.823.823,0,0,1-.679-.072l-.387.277a1.285,1.285,0,0,0,1.4-.042l.242.117.235-.177-.2-.1c.047-.031.093-.064.137-.1l.027-.021s.2.1.2.1l.235-.177-.224-.109c.292-.3.439-.634.106-.773a2.688,2.688,0,0,0-1.309.19l-.8-.386a.776.776,0,0,1,.692.067l.374-.283a1.344,1.344,0,0,0-1.382.062l-.236-.115Z" transform="translate(-330.611 -1916.869)" fill="#dce736" stroke="#000" stroke-width="0.2"/>
                      </g>
                    </g>
                  </g>
                </g>
              </g>
            </g>
          </g>
        </g>
      </g>
    </g>
  </g>
</svg>
