<svg xmlns="http://www.w3.org/2000/svg" width="150" height="150" viewBox="0 0 150 150">
  <g id="Grupo_152689" data-name="Grupo 152689" transform="translate(-591 -5571)">
    <g id="Grupo_152445" data-name="Grupo 152445" transform="translate(0 20)">
      <g id="Grupo_149963" data-name="Grupo 149963" transform="translate(0 2546)">
        <g id="Elipse_5972" data-name="Elipse 5972" transform="translate(591 3005)" fill="#fff" stroke="#77b43a" stroke-width="4">
          <circle cx="75" cy="75" r="75" stroke="none"/>
          <circle cx="75" cy="75" r="73" fill="none"/>
        </g>
      </g>
      <g id="Grupo_150578" data-name="Grupo 150578" transform="translate(587.043 5283.198)">
        <g id="Grupo_150577" data-name="Grupo 150577" transform="translate(29.957 301.802)">
          <path id="Trazado_202726" data-name="Trazado 202726" d="M158.955,301.8v68.82H96.306V359.595a26.981,26.981,0,1,0,0-46.19V301.8Zm-4.65,60.477V359.8H131.352v2.478Zm0-49.968v-2.482H131.352v2.482Zm-.179,14.494v-2.483H137.8v2.483Zm0-7.2v-2.482H137.8v2.482Zm-.036,35.635v-2.483H141.084v2.483Zm0-7.272V345.5H141.084v2.478Zm0-6.813v-2.482H141.084v2.482Zm0-7.272v-2.483H141.084v2.483Z" transform="translate(-61.705 -301.802)" fill="#f85316" stroke="#0a0a0a" stroke-width="1"/>
          <path id="Trazado_202727" data-name="Trazado 202727" d="M114.821,329.828a23.18,23.18,0,0,1-29.874,35.239l-7.667,7.645-5.455-5.473,7.668-7.64a23.181,23.181,0,0,1,35.329-29.771Zm-3.638,29.186a18.1,18.1,0,1,0-25.6-.041A18.1,18.1,0,0,0,111.183,359.014Z" transform="translate(-49.991 -311.952)" fill="#dce736" stroke="#0a0a0a" stroke-width="1"/>
          <path id="Trazado_202728" data-name="Trazado 202728" d="M119.532,342.82a1.815,1.815,0,0,1,.71,2.459L107.969,367.6a1.782,1.782,0,0,1-1.65.931,1.812,1.812,0,0,1-1.583-.72L98.2,359.05a1.806,1.806,0,1,1,2.9-2.159l4.97,6.665,11-20.021A1.82,1.82,0,0,1,119.532,342.82Z" transform="translate(-62.44 -321.323)" fill="#3d46c2" stroke="#0a0a0a" stroke-width="1"/>
          <path id="Trazado_202729" data-name="Trazado 202729" d="M55.424,413.458a5.072,5.072,0,0,1-.045,7.173L40.408,435.422,29.957,424.84l14.971-14.786a5.067,5.067,0,0,1,7.173.045Z" transform="translate(-29.957 -352.9)" fill="#dce736" stroke="#0a0a0a" stroke-width="1"/>
        </g>
      </g>
    </g>
  </g>
</svg>
