<svg xmlns="http://www.w3.org/2000/svg" width="150" height="150" viewBox="0 0 150 150">
  <g id="Grupo_152688" data-name="Grupo 152688" transform="translate(-309 -5574)">
    <g id="Grupo_152444" data-name="Grupo 152444" transform="translate(0 20)">
      <g id="Grupo_149962" data-name="Grupo 149962" transform="translate(0 2546)">
        <g id="Elipse_5971" data-name="Elipse 5971" transform="translate(309 3008)" fill="#fff" stroke="#77b43a" stroke-width="4">
          <circle cx="75" cy="75" r="75" stroke="none"/>
          <circle cx="75" cy="75" r="73" fill="none"/>
        </g>
      </g>
      <g id="Grupo_150576" data-name="Grupo 150576" transform="translate(49.749 5547.941)">
        <g id="Grupo_150575" data-name="Grupo 150575" transform="translate(290.251 30.059)">
          <g id="Grupo_150574" data-name="Grupo 150574">
            <g id="Grupo_150573" data-name="Grupo 150573">
              <path id="Trazado_202720" data-name="Trazado 202720" d="M375.8,125.948l2.568,12.7-12.919-1.069,3.088-3.467-9.29-8.264a28.3,28.3,0,0,1-12.267,4.358v11.075h4.643l-7.786,10.363-7.787-10.363H340.7V130.208A28.346,28.346,0,0,1,328.19,125.7l-9.461,8.417,3.084,3.467L308.9,138.651l2.569-12.7,3.084,3.467,8.758-7.786a28.976,28.976,0,0,1-2.13-2.488H327.6a23.661,23.661,0,0,0,32.471,0h6.419a28.45,28.45,0,0,1-2.317,2.679l8.536,7.594Z" transform="translate(-299.587 -74.66)" fill="#3d46c2" stroke="#070707" stroke-width="1"/>
              <path id="Trazado_202721" data-name="Trazado 202721" d="M429.2,173.787c1.116,0,2.824-1.571,2.824-3.509s-.716-3.506-2.824-3.506-2.82,1.567-2.82,3.506S428.084,173.787,429.2,173.787Zm2.334-.779a2.148,2.148,0,0,1-1.529,1.64v.2a.8.8,0,1,1-1.606,0v-.2a2.149,2.149,0,0,1-1.529-1.64c-2.019.383-4.924,1.4-4.924,4.038v3.685s.456,3.169,6.824,3.169h.864c6.364,0,6.824-3.169,6.824-3.169v-3.685C436.454,174.405,433.549,173.391,431.53,173.007Zm-2.334-9.515a11.844,11.844,0,1,1-11.841,11.841A11.844,11.844,0,0,1,429.2,163.492Z" transform="translate(-353.887 -96.864)" fill="#f85316" stroke="#070707" stroke-width="1"/>
              <path id="Trazado_202722" data-name="Trazado 202722" d="M378.749,74.006V83.8s-1.218,8.425-18.141,8.425l-2.3,0c-16.923,0-18.141-8.421-18.141-8.421V74.006c0-7.032,7.723-9.724,13.094-10.747a6.444,6.444,0,0,0,12.4,0C371.027,64.282,378.749,66.974,378.749,74.006Zm-14.985,7.731-3.378-12.4h-1.862l-3.378,12.4,4.311,5.981Z" transform="translate(-315.24 -46.681)" fill="#f85316" stroke="#070707" stroke-width="1"/>
              <path id="Trazado_202723" data-name="Trazado 202723" d="M366.147,187.206a11.844,11.844,0,1,1-11.841,11.846A11.845,11.845,0,0,1,366.147,187.206Zm.494,14.329a1.694,1.694,0,0,0,.911-3.122v-5.55a.752.752,0,1,0-1.5,0v5.392a1.686,1.686,0,0,0-1.035,1.125L357,201.3a.753.753,0,1,0,.349,1.465l7.94-1.9A1.693,1.693,0,0,0,366.642,201.535Z" transform="translate(-322.321 -108.737)" fill="#dce736" stroke="#070707" stroke-width="1"/>
              <path id="Trazado_202724" data-name="Trazado 202724" d="M371.28,30.059c5.6,0,7.5,4.174,7.5,9.324s-4.541,9.329-7.5,9.329-7.506-4.174-7.506-9.329S365.674,30.059,371.28,30.059Z" transform="translate(-327.061 -30.059)" fill="#f85316" stroke="#070707" stroke-width="1"/>
              <path id="Trazado_202725" data-name="Trazado 202725" d="M302.092,163.492a11.844,11.844,0,1,1-11.841,11.841A11.844,11.844,0,0,1,302.092,163.492Zm6.56,13.929c0-2.023-1.316-3.241-4.656-4.174-2.411-.69-3.395-1.18-3.395-1.891,0-.622.588-1.265,2.411-1.265a10.542,10.542,0,0,1,4.042.779l-.021-2.513a8.466,8.466,0,0,0-3.233-.733v-.95h-2.752v1.108c-3,.443-4.741,1.976-4.741,3.953,0,2.156,2.049,3.263,5.052,4.064,2.1.558,3,1.091,3,1.934,0,.864-1.094,1.376-2.722,1.376a12,12,0,0,1-4.66-.975L297,180.87a14.8,14.8,0,0,0,3.906.814v.963h2.777v-1.142C306.914,181.084,308.652,179.4,308.652,177.421Z" transform="translate(-290.251 -96.864)" fill="#75b62f" stroke="#070707" stroke-width="1"/>
            </g>
          </g>
        </g>
      </g>
    </g>
  </g>
</svg>
